<svg width="20" height="20" viewBox="0 0 20 20" fill="none" xmlns="http://www.w3.org/2000/svg">
  <path d="M19.0883 0H11.8167C11.3147 0 10.9077 0.406971 10.9077 0.908967C10.9077 1.41096 11.3147 1.81793 11.8167 1.81793H16.8939L7.53815 11.1737C7.18325 11.5286 7.18325 12.1042 7.53815 12.4592C7.71559 12.6366 7.94821 12.7254 8.18083 12.7254C8.41346 12.7254 8.64612 12.6366 8.82351 12.4591L18.1794 3.10337V8.18063C18.1794 8.68262 18.5864 9.08959 19.0884 9.08959C19.5904 9.08959 19.9973 8.68262 19.9973 8.18063V0.908967C19.9973 0.406971 19.5903 0 19.0883 0Z" fill="url(#paint0_linear)"/>
  <path d="M15.4523 9.08849C14.9503 9.08849 14.5433 9.49546 14.5433 9.99746V18.1781H1.8179V5.45266H9.99852C10.5005 5.45266 10.9075 5.04569 10.9075 4.54369C10.9075 4.0417 10.5005 3.63477 9.99852 3.63477H0.908967C0.406971 3.63477 0 4.04174 0 4.54373V19.0871C0 19.589 0.406971 19.996 0.908967 19.996H15.4523C15.9543 19.996 16.3613 19.589 16.3613 19.087V9.99746C16.3612 9.49546 15.9542 9.08849 15.4523 9.08849Z" fill="url(#paint1_linear)"/>
  <defs>
    <linearGradient id="paint0_linear" x1="18.6392" y1="-3.33284" x2="7.48713" y2="-3.22663" gradientUnits="userSpaceOnUse">
      <stop stop-color="#00FFA3"/>
      <stop offset="1" stop-color="#DC1FFF"/>
    </linearGradient>
    <linearGradient id="paint1_linear" x1="14.615" y1="-0.650314" x2="0.276636" y2="-0.513764" gradientUnits="userSpaceOnUse">
      <stop stop-color="#00FFA3"/>
      <stop offset="1" stop-color="#DC1FFF"/>
    </linearGradient>
  </defs>
</svg>
