<svg width="56" height="56" viewBox="0 0 56 56" fill="none" xmlns="http://www.w3.org/2000/svg">
  <path d="M19.8951 24.1528L30.1936 12.4541L32.909 14.9279L20.1055 29.4723L11.6362 21.2826L14.1479 18.5955L19.8951 24.1528Z" fill="url(#paint0_linear)"/>
  <path d="M36.8952 42.1328C39.7832 42.1328 42.1328 39.7832 42.1328 36.8952V33.168H48.2801C48.9471 34.1238 50.0545 34.75 51.3086 34.75C53.3471 34.75 55 33.0971 55 31.0586C55 29.0201 53.3471 27.3672 51.3086 27.3672C50.0545 27.3672 48.9471 27.9934 48.2801 28.9492H37.9141V36.8952C37.9141 37.4568 37.4568 37.9141 36.8952 37.9141H6.23759C5.67606 37.9141 5.21875 37.4568 5.21875 36.8952V6.23759C5.21875 5.67606 5.67606 5.21875 6.23759 5.21875H36.8952C37.4568 5.21875 37.9141 5.67606 37.9141 6.23759V23.4648H53.5234V13.7617C54.4199 13.0881 55 12.0161 55 10.8086C55 8.77008 53.3471 7.11719 51.3086 7.11719C49.2701 7.11719 47.6172 8.77008 47.6172 10.8086C47.6172 12.1084 48.2896 13.2504 49.3047 13.908V19.2461H42.1328V6.23759C42.1328 3.34956 39.7832 1 36.8952 1H6.23759C3.34956 1 1 3.34956 1 6.23759V36.8952C1 39.7832 3.34956 42.1328 6.23759 42.1328H20.1953V48.2801C19.2395 48.9471 18.6133 50.0545 18.6133 51.3086C18.6133 53.3471 20.2662 55 22.3047 55C24.3432 55 25.9961 53.3471 25.9961 51.3086C25.9961 50.0545 25.3699 48.9471 24.4141 48.2801V42.1328H30.1094V53.418H48.2801C48.9471 54.3738 50.0545 55 51.3086 55C53.3471 55 55 53.3471 55 51.3086C55 49.2701 53.3471 47.6172 51.3086 47.6172C50.0545 47.6172 48.9471 48.2434 48.2801 49.1992H34.3281V42.1328H36.8952Z" stroke="#2DC47E"/>
  <defs>
    <linearGradient id="paint0_linear" x1="30.6385" y1="7.99696" x2="11.9969" y2="8.21887" gradientUnits="userSpaceOnUse">
      <stop stop-color="#00FFA3"/>
      <stop offset="1" stop-color="#DC1FFF"/>
    </linearGradient>
  </defs>
</svg>
