<svg width="30" height="30" viewBox="0 0 30 30" fill="none" xmlns="http://www.w3.org/2000/svg">
  <path d="M22.6393 10.6373C22.3517 10.4812 22.0277 10.3993 21.6983 10.3993C21.3689 10.3993 21.0449 10.4812 20.7573 10.6373L16.4397 13.0686L13.5061 14.6543L9.18871 17.0857C8.9011 17.2416 8.57717 17.3234 8.24775 17.3234C7.91834 17.3234 7.59441 17.2416 7.3068 17.0857L3.87481 15.1829C3.59558 15.0274 3.36235 14.8047 3.19763 14.5362C3.03291 14.2677 2.94228 13.9625 2.93447 13.6501V9.89732C2.93061 9.58252 3.01637 9.27281 3.1823 9.00234C3.34823 8.73186 3.58788 8.51114 3.87481 8.36451L7.25137 6.51456C7.53898 6.35865 7.86291 6.2768 8.19232 6.2768C8.52173 6.2768 8.84566 6.35865 9.13328 6.51456L12.5098 8.36451C12.7891 8.51997 13.0223 8.7427 13.187 9.0112C13.3517 9.2797 13.4424 9.58489 13.4502 9.89732V12.3287L16.3838 10.6901V8.2588C16.3876 7.944 16.3019 7.63429 16.136 7.36382C15.97 7.09334 15.7304 6.87262 15.4434 6.72599L9.18871 3.23776C8.9011 3.08185 8.57717 3 8.24775 3C7.91834 3 7.59441 3.08185 7.3068 3.23776L0.940463 6.72623C0.653565 6.87284 0.413942 7.09353 0.248016 7.36395C0.0820896 7.63438 -0.00369358 7.94404 0.000125063 8.2588V15.2886C-0.00373938 15.6034 0.0820222 15.9131 0.247951 16.1836C0.413879 16.454 0.653527 16.6748 0.940463 16.8214L7.30606 20.3099C7.59367 20.4658 7.9176 20.5476 8.24701 20.5476C8.57642 20.5476 8.90035 20.4658 9.18797 20.3099L13.5054 17.9314L16.439 16.2928L20.7566 13.9143C21.0442 13.7583 21.3681 13.6764 21.6976 13.6764C22.027 13.6764 22.3509 13.7583 22.6385 13.9143L26.0151 15.7643C26.2943 15.9198 26.5275 16.1425 26.6922 16.411C26.8569 16.6795 26.9476 16.9847 26.9554 17.2971V21.0498C26.9593 21.3646 26.8735 21.6743 26.7076 21.9448C26.5417 22.2153 26.302 22.436 26.0151 22.5826L22.6385 24.4854C22.3509 24.6413 22.027 24.7232 21.6976 24.7232C21.3681 24.7232 21.0442 24.6413 20.7566 24.4854L17.38 22.6355C17.1008 22.48 16.8676 22.2573 16.7029 21.9888C16.5382 21.7203 16.4475 21.4151 16.4397 21.1027V18.6711L13.5061 20.3096V22.741C13.5022 23.0558 13.588 23.3655 13.7539 23.6359C13.9199 23.9064 14.1595 24.1271 14.4464 24.2738L20.812 27.7622C21.0996 27.9181 21.4236 28 21.753 28C22.0824 28 22.4063 27.9181 22.6939 27.7622L29.0595 24.2738C29.3388 24.1183 29.572 23.8956 29.7367 23.6271C29.9014 23.3586 29.992 23.0534 29.9999 22.741V15.7114C30.0037 15.3966 29.918 15.0869 29.7521 14.8164C29.5861 14.546 29.3465 14.3252 29.0595 14.1786L22.6393 10.6373Z" fill="#8247E5"/>
</svg>
