<svg width="30" height="30" viewBox="0 0 30 30" fill="none" xmlns="http://www.w3.org/2000/svg">
  <path d="M4.87537 21.1511C5.05896 20.9656 5.30783 20.8613 5.56734 20.8613H29.5096C29.9457 20.8613 30.1641 21.3948 29.8556 21.7066L25.1246 26.488C24.9411 26.6736 24.6922 26.7778 24.4327 26.7778H0.490448C0.0542563 26.7778 -0.164031 26.2443 0.144467 25.9325L4.87537 21.1511Z" fill="url(#paint0_linear)"/>
  <path d="M4.87537 3.28975C5.05896 3.1042 5.30783 3 5.56734 3H29.5096C29.9457 3 30.1641 3.53346 29.8556 3.84532L25.1246 8.62667C24.9411 8.81216 24.6922 8.9164 24.4327 8.9164H0.490448C0.0542563 8.9164 -0.164031 8.38299 0.144467 8.07115L4.87537 3.28975Z" fill="url(#paint1_linear)"/>
  <path d="M25.1246 12.1628C24.9411 11.9773 24.6922 11.873 24.4327 11.873H0.490448C0.0542563 11.873 -0.164031 12.4066 0.144467 12.7183L4.87537 17.4997C5.05896 17.6853 5.30783 17.7894 5.56734 17.7894H29.5096C29.9457 17.7894 30.1641 17.256 29.8556 16.9442L25.1246 12.1628Z" fill="url(#paint2_linear)"/>
  <defs>
    <linearGradient id="paint0_linear" x1="20.2818" y1="22.7546" x2="16.2942" y2="30.4906" gradientUnits="userSpaceOnUse">
      <stop stop-color="#00FFA3"/>
      <stop offset="1" stop-color="#DC1FFF"/>
    </linearGradient>
    <linearGradient id="paint1_linear" x1="20.2818" y1="5.58894" x2="16.2943" y2="13.3249" gradientUnits="userSpaceOnUse">
      <stop stop-color="#00FFA3"/>
      <stop offset="1" stop-color="#DC1FFF"/>
    </linearGradient>
    <linearGradient id="paint2_linear" x1="20.2818" y1="14.1164" x2="16.2943" y2="21.8523" gradientUnits="userSpaceOnUse">
      <stop stop-color="#00FFA3"/>
      <stop offset="1" stop-color="#DC1FFF"/>
    </linearGradient>
  </defs>
</svg>
