<svg width="30" height="30" viewBox="0 0 30 30" fill="none" xmlns="http://www.w3.org/2000/svg">
  <path fill-rule="evenodd" clip-rule="evenodd" d="M27.2502 21.9996L27.2497 8.01505L15.1274 1.01562L15.1279 15.0057L3.00879 22.002L15.1317 29.0005L27.2429 22.0088L27.2502 22.013V22.0045L27.2545 22.002L27.2502 21.9996Z" fill="#64C557"/>
  <path d="M3.01126 8.01504L15.1336 1.01562L15.1331 15.0136L3.01074 22.0131L3.01126 8.01504Z" fill="#118AB2"/>
  <path d="M15.1352 1L27.2581 7.99854L23.2172 10.3314L11.0942 3.33285L15.1352 1Z" fill="#00F8B7"/>
  <path d="M23.2073 10.3256L23.2075 14.9916L11.0851 7.99217L11.085 3.32617L23.2073 10.3256Z" fill="#09BD8E"/>
  <path d="M11.0781 8L23.201 14.9985L19.16 17.3314L7.03711 10.3328L11.0781 8Z" fill="#FFE3A3"/>
  <path d="M19.2078 17.355L19.2079 22.021L7.0856 15.0215L7.08545 10.3555L19.2078 17.355Z" fill="#FFBB1D"/>
  <path d="M7.04927 15L19.1721 21.9985L15.1312 24.3314L3.0083 17.3328L7.04927 15Z" fill="#FF965E"/>
  <path d="M15.1223 24.3286L15.1225 28.9946L3.00018 21.9951L3 17.3291L15.1223 24.3286Z" fill="#D94C00"/>
  <path d="M23.2139 10.3283L27.2546 7.99512L27.2541 21.9932L23.2134 24.3263L23.2139 10.3283Z" fill="#06D6A0"/>
  <path d="M19.1639 17.3283L23.2047 14.9951L23.2043 24.3271L19.1636 26.6602L19.1639 17.3283Z" fill="#FFD166"/>
  <path d="M15.1135 24.3263L19.1543 21.9932L19.1541 26.6592L15.1133 28.9923L15.1135 24.3263Z" fill="#F3722C"/>
</svg>
