<?xml version="1.0" standalone="no"?>
<!DOCTYPE svg PUBLIC "-//W3C//DTD SVG 20010904//EN"
 "http://www.w3.org/TR/2001/REC-SVG-20010904/DTD/svg10.dtd">
<svg version="1.0" xmlns="http://www.w3.org/2000/svg"
 width="700.000000pt" height="700.000000pt" viewBox="0 0 700.000000 700.000000"
 preserveAspectRatio="xMidYMid meet">
<metadata>
Created by potrace 1.14, written by Peter Selinger 2001-2017
</metadata>
<g transform="translate(0.000000,700.000000) scale(0.100000,-0.100000)"
fill="#000000" stroke="none">
<path d="M3293 5675 c-15 -40 57 -280 129 -432 121 -254 327 -545 522 -738
122 -122 152 -146 262 -221 269 -183 607 -294 968 -320 45 -4 82 -8 84 -9 3
-3 -30 -35 -88 -85 -64 -56 -240 -128 -350 -145 -224 -34 -431 -26 -675 25
-127 27 -294 84 -602 206 -411 162 -535 203 -783 255 -228 47 -477 61 -640 34
-116 -19 -278 -89 -351 -152 -150 -127 -232 -259 -338 -543 -68 -180 -77 -199
-128 -249 -33 -32 -37 -33 -85 -27 -58 8 -106 30 -193 89 -78 53 -132 69 -182
55 -127 -35 -219 -117 -350 -310 -81 -121 -147 -227 -217 -348 -75 -132 -202
-410 -230 -507 -50 -169 -56 -325 -16 -409 42 -87 156 -177 240 -190 164 -26
314 30 450 166 41 41 82 89 90 105 8 17 17 32 21 35 17 16 85 210 73 210 -2 0
1 11 6 24 12 32 29 161 36 266 7 116 18 146 53 153 43 9 82 -1 198 -49 257
-107 408 -166 463 -179 3 -1 46 -11 95 -22 182 -44 308 -47 472 -14 166 34
295 85 496 195 85 46 90 48 150 42 151 -13 215 -40 312 -133 110 -105 200
-175 265 -209 30 -16 92 -52 137 -82 299 -193 661 -282 1153 -284 118 0 373
10 450 17 102 10 247 6 289 -9 72 -26 193 -91 359 -193 404 -247 484 -291 627
-344 76 -27 104 -33 180 -33 80 -1 94 2 125 24 48 34 54 40 88 96 58 95 72
196 40 294 -18 56 -85 147 -160 219 -38 36 -113 118 -166 181 -129 154 -272
302 -475 490 -57 54 -57 54 -52 102 7 78 23 123 65 186 50 74 123 140 212 192
71 41 187 84 251 94 89 14 215 82 284 155 101 106 136 191 139 345 6 361 -194
620 -581 754 -33 11 -168 53 -300 92 -132 39 -276 82 -320 95 -44 14 -269 81
-500 150 -797 239 -1062 326 -1225 406 -85 41 -235 140 -436 287 -189 138
-304 212 -329 212 -3 0 -8 -7 -12 -15z"/>
</g>
</svg>
