<svg width="439" height="526" viewBox="0 0 439 526" fill="none" xmlns="http://www.w3.org/2000/svg">
  <path d="M26.4579 255H30.6579L17.9379 227H13.9779L1.29789 255H5.41789L8.49789 248H23.3779L26.4579 255ZM9.89789 244.8L15.9379 231.08L21.9779 244.8H9.89789ZM34.2748 255H38.1148V225.32H34.2748V255ZM49.1266 237.36V233.8H45.4466V255H49.2866V244.44C49.2866 239.8 51.8466 237.28 55.9666 237.28C56.2466 237.28 56.5266 237.28 56.8466 237.32V233.6C53.1266 233.6 50.4866 234.88 49.1266 237.36ZM80.5441 244.52C80.5441 238 76.1841 233.6 70.0641 233.6C63.9441 233.6 59.4241 238.12 59.4241 244.4C59.4241 250.72 63.9841 255.24 70.8241 255.24C74.3441 255.24 77.2641 254.04 79.1841 251.8L77.0641 249.32C75.5041 251.04 73.4241 251.88 70.9441 251.88C66.7441 251.88 63.7441 249.4 63.2641 245.68H80.4641C80.5041 245.32 80.5441 244.84 80.5441 244.52ZM70.0641 236.84C73.7841 236.84 76.4641 239.36 76.8641 242.92H63.2641C63.6641 239.32 66.3841 236.84 70.0641 236.84ZM93.0104 233.6C89.6104 233.6 86.4504 234.56 84.2504 236.32L85.8504 239.2C87.4904 237.8 90.0504 236.92 92.5704 236.92C96.3704 236.92 98.2504 238.8 98.2504 242.04V242.8H92.1704C85.8504 242.8 83.6504 245.6 83.6504 249C83.6504 252.68 86.6904 255.24 91.4904 255.24C94.8104 255.24 97.1704 254.12 98.4504 252.2V255H102.09V242.2C102.09 236.4 98.8104 233.6 93.0104 233.6ZM92.1304 252.28C89.2104 252.28 87.4504 250.96 87.4504 248.84C87.4504 247.04 88.5304 245.56 92.3304 245.56H98.2504V248.52C97.2904 250.96 95.0104 252.28 92.1304 252.28ZM125.474 225.32V237C123.714 234.72 121.074 233.6 118.074 233.6C111.874 233.6 107.354 237.92 107.354 244.4C107.354 250.88 111.874 255.24 118.074 255.24C121.194 255.24 123.914 254.04 125.634 251.64V255H129.314V225.32H125.474ZM118.394 251.88C114.314 251.88 111.234 248.92 111.234 244.4C111.234 239.88 114.314 236.96 118.394 236.96C122.434 236.96 125.514 239.88 125.514 244.4C125.514 248.92 122.434 251.88 118.394 251.88ZM151.579 233.8L144.259 250.76L136.859 233.8H132.859L142.219 254.96L141.539 256.44C140.499 258.88 139.339 259.72 137.499 259.72C136.059 259.72 134.739 259.16 133.699 258.16L132.059 261.04C133.379 262.32 135.459 263 137.499 263C140.739 263 143.179 261.6 145.059 257.12L155.339 233.8H151.579Z" fill="#001A34"/>
  <path d="M171.965 255.495C170.499 255.495 169.765 254.597 169.765 252.8C169.765 252.03 169.875 251.132 170.095 250.105L172.35 238.665C172.46 238.115 172.515 237.638 172.515 237.235C172.515 236.135 172.167 235.585 171.47 235.585C171.067 235.585 170.554 235.805 169.93 236.245C169.307 236.648 168.629 237.235 167.895 238.005C167.859 238.042 167.804 238.06 167.73 238.06C167.62 238.06 167.51 238.005 167.4 237.895C167.327 237.748 167.345 237.638 167.455 237.565C169.875 234.705 172.02 233.275 173.89 233.275C174.624 233.275 175.155 233.495 175.485 233.935C175.852 234.338 176.035 234.98 176.035 235.86C176.035 236.703 175.944 237.547 175.76 238.39L173.505 250.105C173.395 250.655 173.34 251.132 173.34 251.535C173.34 252.598 173.67 253.13 174.33 253.13C175.174 253.13 176.329 252.36 177.795 250.82C177.832 250.783 177.887 250.765 177.96 250.765C178.107 250.765 178.217 250.838 178.29 250.985C178.364 251.095 178.345 251.187 178.235 251.26C177.025 252.69 175.907 253.753 174.88 254.45C173.89 255.147 172.919 255.495 171.965 255.495ZM175.485 227.005C174.679 227.005 174.037 226.785 173.56 226.345C173.12 225.868 172.9 225.227 172.9 224.42C172.9 223.65 173.12 223.045 173.56 222.605C174.037 222.165 174.679 221.945 175.485 221.945C176.292 221.945 176.915 222.165 177.355 222.605C177.832 223.045 178.07 223.65 178.07 224.42C178.07 225.227 177.85 225.868 177.41 226.345C176.97 226.785 176.329 227.005 175.485 227.005ZM203.979 250.765C204.053 250.692 204.108 250.655 204.144 250.655C204.254 250.655 204.346 250.728 204.419 250.875C204.493 250.985 204.493 251.095 204.419 251.205C203.173 252.672 202.054 253.753 201.064 254.45C200.074 255.147 199.103 255.495 198.149 255.495C197.416 255.495 196.884 255.293 196.554 254.89C196.224 254.45 196.059 253.753 196.059 252.8C196.059 252.177 196.151 251.278 196.334 250.105L197.929 241.36C198.149 240.26 198.259 239.307 198.259 238.5C198.259 236.52 197.544 235.53 196.114 235.53C194.941 235.53 193.731 236.282 192.484 237.785C191.238 239.288 190.064 241.47 188.964 244.33C187.864 247.19 186.966 250.582 186.269 254.505C186.196 254.798 185.976 255.018 185.609 255.165C185.243 255.348 184.748 255.44 184.124 255.44C183.134 255.44 182.639 255.312 182.639 255.055L182.859 253.955C183.189 252.378 183.391 251.37 183.464 250.93L185.719 238.665C185.829 238.115 185.884 237.657 185.884 237.29C185.884 236.153 185.536 235.585 184.839 235.585C183.959 235.585 182.749 236.392 181.209 238.005C181.173 238.042 181.118 238.06 181.044 238.06C180.934 238.06 180.843 238.005 180.769 237.895C180.696 237.748 180.696 237.638 180.769 237.565C182.016 236.098 183.171 235.017 184.234 234.32C185.298 233.623 186.324 233.275 187.314 233.275C188.048 233.275 188.579 233.495 188.909 233.935C189.239 234.338 189.404 234.998 189.404 235.915C189.404 236.465 189.313 237.29 189.129 238.39L188.029 244.44C189.349 240.847 190.889 238.06 192.649 236.08C194.409 234.063 196.261 233.055 198.204 233.055C199.414 233.055 200.313 233.403 200.899 234.1C201.523 234.797 201.834 235.86 201.834 237.29C201.834 238.133 201.724 239.142 201.504 240.315L199.689 250.105C199.579 250.655 199.524 251.113 199.524 251.48C199.524 252.58 199.873 253.13 200.569 253.13C200.936 253.13 201.394 252.928 201.944 252.525C202.494 252.122 203.173 251.535 203.979 250.765ZM233.907 233.385C235.704 233.385 237.061 233.88 237.977 234.87C238.931 235.823 239.407 237.235 239.407 239.105C239.407 239.692 239.352 240.352 239.242 241.085C238.912 243.542 238.069 245.852 236.712 248.015C235.392 250.142 233.797 251.847 231.927 253.13C230.057 254.413 228.151 255.055 226.207 255.055C225.071 255.055 224.117 255 223.347 254.89L221.587 264.79C221.477 265.413 221.422 265.927 221.422 266.33C221.422 266.953 221.569 267.393 221.862 267.65C222.156 267.943 222.614 268.09 223.237 268.09C223.457 268.09 223.897 268.053 224.557 267.98C224.704 267.943 224.796 268.017 224.832 268.2C224.906 268.42 224.869 268.548 224.722 268.585L214.932 270.125C214.786 270.162 214.694 270.07 214.657 269.85C214.621 269.63 214.676 269.502 214.822 269.465C215.629 269.318 216.216 269.117 216.582 268.86C216.949 268.64 217.224 268.273 217.407 267.76C217.591 267.247 217.792 266.385 218.012 265.175L222.687 238.995C222.467 239.142 221.624 239.765 220.157 240.865L220.047 240.92C219.901 240.92 219.791 240.847 219.717 240.7C219.644 240.517 219.662 240.388 219.772 240.315C220.762 239.435 221.807 238.61 222.907 237.84L223.622 233.77C223.622 233.697 223.934 233.44 224.557 233C225.181 232.523 225.731 232.01 226.207 231.46C226.721 230.91 227.051 230.305 227.197 229.645C227.234 229.498 227.344 229.443 227.527 229.48C227.747 229.517 227.839 229.608 227.802 229.755L226.812 235.42C229.342 234.063 231.707 233.385 233.907 233.385ZM235.557 242.9C235.631 242.02 235.667 241.378 235.667 240.975C235.667 237.382 234.146 235.585 231.102 235.585C229.672 235.585 228.169 235.952 226.592 236.685L223.732 252.58C225.089 253.167 226.482 253.46 227.912 253.46C230.076 253.46 231.781 252.507 233.027 250.6C234.311 248.693 235.154 246.127 235.557 242.9ZM256.636 233.275C257.406 233.275 258.14 233.55 258.836 234.1C259.533 234.65 259.881 235.292 259.881 236.025C259.881 236.575 259.68 237.07 259.276 237.51C258.91 237.913 258.433 238.115 257.846 238.115C257.443 238.115 257.113 238.042 256.856 237.895C256.6 237.712 256.325 237.455 256.031 237.125C255.848 236.942 255.646 236.777 255.426 236.63C255.243 236.447 255.023 236.355 254.766 236.355C254.033 236.355 253.135 237.4 252.071 239.49C251.045 241.543 250.055 244.018 249.101 246.915C248.185 249.775 247.506 252.305 247.066 254.505C246.993 254.798 246.773 255.018 246.406 255.165C246.04 255.348 245.545 255.44 244.921 255.44C243.968 255.44 243.491 255.312 243.491 255.055C243.528 254.835 243.638 254.267 243.821 253.35C244.041 252.433 244.206 251.627 244.316 250.93L246.296 240.095C246.443 239.252 246.516 238.482 246.516 237.785C246.516 236.318 246.113 235.585 245.306 235.585C244.536 235.585 243.455 236.282 242.061 237.675C242.025 237.712 241.97 237.73 241.896 237.73C241.786 237.73 241.695 237.675 241.621 237.565C241.548 237.418 241.548 237.308 241.621 237.235C242.795 235.878 243.876 234.888 244.866 234.265C245.856 233.605 246.828 233.275 247.781 233.275C248.551 233.275 249.12 233.513 249.486 233.99C249.853 234.467 250.036 235.273 250.036 236.41C250.036 237.29 249.926 238.427 249.706 239.82L248.551 246.255C249.725 242.478 251.008 239.38 252.401 236.96C253.831 234.503 255.243 233.275 256.636 233.275ZM267.094 255.77C264.821 255.77 263.061 255 261.814 253.46C260.604 251.883 259.999 249.848 259.999 247.355C259.999 246.548 260.091 245.558 260.274 244.385C260.678 242.222 261.448 240.278 262.584 238.555C263.758 236.832 265.169 235.493 266.819 234.54C268.469 233.55 270.211 233.055 272.044 233.055C274.391 233.055 276.188 233.825 277.434 235.365C278.718 236.868 279.359 238.867 279.359 241.36C279.359 242.313 279.249 243.322 279.029 244.385C278.553 246.695 277.691 248.712 276.444 250.435C275.234 252.158 273.804 253.478 272.154 254.395C270.504 255.312 268.818 255.77 267.094 255.77ZM269.019 254.395C270.449 254.395 271.714 253.717 272.814 252.36C273.951 251.003 274.739 249.152 275.179 246.805C275.399 245.632 275.509 244.477 275.509 243.34C275.509 240.847 275.051 238.738 274.134 237.015C273.254 235.255 271.989 234.375 270.339 234.375C268.946 234.375 267.681 235.053 266.544 236.41C265.408 237.767 264.619 239.637 264.179 242.02C263.923 243.413 263.794 244.642 263.794 245.705C263.794 248.162 264.253 250.233 265.169 251.92C266.123 253.57 267.406 254.395 269.019 254.395ZM299.675 250.105C299.565 250.655 299.51 251.132 299.51 251.535C299.51 252.598 299.84 253.13 300.5 253.13C300.866 253.13 301.325 252.928 301.875 252.525C302.425 252.122 303.103 251.535 303.91 250.765C303.983 250.692 304.056 250.655 304.13 250.655C304.24 250.655 304.331 250.728 304.405 250.875C304.478 250.985 304.46 251.095 304.35 251.205C303.066 252.672 301.948 253.753 300.995 254.45C300.041 255.147 299.088 255.495 298.135 255.495C297.401 255.495 296.851 255.293 296.485 254.89C296.155 254.45 295.99 253.772 295.99 252.855C295.99 252.122 296.1 251.205 296.32 250.105L297.255 245.21C295.641 248.473 293.918 251.04 292.085 252.91C290.251 254.78 288.381 255.715 286.475 255.715C285.155 255.715 284.055 255.293 283.175 254.45C282.295 253.57 281.855 252.213 281.855 250.38C281.855 249.573 281.928 248.803 282.075 248.07C282.551 245.467 283.56 243.01 285.1 240.7C286.64 238.39 288.473 236.538 290.6 235.145C292.726 233.752 294.816 233.055 296.87 233.055C297.86 233.055 298.703 233.257 299.4 233.66L301.655 221.45C301.728 221.12 301.765 220.698 301.765 220.185C301.765 219.158 301.38 218.645 300.61 218.645C300.06 218.645 299.198 218.92 298.025 219.47H297.97C297.823 219.47 297.713 219.378 297.64 219.195C297.603 218.975 297.658 218.847 297.805 218.81L305.395 215.125H305.505C305.651 215.125 305.78 215.18 305.89 215.29C306 215.4 306.036 215.492 306 215.565L299.675 250.105ZM288.565 252.69C290.141 252.69 291.681 251.847 293.185 250.16C294.688 248.437 295.916 246.457 296.87 244.22C297.823 241.947 298.3 240.168 298.3 238.885C298.3 237.712 297.97 236.813 297.31 236.19C296.65 235.567 295.77 235.255 294.67 235.255C292.433 235.255 290.508 236.153 288.895 237.95C287.281 239.71 286.2 242.258 285.65 245.595C285.503 246.438 285.43 247.282 285.43 248.125C285.43 249.628 285.705 250.765 286.255 251.535C286.805 252.305 287.575 252.69 288.565 252.69ZM329.335 250.765C329.372 250.728 329.427 250.71 329.5 250.71C329.61 250.71 329.702 250.783 329.775 250.93C329.849 251.04 329.849 251.132 329.775 251.205C328.492 252.708 327.337 253.808 326.31 254.505C325.284 255.165 324.275 255.495 323.285 255.495C322.552 255.495 322.02 255.293 321.69 254.89C321.36 254.487 321.195 253.827 321.195 252.91C321.195 252.323 321.287 251.48 321.47 250.38L322.57 244.11C321.25 247.777 319.692 250.637 317.895 252.69C316.135 254.707 314.284 255.715 312.34 255.715C309.884 255.715 308.655 254.322 308.655 251.535C308.655 250.838 308.784 249.812 309.04 248.455L311.02 238.665C311.13 238.115 311.185 237.657 311.185 237.29C311.185 236.19 310.837 235.64 310.14 235.64C309.774 235.64 309.315 235.842 308.765 236.245C308.252 236.648 307.592 237.235 306.785 238.005C306.712 238.078 306.639 238.115 306.565 238.115C306.455 238.115 306.364 238.06 306.29 237.95C306.217 237.803 306.235 237.675 306.345 237.565C307.629 236.098 308.747 235.017 309.7 234.32C310.654 233.623 311.607 233.275 312.56 233.275C313.99 233.275 314.705 234.173 314.705 235.97C314.705 236.667 314.595 237.565 314.375 238.665L312.615 247.41C312.395 248.51 312.285 249.445 312.285 250.215C312.285 252.232 313.019 253.24 314.485 253.24C315.659 253.24 316.869 252.488 318.115 250.985C319.362 249.482 320.517 247.3 321.58 244.44C322.68 241.58 323.579 238.188 324.275 234.265C324.349 233.972 324.569 233.752 324.935 233.605C325.302 233.422 325.815 233.33 326.475 233.33C327.429 233.33 327.905 233.458 327.905 233.715L327.685 234.815C327.355 236.392 327.154 237.4 327.08 237.84L324.825 250.105C324.752 250.435 324.715 250.893 324.715 251.48C324.715 252.617 325.045 253.185 325.705 253.185C326.145 253.185 326.677 252.983 327.3 252.58C327.924 252.14 328.602 251.535 329.335 250.765ZM339.608 255.715C337.188 255.715 335.373 254.89 334.163 253.24C332.99 251.59 332.403 249.537 332.403 247.08C332.403 245.98 332.513 244.917 332.733 243.89C333.136 241.727 333.961 239.82 335.208 238.17C336.491 236.52 337.976 235.255 339.663 234.375C341.35 233.495 343.018 233.055 344.668 233.055C345.988 233.055 347.125 233.348 348.078 233.935C349.068 234.485 349.563 235.237 349.563 236.19C349.563 236.813 349.38 237.345 349.013 237.785C348.646 238.225 348.115 238.445 347.418 238.445C346.281 238.445 345.548 237.785 345.218 236.465C344.815 235.072 343.935 234.375 342.578 234.375C341.038 234.375 339.773 235.09 338.783 236.52C337.793 237.913 337.096 239.783 336.693 242.13C336.436 243.597 336.308 244.807 336.308 245.76C336.308 248.107 336.803 249.995 337.793 251.425C338.783 252.855 340.268 253.57 342.248 253.57C344.045 253.57 345.878 252.818 347.748 251.315L347.858 251.26C347.968 251.26 348.06 251.333 348.133 251.48C348.243 251.627 348.261 251.737 348.188 251.81C345.365 254.413 342.505 255.715 339.608 255.715ZM366.157 233.88C366.303 233.88 366.413 233.935 366.487 234.045C366.56 234.155 366.578 234.283 366.542 234.43C366.432 234.797 366.193 235.2 365.827 235.64C365.46 236.08 365.093 236.3 364.727 236.3C364.543 236.3 363.847 236.208 362.637 236.025C361.463 235.842 360.253 235.732 359.007 235.695L356.587 249.17C356.477 249.72 356.422 250.215 356.422 250.655C356.422 251.572 356.642 252.25 357.082 252.69C357.522 253.093 358.218 253.295 359.172 253.295C360.052 253.295 360.877 253.112 361.647 252.745C362.453 252.342 363.333 251.755 364.287 250.985H364.342C364.452 250.985 364.562 251.04 364.672 251.15C364.782 251.26 364.8 251.352 364.727 251.425C363.077 252.928 361.61 254.01 360.327 254.67C359.08 255.33 357.87 255.66 356.697 255.66C355.523 255.66 354.57 255.385 353.837 254.835C353.103 254.248 352.737 253.277 352.737 251.92C352.737 251.7 352.773 251.26 352.847 250.6L355.157 238.17C355.303 237.547 355.377 236.978 355.377 236.465C355.377 235.952 355.23 235.622 354.937 235.475C354.643 235.292 354.093 235.2 353.287 235.2C353.177 235.2 353.122 235.108 353.122 234.925C353.122 234.815 353.14 234.705 353.177 234.595C353.25 234.485 353.305 234.43 353.342 234.43C354.698 234.43 355.872 234.027 356.862 233.22C357.888 232.377 358.622 231.313 359.062 230.03C359.062 229.92 359.19 229.865 359.447 229.865C359.593 229.865 359.722 229.902 359.832 229.975C359.978 230.012 360.033 230.048 359.997 230.085L359.227 234.32C360.107 234.283 360.95 234.247 361.757 234.21C362.563 234.137 363.297 234.082 363.957 234.045C365.02 233.935 365.753 233.88 366.157 233.88ZM372.2 255.495C370.733 255.495 370 254.597 370 252.8C370 252.03 370.11 251.132 370.33 250.105L372.585 238.665C372.695 238.115 372.75 237.638 372.75 237.235C372.75 236.135 372.401 235.585 371.705 235.585C371.301 235.585 370.788 235.805 370.165 236.245C369.541 236.648 368.863 237.235 368.13 238.005C368.093 238.042 368.038 238.06 367.965 238.06C367.855 238.06 367.745 238.005 367.635 237.895C367.561 237.748 367.58 237.638 367.69 237.565C370.11 234.705 372.255 233.275 374.125 233.275C374.858 233.275 375.39 233.495 375.72 233.935C376.086 234.338 376.27 234.98 376.27 235.86C376.27 236.703 376.178 237.547 375.995 238.39L373.74 250.105C373.63 250.655 373.575 251.132 373.575 251.535C373.575 252.598 373.905 253.13 374.565 253.13C375.408 253.13 376.563 252.36 378.03 250.82C378.066 250.783 378.121 250.765 378.195 250.765C378.341 250.765 378.451 250.838 378.525 250.985C378.598 251.095 378.58 251.187 378.47 251.26C377.26 252.69 376.141 253.753 375.115 254.45C374.125 255.147 373.153 255.495 372.2 255.495ZM375.72 227.005C374.913 227.005 374.271 226.785 373.795 226.345C373.355 225.868 373.135 225.227 373.135 224.42C373.135 223.65 373.355 223.045 373.795 222.605C374.271 222.165 374.913 221.945 375.72 221.945C376.526 221.945 377.15 222.165 377.59 222.605C378.066 223.045 378.305 223.65 378.305 224.42C378.305 225.227 378.085 225.868 377.645 226.345C377.205 226.785 376.563 227.005 375.72 227.005ZM388.374 255.77C386.1 255.77 384.34 255 383.094 253.46C381.884 251.883 381.279 249.848 381.279 247.355C381.279 246.548 381.37 245.558 381.554 244.385C381.957 242.222 382.727 240.278 383.864 238.555C385.037 236.832 386.449 235.493 388.099 234.54C389.749 233.55 391.49 233.055 393.324 233.055C395.67 233.055 397.467 233.825 398.714 235.365C399.997 236.868 400.639 238.867 400.639 241.36C400.639 242.313 400.529 243.322 400.309 244.385C399.832 246.695 398.97 248.712 397.724 250.435C396.514 252.158 395.084 253.478 393.434 254.395C391.784 255.312 390.097 255.77 388.374 255.77ZM390.299 254.395C391.729 254.395 392.994 253.717 394.094 252.36C395.23 251.003 396.019 249.152 396.459 246.805C396.679 245.632 396.789 244.477 396.789 243.34C396.789 240.847 396.33 238.738 395.414 237.015C394.534 235.255 393.269 234.375 391.619 234.375C390.225 234.375 388.96 235.053 387.824 236.41C386.687 237.767 385.899 239.637 385.459 242.02C385.202 243.413 385.074 244.642 385.074 245.705C385.074 248.162 385.532 250.233 386.449 251.92C387.402 253.57 388.685 254.395 390.299 254.395ZM426.289 250.765C426.362 250.692 426.417 250.655 426.454 250.655C426.564 250.655 426.655 250.728 426.729 250.875C426.802 250.985 426.802 251.095 426.729 251.205C425.482 252.672 424.364 253.753 423.374 254.45C422.384 255.147 421.412 255.495 420.459 255.495C419.725 255.495 419.194 255.293 418.864 254.89C418.534 254.45 418.369 253.753 418.369 252.8C418.369 252.177 418.46 251.278 418.644 250.105L420.239 241.36C420.459 240.26 420.569 239.307 420.569 238.5C420.569 236.52 419.854 235.53 418.424 235.53C417.25 235.53 416.04 236.282 414.794 237.785C413.547 239.288 412.374 241.47 411.274 244.33C410.174 247.19 409.275 250.582 408.579 254.505C408.505 254.798 408.285 255.018 407.919 255.165C407.552 255.348 407.057 255.44 406.434 255.44C405.444 255.44 404.949 255.312 404.949 255.055L405.169 253.955C405.499 252.378 405.7 251.37 405.774 250.93L408.029 238.665C408.139 238.115 408.194 237.657 408.194 237.29C408.194 236.153 407.845 235.585 407.149 235.585C406.269 235.585 405.059 236.392 403.519 238.005C403.482 238.042 403.427 238.06 403.354 238.06C403.244 238.06 403.152 238.005 403.079 237.895C403.005 237.748 403.005 237.638 403.079 237.565C404.325 236.098 405.48 235.017 406.544 234.32C407.607 233.623 408.634 233.275 409.624 233.275C410.357 233.275 410.889 233.495 411.219 233.935C411.549 234.338 411.714 234.998 411.714 235.915C411.714 236.465 411.622 237.29 411.439 238.39L410.339 244.44C411.659 240.847 413.199 238.06 414.959 236.08C416.719 234.063 418.57 233.055 420.514 233.055C421.724 233.055 422.622 233.403 423.209 234.1C423.832 234.797 424.144 235.86 424.144 237.29C424.144 238.133 424.034 239.142 423.814 240.315L421.999 250.105C421.889 250.655 421.834 251.113 421.834 251.48C421.834 252.58 422.182 253.13 422.879 253.13C423.245 253.13 423.704 252.928 424.254 252.525C424.804 252.122 425.482 251.535 426.289 250.765ZM431.556 255.55C430.75 255.55 430.108 255.312 429.631 254.835C429.191 254.358 428.971 253.717 428.971 252.91C428.971 252.177 429.191 251.59 429.631 251.15C430.108 250.71 430.75 250.49 431.556 250.49C432.363 250.49 432.986 250.71 433.426 251.15C433.866 251.553 434.086 252.14 434.086 252.91C434.086 253.753 433.866 254.413 433.426 254.89C432.986 255.33 432.363 255.55 431.556 255.55ZM433.591 240.095C432.785 240.095 432.143 239.857 431.666 239.38C431.226 238.903 431.006 238.262 431.006 237.455C431.006 236.722 431.226 236.135 431.666 235.695C432.143 235.255 432.785 235.035 433.591 235.035C434.398 235.035 435.021 235.255 435.461 235.695C435.901 236.098 436.121 236.685 436.121 237.455C436.121 238.298 435.901 238.958 435.461 239.435C435.021 239.875 434.398 240.095 433.591 240.095Z" fill="#FF0097"/>
  <path d="M143.794 99.592V93.872H151.758V92.486H143.794V87.008H152.726V85.6H142.166V101H153.056V99.592H143.794ZM167.822 85.6L161.882 98.976L155.986 85.6H154.226L161.046 101H162.652L169.472 85.6H167.822ZM186.359 85.6L179.737 97.018L173.049 85.6H171.707V101H173.269V88.746L179.319 99.042H180.089L186.139 88.68V101H187.701V85.6H186.359ZM251.925 99.592V93.872H259.889V92.486H251.925V87.008H260.857V85.6H250.297V101H261.187V99.592H251.925ZM275.953 85.6L270.013 98.976L264.117 85.6H262.357L269.177 101H270.783L277.603 85.6H275.953ZM294.49 85.6L287.868 97.018L281.18 85.6H279.838V101H281.4V88.746L287.45 99.042H288.22L294.27 88.68V101H295.832V85.6H294.49ZM117.787 132.592V126.872H125.751V125.486H117.787V120.008H126.719V118.6H116.159V134H127.049V132.592H117.787ZM141.815 118.6L135.875 131.976L129.979 118.6H128.219L135.039 134H136.645L143.465 118.6H141.815ZM160.352 118.6L153.73 130.018L147.042 118.6H145.7V134H147.262V121.746L153.312 132.042H154.082L160.132 121.68V134H161.694V118.6H160.352ZM229.856 122.34C227.854 122.34 226.292 123.154 225.456 124.562V122.428H223.96V134H225.522V127.928C225.522 125.288 227.084 123.748 229.57 123.748C231.77 123.748 233.046 125.002 233.046 127.444V134H234.608V127.29C234.608 123.968 232.672 122.34 229.856 122.34ZM243.622 134.11C247.01 134.11 249.496 131.646 249.496 128.214C249.496 124.782 247.01 122.34 243.622 122.34C240.234 122.34 237.726 124.782 237.726 128.214C237.726 131.646 240.234 134.11 243.622 134.11ZM243.622 132.724C241.158 132.724 239.31 130.92 239.31 128.214C239.31 125.508 241.158 123.704 243.622 123.704C246.086 123.704 247.912 125.508 247.912 128.214C247.912 130.92 246.086 132.724 243.622 132.724ZM258.581 122.34C256.579 122.34 255.017 123.154 254.181 124.562V122.428H252.685V134H254.247V127.928C254.247 125.288 255.809 123.748 258.295 123.748C260.495 123.748 261.771 125.002 261.771 127.444V134H263.333V127.29C263.333 123.968 261.397 122.34 258.581 122.34ZM266.716 128.72H272.48V127.356H266.716V128.72ZM277.932 132.592V126.872H285.896V125.486H277.932V120.008H286.864V118.6H276.304V134H287.194V132.592H277.932ZM301.96 118.6L296.02 131.976L290.124 118.6H288.364L295.184 134H296.79L303.61 118.6H301.96ZM320.497 118.6L313.875 130.018L307.187 118.6H305.845V134H307.407V121.746L313.457 132.042H314.227L320.277 121.68V134H321.839V118.6H320.497ZM92.8396 155.34C90.8376 155.34 89.2756 156.154 88.4396 157.562V155.428H86.9436V167H88.5056V160.928C88.5056 158.288 90.0676 156.748 92.5536 156.748C94.7536 156.748 96.0296 158.002 96.0296 160.444V167H97.5916V160.29C97.5916 156.968 95.6556 155.34 92.8396 155.34ZM106.605 167.11C109.993 167.11 112.479 164.646 112.479 161.214C112.479 157.782 109.993 155.34 106.605 155.34C103.217 155.34 100.709 157.782 100.709 161.214C100.709 164.646 103.217 167.11 106.605 167.11ZM106.605 165.724C104.141 165.724 102.293 163.92 102.293 161.214C102.293 158.508 104.141 156.704 106.605 156.704C109.069 156.704 110.895 158.508 110.895 161.214C110.895 163.92 109.069 165.724 106.605 165.724ZM121.564 155.34C119.562 155.34 118 156.154 117.164 157.562V155.428H115.668V167H117.23V160.928C117.23 158.288 118.792 156.748 121.278 156.748C123.478 156.748 124.754 158.002 124.754 160.444V167H126.316V160.29C126.316 156.968 124.38 155.34 121.564 155.34ZM129.699 161.72H135.463V160.356H129.699V161.72ZM140.915 165.592V159.872H148.879V158.486H140.915V153.008H149.847V151.6H139.287V167H150.177V165.592H140.915ZM164.943 151.6L159.003 164.976L153.107 151.6H151.347L158.167 167H159.773L166.593 151.6H164.943ZM183.48 151.6L176.858 163.018L170.17 151.6H168.828V167H170.39V154.746L176.44 165.042H177.21L183.26 154.68V167H184.822V151.6H183.48ZM252.984 155.34C250.982 155.34 249.42 156.154 248.584 157.562V155.428H247.088V167H248.65V160.928C248.65 158.288 250.212 156.748 252.698 156.748C254.898 156.748 256.174 158.002 256.174 160.444V167H257.736V160.29C257.736 156.968 255.8 155.34 252.984 155.34ZM266.75 167.11C270.138 167.11 272.624 164.646 272.624 161.214C272.624 157.782 270.138 155.34 266.75 155.34C263.362 155.34 260.854 157.782 260.854 161.214C260.854 164.646 263.362 167.11 266.75 167.11ZM266.75 165.724C264.286 165.724 262.438 163.92 262.438 161.214C262.438 158.508 264.286 156.704 266.75 156.704C269.214 156.704 271.04 158.508 271.04 161.214C271.04 163.92 269.214 165.724 266.75 165.724ZM281.709 155.34C279.707 155.34 278.145 156.154 277.309 157.562V155.428H275.813V167H277.375V160.928C277.375 158.288 278.937 156.748 281.423 156.748C283.623 156.748 284.899 158.002 284.899 160.444V167H286.461V160.29C286.461 156.968 284.525 155.34 281.709 155.34ZM289.843 161.72H295.607V160.356H289.843V161.72ZM301.06 165.592V159.872H309.024V158.486H301.06V153.008H309.992V151.6H299.432V167H310.322V165.592H301.06ZM325.088 151.6L319.148 164.976L313.252 151.6H311.492L318.312 167H319.918L326.738 151.6H325.088ZM343.625 151.6L337.003 163.018L330.315 151.6H328.973V167H330.535V154.746L336.585 165.042H337.355L343.405 154.68V167H344.967V151.6H343.625Z" fill="#001A34"/>
  <path d="M241 93L236 90.1132V95.8868L241 93ZM199.333 93.5H236.5V92.5H199.333V93.5Z" fill="#73979C"/>
  <path d="M215.667 127.5L210.667 124.613V130.387L215.667 127.5ZM174 128H211.167V127H174V128Z" fill="#73979C"/>
  <path d="M238 160.5L233 157.613V163.387L238 160.5ZM196.333 161H233.5V160H196.333V161Z" fill="#73979C"/>
  <path d="M140.3 31.695C142.794 31.9517 144.737 32.795 146.13 34.225C147.56 35.6183 148.275 37.3783 148.275 39.505C148.275 40.0183 148.22 40.5867 148.11 41.21C147.744 43.0433 146.919 44.73 145.635 46.27C144.389 47.7733 142.83 48.9833 140.96 49.9C139.127 50.78 137.165 51.22 135.075 51.22C134.049 51.22 132.894 51.165 131.61 51.055C131.134 51.0183 130.565 50.9817 129.905 50.945C129.282 50.9083 128.604 50.89 127.87 50.89L124.35 50.945C123.764 50.9817 122.939 51 121.875 51C121.765 51 121.71 50.89 121.71 50.67C121.747 50.45 121.802 50.34 121.875 50.34C123.525 50.34 124.662 50.0833 125.285 49.57C125.945 49.0567 126.422 48.0117 126.715 46.435L131.225 20.97C131.335 20.31 131.39 19.7783 131.39 19.375C131.39 18.5317 131.134 17.9817 130.62 17.725C130.144 17.4317 129.227 17.285 127.87 17.285C127.76 17.285 127.705 17.175 127.705 16.955C127.742 16.735 127.797 16.625 127.87 16.625L130.455 16.68C131.849 16.7533 132.949 16.79 133.755 16.79C134.379 16.79 134.947 16.7717 135.46 16.735C136.01 16.6983 136.487 16.6617 136.89 16.625C137.954 16.515 138.925 16.46 139.805 16.46C142.592 16.46 144.7 16.9917 146.13 18.055C147.56 19.0817 148.275 20.5117 148.275 22.345C148.275 22.8583 148.22 23.39 148.11 23.94C147.707 25.7 146.845 27.24 145.525 28.56C144.205 29.88 142.464 30.925 140.3 31.695ZM133.26 31.64L135.35 31.695C137.807 31.695 139.787 30.98 141.29 29.55C142.794 28.0833 143.765 26.195 144.205 23.885C144.352 23.2983 144.425 22.675 144.425 22.015C144.425 20.5483 143.949 19.4117 142.995 18.605C142.079 17.7617 140.667 17.34 138.76 17.34C137.587 17.34 136.744 17.5967 136.23 18.11C135.717 18.6233 135.332 19.705 135.075 21.355L133.26 31.64ZM143.71 41.98C143.857 41.2467 143.93 40.495 143.93 39.725C143.93 37.5983 143.307 35.9483 142.06 34.775C140.814 33.6017 138.944 32.9967 136.45 32.96C135.534 32.9233 134.379 32.96 132.985 33.07L130.565 46.655C130.455 47.1317 130.4 47.5717 130.4 47.975C130.4 48.7817 130.675 49.35 131.225 49.68C131.812 50.01 132.857 50.175 134.36 50.175C137.037 50.175 139.145 49.46 140.685 48.03C142.225 46.5633 143.234 44.5467 143.71 41.98ZM170.835 29.22C171.605 29.22 172.192 29.5133 172.595 30.1C172.999 30.6867 173.2 31.4933 173.2 32.52C173.2 35.4167 171.752 39.6333 168.855 45.17C165.995 50.7067 162.695 55.6383 158.955 59.965C155.215 64.2917 152.117 66.455 149.66 66.455C148.89 66.455 148.267 66.2717 147.79 65.905C147.314 65.575 147.075 65.0433 147.075 64.31L147.13 63.815C147.424 62.605 148.267 62 149.66 62C150.027 62 150.614 62.0367 151.42 62.11C152.154 62.1833 152.704 62.22 153.07 62.22C154.28 62.22 155.289 61.9083 156.095 61.285C157.159 60.5883 158.552 59.0667 160.275 56.72L160.33 53.86C160.33 46.8933 159.78 41.5033 158.68 37.69C157.617 33.84 156.15 31.915 154.28 31.915C153.804 31.915 153.327 32.08 152.85 32.41C152.374 32.74 151.97 33.2167 151.64 33.84C151.604 33.95 151.494 34.005 151.31 34.005C151.054 34.005 150.944 33.895 150.98 33.675C151.64 32.2817 152.465 31.2 153.455 30.43C154.445 29.66 155.454 29.275 156.48 29.275C157.984 29.275 159.267 30.1367 160.33 31.86C161.43 33.5833 162.255 35.9483 162.805 38.955C163.392 41.925 163.685 45.2617 163.685 48.965C163.685 50.2483 163.667 51.22 163.63 51.88C165.134 49.5333 166.454 47.2233 167.59 44.95C168.764 42.6767 169.515 40.935 169.845 39.725C170.029 38.8083 170.12 38.075 170.12 37.525C170.12 36.755 170.029 36.0583 169.845 35.435C169.662 34.8117 169.405 34.1333 169.075 33.4C168.929 33.0333 168.782 32.685 168.635 32.355C168.525 31.9883 168.47 31.6583 168.47 31.365C168.47 30.7417 168.69 30.2283 169.13 29.825C169.57 29.4217 170.139 29.22 170.835 29.22ZM207.062 46.105C206.952 46.655 206.897 47.1317 206.897 47.535C206.897 48.5983 207.227 49.13 207.887 49.13C208.253 49.13 208.712 48.9283 209.262 48.525C209.812 48.1217 210.49 47.535 211.297 46.765C211.37 46.6917 211.443 46.655 211.517 46.655C211.627 46.655 211.718 46.7283 211.792 46.875C211.865 46.985 211.847 47.095 211.737 47.205C210.453 48.6717 209.335 49.7533 208.382 50.45C207.428 51.1467 206.475 51.495 205.522 51.495C204.788 51.495 204.238 51.2933 203.872 50.89C203.542 50.45 203.377 49.7717 203.377 48.855C203.377 48.1217 203.487 47.205 203.707 46.105L204.642 41.21C203.028 44.4733 201.305 47.04 199.472 48.91C197.638 50.78 195.768 51.715 193.862 51.715C192.542 51.715 191.442 51.2933 190.562 50.45C189.682 49.57 189.242 48.2133 189.242 46.38C189.242 45.5733 189.315 44.8033 189.462 44.07C189.938 41.4667 190.947 39.01 192.487 36.7C194.027 34.39 195.86 32.5383 197.987 31.145C200.113 29.7517 202.203 29.055 204.257 29.055C205.247 29.055 206.09 29.2567 206.787 29.66L209.042 17.45C209.115 17.12 209.152 16.6983 209.152 16.185C209.152 15.1583 208.767 14.645 207.997 14.645C207.447 14.645 206.585 14.92 205.412 15.47H205.357C205.21 15.47 205.1 15.3783 205.027 15.195C204.99 14.975 205.045 14.8467 205.192 14.81L212.782 11.125H212.892C213.038 11.125 213.167 11.18 213.277 11.29C213.387 11.4 213.423 11.4917 213.387 11.565L207.062 46.105ZM195.952 48.69C197.528 48.69 199.068 47.8467 200.572 46.16C202.075 44.4367 203.303 42.4567 204.257 40.22C205.21 37.9467 205.687 36.1683 205.687 34.885C205.687 33.7117 205.357 32.8133 204.697 32.19C204.037 31.5667 203.157 31.255 202.057 31.255C199.82 31.255 197.895 32.1533 196.282 33.95C194.668 35.71 193.587 38.2583 193.037 41.595C192.89 42.4383 192.817 43.2817 192.817 44.125C192.817 45.6283 193.092 46.765 193.642 47.535C194.192 48.305 194.962 48.69 195.952 48.69ZM227.043 29.055C228.326 29.055 229.316 29.2933 230.013 29.77C230.709 30.21 231.058 30.815 231.058 31.585C231.058 33.3083 229.793 34.885 227.263 36.315C224.769 37.7083 221.744 38.7167 218.188 39.34C218.041 40.22 217.968 41.1733 217.968 42.2C217.968 44.4367 218.444 46.2333 219.398 47.59C220.388 48.9467 221.818 49.625 223.688 49.625C225.704 49.625 227.483 49.02 229.023 47.81H229.078C229.188 47.81 229.279 47.865 229.353 47.975C229.463 48.085 229.481 48.195 229.408 48.305C226.804 50.5417 224.073 51.66 221.213 51.66C218.793 51.66 216.978 50.9083 215.768 49.405C214.558 47.9017 213.953 45.9583 213.953 43.575C213.953 42.7683 214.044 41.8517 214.228 40.825C214.594 38.9183 215.383 37.0667 216.593 35.27C217.839 33.4367 219.379 31.9517 221.213 30.815C223.046 29.6417 224.989 29.055 227.043 29.055ZM226.713 33.18C226.786 32.8133 226.823 32.575 226.823 32.465C226.823 31.8417 226.584 31.365 226.108 31.035C225.668 30.705 225.118 30.54 224.458 30.54C222.954 30.54 221.671 31.2917 220.608 32.795C219.544 34.2617 218.774 36.1867 218.298 38.57C223.358 37.6167 226.163 35.82 226.713 33.18ZM237.31 51.605C235.917 51.605 234.688 51.2933 233.625 50.67C232.598 50.01 232.085 49.24 232.085 48.36C232.085 47.7 232.268 47.1867 232.635 46.82C233.038 46.4533 233.515 46.27 234.065 46.27C234.468 46.27 234.798 46.3983 235.055 46.655C235.312 46.875 235.623 47.2783 235.99 47.865C236.393 48.5983 236.833 49.1667 237.31 49.57C237.787 49.9733 238.447 50.175 239.29 50.175C241.05 50.175 242.058 49.185 242.315 47.205C242.352 47.0583 242.37 46.82 242.37 46.49C242.37 45.4267 242.058 44.51 241.435 43.74C240.848 42.97 239.932 42.0717 238.685 41.045C237.475 40.055 236.558 39.175 235.935 38.405C235.312 37.635 235 36.7183 235 35.655C235 34.4817 235.348 33.4 236.045 32.41C236.778 31.42 237.732 30.65 238.905 30.1C240.115 29.5133 241.38 29.22 242.7 29.22C244.13 29.22 245.303 29.495 246.22 30.045C247.137 30.595 247.54 31.2917 247.43 32.135C247.32 32.685 247.082 33.125 246.715 33.455C246.348 33.7483 245.945 33.895 245.505 33.895C244.955 33.895 244.533 33.7667 244.24 33.51C243.947 33.2533 243.635 32.8683 243.305 32.355C242.938 31.7683 242.553 31.3283 242.15 31.035C241.783 30.705 241.252 30.54 240.555 30.54C239.858 30.54 239.272 30.7233 238.795 31.09C238.355 31.4567 238.098 31.9517 238.025 32.575C237.988 32.7217 237.97 32.96 237.97 33.29C237.97 34.28 238.263 35.16 238.85 35.93C239.473 36.7 240.372 37.58 241.545 38.57C242.828 39.67 243.782 40.6417 244.405 41.485C245.065 42.2917 245.395 43.245 245.395 44.345C245.395 45.445 245.028 46.5633 244.295 47.7C243.598 48.8367 242.627 49.7717 241.38 50.505C240.17 51.2383 238.813 51.605 237.31 51.605ZM254.397 51.495C252.93 51.495 252.197 50.5967 252.197 48.8C252.197 48.03 252.307 47.1317 252.527 46.105L254.782 34.665C254.892 34.115 254.947 33.6383 254.947 33.235C254.947 32.135 254.598 31.585 253.902 31.585C253.498 31.585 252.985 31.805 252.362 32.245C251.738 32.6483 251.06 33.235 250.327 34.005C250.29 34.0417 250.235 34.06 250.162 34.06C250.052 34.06 249.942 34.005 249.832 33.895C249.758 33.7483 249.777 33.6383 249.887 33.565C252.307 30.705 254.452 29.275 256.322 29.275C257.055 29.275 257.587 29.495 257.917 29.935C258.283 30.3383 258.467 30.98 258.467 31.86C258.467 32.7033 258.375 33.5467 258.192 34.39L255.937 46.105C255.827 46.655 255.772 47.1317 255.772 47.535C255.772 48.5983 256.102 49.13 256.762 49.13C257.605 49.13 258.76 48.36 260.227 46.82C260.263 46.7833 260.318 46.765 260.392 46.765C260.538 46.765 260.648 46.8383 260.722 46.985C260.795 47.095 260.777 47.1867 260.667 47.26C259.457 48.69 258.338 49.7533 257.312 50.45C256.322 51.1467 255.35 51.495 254.397 51.495ZM257.917 23.005C257.11 23.005 256.468 22.785 255.992 22.345C255.552 21.8683 255.332 21.2267 255.332 20.42C255.332 19.65 255.552 19.045 255.992 18.605C256.468 18.165 257.11 17.945 257.917 17.945C258.723 17.945 259.347 18.165 259.787 18.605C260.263 19.045 260.502 19.65 260.502 20.42C260.502 21.2267 260.282 21.8683 259.842 22.345C259.402 22.785 258.76 23.005 257.917 23.005ZM283.33 29.33C283.514 29.33 283.605 29.5683 283.605 30.045C283.605 30.5583 283.514 31.09 283.33 31.64C283.184 32.1533 283.037 32.3733 282.89 32.3C281.827 31.64 280.452 31.3467 278.765 31.42C279.535 32.52 279.92 33.84 279.92 35.38C279.92 36.15 279.847 36.8467 279.7 37.47C279.37 39.0833 278.729 40.5133 277.775 41.76C276.822 42.97 275.685 43.9233 274.365 44.62C273.082 45.28 271.762 45.61 270.405 45.61C270.075 45.61 269.654 45.5733 269.14 45.5C268.737 46.0867 268.535 46.71 268.535 47.37C268.535 48.2133 268.92 48.9467 269.69 49.57C270.46 50.1567 271.67 50.8717 273.32 51.715C275.374 52.705 276.95 53.6767 278.05 54.63C279.187 55.5833 279.755 56.8117 279.755 58.315C279.755 59.7817 279.205 61.1383 278.105 62.385C277.042 63.6317 275.612 64.6217 273.815 65.355C272.019 66.0883 270.075 66.455 267.985 66.455C265.382 66.455 263.329 65.9233 261.825 64.86C260.322 63.7967 259.57 62.495 259.57 60.955C259.57 59.3783 260.249 57.9483 261.605 56.665C262.925 55.3817 264.832 54.0617 267.325 52.705C266.005 51.7883 265.345 50.78 265.345 49.68C265.345 49.4233 265.364 49.24 265.4 49.13C265.547 48.5067 265.859 47.9017 266.335 47.315C266.812 46.6917 267.472 46.0133 268.315 45.28C267.142 44.8767 266.244 44.1617 265.62 43.135C264.997 42.1083 264.685 40.88 264.685 39.45C264.685 39.01 264.759 38.35 264.905 37.47C265.345 35.16 266.445 33.2533 268.205 31.75C270.002 30.21 272.019 29.44 274.255 29.44C275.759 29.44 277.005 29.8433 277.995 30.65C279.939 29.77 281.717 29.33 283.33 29.33ZM276.18 38.625C276.254 38.2217 276.29 37.5983 276.29 36.755C276.29 35.0317 276.015 33.565 275.465 32.355C274.915 31.1083 274.072 30.485 272.935 30.485C271.909 30.485 270.974 31.0533 270.13 32.19C269.287 33.3267 268.737 34.7383 268.48 36.425C268.37 37.1217 268.315 37.8183 268.315 38.515C268.315 40.2017 268.627 41.6317 269.25 42.805C269.874 43.9417 270.717 44.51 271.78 44.51C272.807 44.51 273.724 43.9783 274.53 42.915C275.374 41.8517 275.924 40.4217 276.18 38.625ZM276.51 60.46C276.51 59.14 275.997 58.0583 274.97 57.215C273.98 56.4083 272.495 55.4917 270.515 54.465C269.415 53.9517 268.554 53.4933 267.93 53.09C266.464 54.0067 265.309 54.9233 264.465 55.84C263.659 56.7933 263.255 57.9483 263.255 59.305C263.255 60.9183 263.934 62.2383 265.29 63.265C266.684 64.3283 268.48 64.86 270.68 64.86C272.55 64.86 273.98 64.4383 274.97 63.595C275.997 62.7517 276.51 61.7067 276.51 60.46ZM307.411 46.765C307.485 46.6917 307.54 46.655 307.576 46.655C307.686 46.655 307.778 46.7283 307.851 46.875C307.925 46.985 307.925 47.095 307.851 47.205C306.605 48.6717 305.486 49.7533 304.496 50.45C303.506 51.1467 302.535 51.495 301.581 51.495C300.848 51.495 300.316 51.2933 299.986 50.89C299.656 50.45 299.491 49.7533 299.491 48.8C299.491 48.1767 299.583 47.2783 299.766 46.105L301.361 37.36C301.581 36.26 301.691 35.3067 301.691 34.5C301.691 32.52 300.976 31.53 299.546 31.53C298.373 31.53 297.163 32.2817 295.916 33.785C294.67 35.2883 293.496 37.47 292.396 40.33C291.296 43.19 290.398 46.5817 289.701 50.505C289.628 50.7983 289.408 51.0183 289.041 51.165C288.675 51.3483 288.18 51.44 287.556 51.44C286.566 51.44 286.071 51.3117 286.071 51.055L286.291 49.955C286.621 48.3783 286.823 47.37 286.896 46.93L289.151 34.665C289.261 34.115 289.316 33.6567 289.316 33.29C289.316 32.1533 288.968 31.585 288.271 31.585C287.391 31.585 286.181 32.3917 284.641 34.005C284.605 34.0417 284.55 34.06 284.476 34.06C284.366 34.06 284.275 34.005 284.201 33.895C284.128 33.7483 284.128 33.6383 284.201 33.565C285.448 32.0983 286.603 31.0167 287.666 30.32C288.73 29.6233 289.756 29.275 290.746 29.275C291.48 29.275 292.011 29.495 292.341 29.935C292.671 30.3383 292.836 30.9983 292.836 31.915C292.836 32.465 292.745 33.29 292.561 34.39L291.461 40.44C292.781 36.8467 294.321 34.06 296.081 32.08C297.841 30.0633 299.693 29.055 301.636 29.055C302.846 29.055 303.745 29.4033 304.331 30.1C304.955 30.7967 305.266 31.86 305.266 33.29C305.266 34.1333 305.156 35.1417 304.936 36.315L303.121 46.105C303.011 46.655 302.956 47.1133 302.956 47.48C302.956 48.58 303.305 49.13 304.001 49.13C304.368 49.13 304.826 48.9283 305.376 48.525C305.926 48.1217 306.605 47.535 307.411 46.765ZM312.679 51.55C311.872 51.55 311.231 51.3117 310.754 50.835C310.314 50.3583 310.094 49.7167 310.094 48.91C310.094 48.1767 310.314 47.59 310.754 47.15C311.231 46.71 311.872 46.49 312.679 46.49C313.486 46.49 314.109 46.71 314.549 47.15C314.989 47.5533 315.209 48.14 315.209 48.91C315.209 49.7533 314.989 50.4133 314.549 50.89C314.109 51.33 313.486 51.55 312.679 51.55ZM314.714 36.095C313.907 36.095 313.266 35.8567 312.789 35.38C312.349 34.9033 312.129 34.2617 312.129 33.455C312.129 32.7217 312.349 32.135 312.789 31.695C313.266 31.255 313.907 31.035 314.714 31.035C315.521 31.035 316.144 31.255 316.584 31.695C317.024 32.0983 317.244 32.685 317.244 33.455C317.244 34.2983 317.024 34.9583 316.584 35.435C316.144 35.875 315.521 36.095 314.714 36.095Z" fill="#FF0097"/>
  <g filter="url(#filter0_d)">
    <path fill-rule="evenodd" clip-rule="evenodd" d="M59 338.851C59 327.805 67.9543 318.851 79 318.851H361.176C372.222 318.851 381.176 327.805 381.176 338.851V354.119C381.176 365.165 372.222 374.119 361.176 374.119H79C67.9543 374.119 59 365.165 59 354.119V338.851Z" fill="white"/>
    <path d="M79 319.351H361.176C371.946 319.351 380.676 328.081 380.676 338.851V354.119C380.676 364.889 371.946 373.619 361.176 373.619H79C68.2305 373.619 59.5 364.889 59.5 354.119V338.851C59.5 328.081 68.2304 319.351 79 319.351Z" stroke="#EAF1F3"/>
  </g>
  <path d="M237.808 347.159L232.808 344.272V350.046L237.808 347.159ZM205.793 347.659H233.308V346.659H205.793V347.659Z" fill="#73979C"/>
  <path fill-rule="evenodd" clip-rule="evenodd" d="M275.155 338.397C276.798 338.397 277.821 339.184 277.821 340.4V340.413C277.821 341.283 277.331 341.78 276.754 342.084C277.691 342.429 278.267 342.954 278.267 343.99V344.017C278.267 345.439 277.071 346.144 275.242 346.144H271.396V338.397H275.155ZM275.202 342.942H273.142V344.654H275.259C276.037 344.654 276.512 344.392 276.512 343.812V343.784C276.512 343.259 276.109 342.942 275.202 342.942ZM273.127 339.871H274.884C275.633 339.871 276.051 340.161 276.051 340.672V340.7C276.051 341.28 275.561 341.514 274.769 341.514H273.127V339.871Z" fill="#F0B90B"/>
  <path d="M282.012 346.144V338.397H280.138V346.144H282.012Z" fill="#F0B90B"/>
  <path d="M290.761 346.144V338.411H289.081V343.166L285.46 338.397H283.89V346.13H285.57V341.209L289.315 346.13H290.761V346.144Z" fill="#F0B90B"/>
  <path fill-rule="evenodd" clip-rule="evenodd" d="M300.132 346.144L296.848 338.397H295.295L292.011 346.144H293.728L294.423 344.416H297.652L298.347 346.144H300.132ZM295.049 342.92L296.071 340.425L297.08 342.92H295.049Z" fill="#F0B90B"/>
  <path d="M308.25 346.144V338.411H306.569V343.166L302.948 338.397H301.378V346.13H303.058V341.209L306.804 346.13H308.25V346.144Z" fill="#F0B90B"/>
  <path d="M316.999 345.345L315.95 344.204C315.367 344.781 314.85 345.157 313.987 345.157C312.714 345.157 311.825 344.001 311.825 342.615V342.586C311.825 341.199 312.727 340.058 313.987 340.058C314.73 340.058 315.314 340.405 315.898 340.968L316.945 339.654C316.256 338.917 315.42 338.397 314.014 338.397C311.732 338.397 310.127 340.29 310.127 342.586V342.615C310.127 344.94 311.759 346.789 313.948 346.789C315.38 346.803 316.229 346.24 316.999 345.345Z" fill="#F0B90B"/>
  <path d="M324.492 346.144V344.628H320.476V343.001H323.966V341.485H320.476V339.914H324.44V338.397H318.87V346.13H324.492V346.144Z" fill="#F0B90B"/>
  <path fill-rule="evenodd" clip-rule="evenodd" d="M273.23 355.264C273.666 355.264 274.038 355.193 274.346 355.053C274.654 354.913 274.89 354.718 275.053 354.467C275.216 354.217 275.298 353.927 275.298 353.597C275.298 353.353 275.254 353.14 275.165 352.958C275.076 352.777 274.956 352.622 274.804 352.494C274.652 352.365 274.481 352.259 274.29 352.175C274.1 352.09 273.901 352.023 273.695 351.974L273.184 351.842C273.073 351.814 272.962 351.78 272.852 351.74C272.741 351.7 272.641 351.649 272.551 351.59C272.46 351.53 272.389 351.457 272.336 351.371C272.284 351.285 272.258 351.183 272.258 351.066C272.26 350.925 272.3 350.799 272.378 350.689C272.456 350.579 272.569 350.492 272.716 350.428C272.863 350.364 273.04 350.331 273.246 350.331C273.538 350.331 273.777 350.398 273.96 350.532C274.144 350.666 274.248 350.853 274.273 351.093H275.223C275.218 350.776 275.132 350.495 274.965 350.25C274.798 350.005 274.569 349.814 274.277 349.675C273.985 349.537 273.646 349.468 273.259 349.468C272.877 349.468 272.536 349.537 272.234 349.675C271.932 349.814 271.694 350.008 271.519 350.257C271.344 350.507 271.257 350.797 271.257 351.129C271.257 351.533 271.387 351.856 271.647 352.099C271.907 352.342 272.261 352.523 272.71 352.642L273.331 352.807C273.526 352.859 273.697 352.917 273.843 352.982C273.99 353.047 274.104 353.128 274.185 353.224C274.267 353.32 274.309 353.442 274.31 353.588C274.309 353.75 274.262 353.891 274.169 354.011C274.077 354.131 273.95 354.224 273.787 354.291C273.625 354.358 273.436 354.392 273.222 354.392C273.016 354.392 272.83 354.36 272.664 354.295C272.498 354.231 272.364 354.134 272.261 354.004C272.158 353.874 272.099 353.71 272.085 353.514H271.113C271.127 353.888 271.222 354.205 271.397 354.466C271.572 354.726 271.815 354.924 272.126 355.06C272.438 355.196 272.805 355.264 273.23 355.264ZM277.311 355.182V351.304H277.362L278.868 355.166H279.576L281.083 351.312H281.134V355.182H282.081V349.549H280.873L279.254 353.631H279.191L277.572 349.549H276.363V355.182H277.311ZM284.496 353.794L284.045 355.182H282.991L284.91 349.549H286.13L288.052 355.182H286.998L286.546 353.794H284.496ZM286.275 352.97H284.758L285.495 350.7H285.537L286.275 352.97ZM289.937 353.119L289.937 355.182H288.95V349.549H290.994C291.413 349.549 291.765 349.624 292.05 349.774C292.334 349.925 292.55 350.135 292.697 350.406C292.843 350.676 292.916 350.991 292.916 351.351C292.916 351.712 292.842 352.025 292.694 352.29L292.626 352.4C292.482 352.612 292.287 352.78 292.04 352.903L291.936 352.951L293.116 355.182H292.014L290.942 353.119H289.937ZM289.937 350.398H290.843C291.089 350.398 291.291 350.435 291.447 350.51C291.603 350.584 291.719 350.692 291.795 350.834C291.872 350.976 291.91 351.147 291.91 351.347C291.91 351.547 291.872 351.715 291.797 351.852C291.721 351.988 291.606 352.092 291.449 352.163C291.293 352.233 291.093 352.269 290.848 352.269L289.937 352.269L289.937 350.398ZM296.439 350.404V355.182H295.46V350.404H293.775V349.549H298.124V350.404H296.439ZM303.548 355.256C303.873 355.256 304.168 355.206 304.434 355.106C304.7 355.006 304.933 354.866 305.132 354.687C305.33 354.509 305.492 354.302 305.615 354.067C305.738 353.833 305.819 353.581 305.856 353.314L304.86 353.308C304.83 353.473 304.775 353.62 304.696 353.748C304.618 353.877 304.521 353.985 304.406 354.073C304.292 354.161 304.163 354.227 304.02 354.272C303.877 354.317 303.724 354.34 303.561 354.34C303.267 354.34 303.005 354.265 302.777 354.115C302.549 353.966 302.37 353.744 302.239 353.45C302.109 353.155 302.044 352.793 302.044 352.362C302.044 351.938 302.109 351.579 302.238 351.285C302.368 350.991 302.547 350.767 302.776 350.614C303.005 350.461 303.267 350.384 303.564 350.384C303.731 350.384 303.886 350.407 304.031 350.454C304.176 350.501 304.305 350.57 304.418 350.662C304.532 350.753 304.627 350.865 304.703 350.996C304.779 351.127 304.832 351.277 304.86 351.446H305.856C305.815 351.132 305.729 350.853 305.596 350.608C305.464 350.363 305.296 350.156 305.092 349.986C304.888 349.817 304.655 349.688 304.394 349.6C304.133 349.512 303.851 349.468 303.548 349.468C303.072 349.468 302.646 349.583 302.27 349.812C301.894 350.041 301.597 350.372 301.378 350.803C301.16 351.235 301.051 351.755 301.051 352.362C301.051 352.967 301.159 353.486 301.376 353.919C301.592 354.351 301.888 354.682 302.265 354.912C302.641 355.141 303.069 355.256 303.548 355.256ZM307.936 352.789V355.182H306.949V349.549H307.936V351.934H310.463V349.549H311.453V355.182H310.463V352.789H307.936ZM313.415 355.182L313.866 353.794H315.915L316.367 355.182H317.421L315.499 349.549H314.28L312.361 355.182H313.415ZM314.129 352.97H315.646L314.909 350.7H314.866L314.129 352.97ZM319.31 355.182V349.549H318.322V355.182H319.31ZM321.554 351.345V355.182H320.567V349.549H321.45L324.016 353.389H324.065V349.549H325.047V355.182H324.168L321.599 351.345H321.554Z" fill="#F0B90B"/>
  <path d="M252.296 345.438L256.484 341.249L260.675 345.44L263.112 343.003L256.484 336.375L249.859 343.001L252.296 345.438L252.296 345.438ZM245.7 347.159L248.137 344.721L250.575 347.159L248.137 349.596L245.7 347.159ZM252.296 348.88L256.484 353.069L260.675 348.878L263.113 351.314L263.112 351.316L256.484 357.943L249.859 351.318L249.855 351.314L252.296 348.88L252.296 348.88ZM262.394 347.16L264.831 344.723L267.268 347.16L264.831 349.597L262.394 347.16Z" fill="#F3BA2F"/>
  <path d="M258.956 347.158H258.957L256.484 344.685L254.656 346.512L254.446 346.722L254.013 347.155L254.01 347.159L254.013 347.162L256.484 349.633L258.957 347.16L258.958 347.159L258.956 347.158" fill="#F3BA2F"/>
  <g clip-path="url(#clip0)">
    <path d="M125.427 347.109H129.422C129.984 347.109 130.439 347.571 130.439 348.135C130.439 348.704 129.984 349.161 129.422 349.161H124.603C124.526 349.161 124.453 349.19 124.4 349.239L122.947 350.499C122.724 350.693 122.86 351.058 123.151 351.058H129.18C129.18 351.058 129.185 351.058 129.185 351.053C129.185 351.048 129.19 351.048 129.19 351.048C129.267 351.053 129.34 351.058 129.417 351.058C131.016 351.058 132.314 349.75 132.314 348.135C132.314 346.603 131.146 345.343 129.655 345.222C129.655 345.222 129.65 345.222 129.65 345.217C129.65 345.212 129.65 345.212 129.645 345.212H125.344C124.783 345.212 124.327 344.75 124.327 344.186C124.327 343.617 124.783 343.16 125.344 343.16H130.154C130.231 343.16 130.309 343.13 130.367 343.077L131.718 341.817C131.931 341.618 131.791 341.263 131.505 341.263H125.427C125.403 341.263 125.374 341.263 125.349 341.263C123.751 341.263 122.453 342.571 122.453 344.186C122.453 345.8 123.751 347.109 125.349 347.109C125.374 347.109 125.398 347.109 125.427 347.109Z" fill="#001A34"/>
    <path d="M148.944 341.268C148.765 341.268 148.621 341.408 148.621 341.588V350.737C148.621 350.912 148.765 351.058 148.944 351.058H156.456C156.545 351.058 156.63 351.019 156.695 350.956L157.634 349.97C157.828 349.766 157.684 349.431 157.396 349.431H150.84C150.661 349.431 150.516 349.29 150.516 349.111V341.583C150.516 341.408 150.372 341.263 150.193 341.263H148.944V341.268Z" fill="#001A34"/>
    <path fill-rule="evenodd" clip-rule="evenodd" d="M137.111 341.288C137.111 341.293 137.111 341.293 137.111 341.288C136.162 341.332 135.401 342.086 135.356 343.025V349.19C135.356 349.215 135.356 349.244 135.356 349.268C135.356 350.246 136.133 351.044 137.111 351.083H143.842C144.815 351.04 145.596 350.241 145.596 349.268C145.596 349.244 145.596 349.215 145.596 349.19V343.03C145.557 342.091 144.795 341.332 143.847 341.293H137.111V341.288ZM138.361 343.042C138.356 343.042 138.356 343.042 138.361 343.042C137.767 343.066 137.29 343.543 137.265 344.137V348.015C137.265 348.03 137.265 348.049 137.265 348.064C137.265 348.677 137.752 349.183 138.361 349.207H142.582C143.191 349.183 143.678 348.677 143.678 348.064C143.678 348.049 143.678 348.03 143.678 348.015V344.137C143.653 343.543 143.176 343.071 142.582 343.042H138.361Z" fill="#001A34"/>
    <path fill-rule="evenodd" clip-rule="evenodd" d="M168.708 351.116C168.708 351.291 168.852 351.437 169.032 351.437H170.309C170.489 351.437 170.633 351.296 170.633 351.116V343.538C170.633 343.513 170.633 343.484 170.633 343.46C170.633 342.483 169.85 341.685 168.872 341.646H162.314C162.289 341.646 162.259 341.646 162.234 341.646C161.216 341.646 160.394 342.458 160.394 343.465C160.394 343.489 160.394 343.518 160.394 343.542V351.121C160.394 351.296 160.538 351.442 160.718 351.442H161.995C162.174 351.442 162.319 351.301 162.319 351.121V347.966C162.319 347.791 162.463 347.645 162.643 347.645H168.399C168.578 347.645 168.723 347.786 168.723 347.966V351.116H168.708ZM162.314 345.854V344.279C162.314 343.666 162.818 343.17 163.436 343.17H167.596C168.215 343.17 168.718 343.666 168.718 344.279V345.854C168.718 346.029 168.574 346.175 168.394 346.175H162.638C162.459 346.175 162.314 346.034 162.314 345.854Z" fill="#001A34"/>
    <path fill-rule="evenodd" clip-rule="evenodd" d="M195.187 351.442C195.009 351.442 194.866 351.301 194.866 351.121V347.966C194.866 347.791 194.723 347.645 194.545 347.645H188.786C188.608 347.645 188.465 347.786 188.465 347.966V351.121C188.465 351.296 188.323 351.442 188.145 351.442H186.871C186.694 351.442 186.551 351.301 186.551 351.121V343.542C186.551 343.518 186.551 343.489 186.551 343.465C186.551 342.463 187.375 341.646 188.392 341.646C188.416 341.646 188.445 341.646 188.471 341.646H195.029C196.006 341.69 196.791 342.487 196.791 343.46C196.791 343.484 196.791 343.513 196.791 343.538V351.116C196.791 351.291 196.647 351.437 196.47 351.437H195.187V351.442ZM188.466 344.286V345.861C188.466 346.036 188.609 346.182 188.786 346.182H194.545C194.723 346.182 194.866 346.041 194.866 345.861V344.286C194.866 343.673 194.363 343.177 193.746 343.177H189.586C188.964 343.177 188.466 343.673 188.466 344.286Z" fill="#001A34"/>
    <path d="M175.063 341.653C175.158 341.653 175.247 341.692 175.307 341.765L181.025 348.413C181.219 348.637 181.593 348.501 181.593 348.205V341.974C181.593 341.799 181.737 341.653 181.916 341.653H183.192C183.371 341.653 183.515 341.794 183.515 341.974V351.123C183.515 351.298 183.371 351.444 183.192 351.444H181.608C181.602 351.444 181.598 351.439 181.598 351.434C181.598 351.429 181.598 351.429 181.593 351.424L175.775 344.825C175.581 344.601 175.208 344.742 175.208 345.033V351.128C175.208 351.303 175.063 351.449 174.884 351.449H173.599C173.42 351.449 173.275 351.308 173.275 351.128V341.974C173.275 341.799 173.42 341.653 173.599 341.653H175.063Z" fill="#001A34"/>
    <path d="M96.8923 351.674C97.0504 351.52 97.2629 351.434 97.4853 351.434H118.067C118.442 351.434 118.63 351.876 118.363 352.131L114.296 356.09C114.138 356.244 113.926 356.331 113.703 356.331H93.122C92.7464 356.331 92.5586 355.888 92.8255 355.634L96.8923 351.674Z" fill="url(#paint0_linear)"/>
    <path d="M96.8923 336.616C97.0504 336.462 97.2629 336.375 97.4853 336.375H118.067C118.442 336.375 118.63 336.818 118.363 337.073L114.296 341.032C114.138 341.186 113.926 341.272 113.703 341.272H93.122C92.7464 341.272 92.5586 340.829 92.8255 340.574L96.8923 336.616Z" fill="url(#paint1_linear)"/>
    <path d="M114.296 344.282C114.138 344.128 113.926 344.041 113.703 344.041H93.122C92.7464 344.041 92.5586 344.484 92.8255 344.739L96.8923 348.698C97.0504 348.852 97.2629 348.938 97.4853 348.938H118.067C118.442 348.938 118.63 348.495 118.363 348.24L114.296 344.282Z" fill="url(#paint2_linear)"/>
  </g>
  <g filter="url(#filter1_d)">
    <path fill-rule="evenodd" clip-rule="evenodd" d="M59 448.731C59 437.686 67.9543 428.731 79 428.731H361.176C372.222 428.731 381.176 437.686 381.176 448.731V464C381.176 475.046 372.222 484 361.176 484H79C67.9543 484 59 475.046 59 464V448.731Z" fill="white"/>
    <path d="M79 429.231H361.176C371.946 429.231 380.676 437.962 380.676 448.731V464C380.676 474.77 371.946 483.5 361.176 483.5H79C68.2305 483.5 59.5 474.77 59.5 464V448.731C59.5 437.962 68.2304 429.231 79 429.231Z" stroke="#EAF1F3"/>
  </g>
  <path d="M238.482 455.018L233.482 452.131V457.904L238.482 455.018ZM206.467 455.518H233.982V454.518H206.467V455.518Z" fill="#73979C"/>
  <g clip-path="url(#clip1)">
    <path d="M125.427 455.642H129.422C129.984 455.642 130.439 456.104 130.439 456.668C130.439 457.237 129.984 457.694 129.422 457.694H124.603C124.526 457.694 124.453 457.724 124.4 457.772L122.947 459.032C122.724 459.226 122.86 459.591 123.151 459.591H129.18C129.18 459.591 129.185 459.591 129.185 459.586C129.185 459.581 129.19 459.581 129.19 459.581C129.267 459.586 129.34 459.591 129.417 459.591C131.016 459.591 132.314 458.283 132.314 456.668C132.314 455.136 131.146 453.876 129.655 453.755C129.655 453.755 129.65 453.755 129.65 453.75C129.65 453.745 129.65 453.745 129.645 453.745H125.344C124.783 453.745 124.327 453.283 124.327 452.719C124.327 452.15 124.783 451.693 125.344 451.693H130.154C130.231 451.693 130.309 451.664 130.367 451.61L131.718 450.35C131.931 450.151 131.791 449.796 131.505 449.796H125.427C125.403 449.796 125.374 449.796 125.349 449.796C123.751 449.796 122.453 451.104 122.453 452.719C122.453 454.334 123.751 455.642 125.349 455.642C125.374 455.642 125.398 455.642 125.427 455.642Z" fill="#001A34"/>
    <path d="M148.944 449.801C148.765 449.801 148.621 449.942 148.621 450.121V459.271C148.621 459.446 148.765 459.591 148.944 459.591H156.456C156.545 459.591 156.63 459.552 156.695 459.489L157.634 458.503C157.828 458.299 157.684 457.964 157.396 457.964H150.84C150.661 457.964 150.516 457.823 150.516 457.644V450.116C150.516 449.942 150.372 449.796 150.193 449.796H148.944V449.801Z" fill="#001A34"/>
    <path fill-rule="evenodd" clip-rule="evenodd" d="M137.111 449.821C137.111 449.826 137.111 449.826 137.111 449.821C136.162 449.865 135.401 450.619 135.356 451.558V457.724C135.356 457.748 135.356 457.777 135.356 457.802C135.356 458.78 136.133 459.578 137.111 459.617H143.842C144.815 459.573 145.596 458.775 145.596 457.802C145.596 457.777 145.596 457.748 145.596 457.724V451.563C145.557 450.624 144.795 449.865 143.847 449.826H137.111V449.821ZM138.361 451.575C138.356 451.575 138.356 451.575 138.361 451.575C137.767 451.6 137.29 452.076 137.265 452.67V456.548C137.265 456.563 137.265 456.582 137.265 456.597C137.265 457.21 137.752 457.716 138.361 457.74H142.582C143.191 457.716 143.678 457.21 143.678 456.597C143.678 456.582 143.678 456.563 143.678 456.548V452.67C143.653 452.076 143.176 451.604 142.582 451.575H138.361Z" fill="#001A34"/>
    <path fill-rule="evenodd" clip-rule="evenodd" d="M168.708 459.649C168.708 459.824 168.852 459.97 169.032 459.97H170.309C170.489 459.97 170.633 459.829 170.633 459.649V452.071C170.633 452.046 170.633 452.017 170.633 451.993C170.633 451.016 169.85 450.219 168.872 450.18H162.314C162.289 450.18 162.259 450.18 162.234 450.18C161.216 450.18 160.394 450.991 160.394 451.998C160.394 452.022 160.394 452.051 160.394 452.076V459.654C160.394 459.829 160.538 459.975 160.718 459.975H161.995C162.174 459.975 162.319 459.834 162.319 459.654V456.499C162.319 456.324 162.463 456.178 162.643 456.178H168.399C168.578 456.178 168.723 456.319 168.723 456.499V459.649H168.708ZM162.314 454.387V452.812C162.314 452.2 162.818 451.704 163.436 451.704H167.596C168.215 451.704 168.718 452.2 168.718 452.812V454.387C168.718 454.562 168.574 454.708 168.394 454.708H162.638C162.459 454.708 162.314 454.567 162.314 454.387Z" fill="#001A34"/>
    <path fill-rule="evenodd" clip-rule="evenodd" d="M195.187 459.975C195.009 459.975 194.866 459.834 194.866 459.654V456.499C194.866 456.324 194.723 456.178 194.545 456.178H188.786C188.608 456.178 188.465 456.319 188.465 456.499V459.654C188.465 459.829 188.323 459.975 188.145 459.975H186.871C186.694 459.975 186.551 459.834 186.551 459.654V452.076C186.551 452.051 186.551 452.022 186.551 451.998C186.551 450.996 187.375 450.18 188.392 450.18C188.416 450.18 188.445 450.18 188.471 450.18H195.029C196.006 450.223 196.791 451.021 196.791 451.993C196.791 452.017 196.791 452.046 196.791 452.071V459.649C196.791 459.824 196.647 459.97 196.47 459.97H195.187V459.975ZM188.466 452.819V454.394C188.466 454.569 188.609 454.715 188.786 454.715H194.545C194.723 454.715 194.866 454.574 194.866 454.394V452.819C194.866 452.206 194.363 451.711 193.746 451.711H189.586C188.964 451.711 188.466 452.206 188.466 452.819Z" fill="#001A34"/>
    <path d="M175.063 450.187C175.158 450.187 175.247 450.225 175.307 450.298L181.025 456.947C181.219 457.17 181.593 457.034 181.593 456.738V450.507C181.593 450.332 181.737 450.187 181.916 450.187H183.192C183.371 450.187 183.515 450.327 183.515 450.507V459.656C183.515 459.831 183.371 459.977 183.192 459.977H181.608C181.602 459.977 181.598 459.972 181.598 459.967C181.598 459.962 181.598 459.962 181.593 459.957L175.775 453.358C175.581 453.134 175.208 453.275 175.208 453.567V459.661C175.208 459.836 175.063 459.982 174.884 459.982H173.599C173.42 459.982 173.275 459.841 173.275 459.661V450.507C173.275 450.332 173.42 450.187 173.599 450.187H175.063Z" fill="#001A34"/>
    <path d="M96.8923 460.207C97.0504 460.054 97.2629 459.967 97.4853 459.967H118.067C118.442 459.967 118.63 460.41 118.363 460.664L114.296 464.624C114.138 464.778 113.926 464.864 113.703 464.864H93.122C92.7464 464.864 92.5586 464.422 92.8255 464.167L96.8923 460.207Z" fill="url(#paint3_linear)"/>
    <path d="M96.8923 445.149C97.0504 444.995 97.2629 444.908 97.4853 444.908H118.067C118.442 444.908 118.63 445.351 118.363 445.606L114.296 449.565C114.138 449.719 113.926 449.806 113.703 449.806H93.122C92.7464 449.806 92.5586 449.363 92.8255 449.107L96.8923 445.149Z" fill="url(#paint4_linear)"/>
    <path d="M114.296 452.815C114.138 452.661 113.926 452.574 113.703 452.574H93.122C92.7464 452.574 92.5586 453.017 92.8255 453.272L96.8923 457.231C97.0504 457.385 97.2629 457.472 97.4853 457.472H118.067C118.442 457.472 118.63 457.029 118.363 456.773L114.296 452.815Z" fill="url(#paint5_linear)"/>
  </g>
  <path d="M265.916 451.888C265.668 451.75 265.389 451.677 265.104 451.677C264.82 451.677 264.54 451.75 264.292 451.888L260.565 454.043L258.033 455.448L254.306 457.603C254.058 457.741 253.779 457.813 253.494 457.813C253.21 457.813 252.93 457.741 252.682 457.603L249.72 455.916C249.479 455.779 249.277 455.581 249.135 455.343C248.993 455.105 248.915 454.835 248.908 454.558V451.232C248.905 450.953 248.979 450.679 249.122 450.439C249.265 450.2 249.472 450.004 249.72 449.874L252.634 448.235C252.882 448.096 253.162 448.024 253.446 448.024C253.731 448.024 254.01 448.096 254.259 448.235L257.173 449.874C257.414 450.012 257.615 450.209 257.758 450.447C257.9 450.685 257.978 450.956 257.985 451.232V453.387L260.517 451.935V449.78C260.52 449.501 260.446 449.227 260.303 448.987C260.16 448.748 259.953 448.552 259.705 448.422L254.306 445.331C254.058 445.193 253.779 445.12 253.494 445.12C253.21 445.12 252.93 445.193 252.682 445.331L247.187 448.422C246.939 448.552 246.732 448.748 246.589 448.987C246.446 449.227 246.372 449.501 246.375 449.78V456.01C246.372 456.289 246.446 456.563 246.589 456.803C246.732 457.043 246.939 457.238 247.187 457.368L252.681 460.46C252.93 460.598 253.209 460.67 253.494 460.67C253.778 460.67 254.057 460.598 254.306 460.46L258.032 458.352L260.565 456.9L264.291 454.792C264.54 454.654 264.819 454.581 265.104 454.581C265.388 454.581 265.668 454.654 265.916 454.792L268.83 456.432C269.071 456.569 269.273 456.767 269.415 457.005C269.557 457.243 269.635 457.513 269.642 457.79V461.116C269.645 461.395 269.571 461.669 269.428 461.909C269.285 462.148 269.078 462.344 268.83 462.474L265.916 464.16C265.667 464.298 265.388 464.371 265.104 464.371C264.819 464.371 264.54 464.298 264.291 464.16L261.377 462.521C261.136 462.383 260.935 462.186 260.792 461.948C260.65 461.71 260.572 461.439 260.565 461.162V459.008L258.033 460.46V462.614C258.03 462.893 258.104 463.168 258.247 463.407C258.39 463.647 258.597 463.843 258.845 463.973L264.339 467.064C264.587 467.202 264.867 467.275 265.151 467.275C265.436 467.275 265.715 467.202 265.964 467.064L271.458 463.973C271.699 463.835 271.901 463.637 272.043 463.399C272.185 463.161 272.263 462.891 272.27 462.614V456.385C272.273 456.106 272.199 455.831 272.056 455.592C271.913 455.352 271.706 455.156 271.458 455.026L265.916 451.888Z" fill="#8247E5"/>
  <path d="M284.844 451.222C285.71 451.208 286.562 451.445 287.296 451.904C288.039 452.384 288.631 453.063 289.003 453.863C289.441 454.808 289.654 455.841 289.629 456.881C289.652 457.918 289.438 458.947 289.003 459.889C288.633 460.693 288.041 461.376 287.296 461.858C286.562 462.317 285.71 462.554 284.844 462.541C284.076 462.562 283.318 462.362 282.66 461.966C282.063 461.597 281.598 461.05 281.33 460.403V467.665H277.936V451.361H281.33V453.359C281.598 452.712 282.063 452.165 282.661 451.796C283.318 451.4 284.076 451.201 284.844 451.222ZM283.752 454.19C283.425 454.179 283.099 454.238 282.796 454.363C282.493 454.487 282.22 454.675 281.995 454.912C281.539 455.394 281.31 456.05 281.31 456.881C281.274 457.598 281.52 458.301 281.995 458.84C282.219 459.08 282.491 459.27 282.794 459.397C283.097 459.523 283.424 459.583 283.752 459.573C284.079 459.586 284.405 459.529 284.708 459.407C285.011 459.284 285.284 459.097 285.509 458.86C285.953 458.385 286.174 457.726 286.174 456.881C286.174 456.037 285.953 455.378 285.509 454.903C285.285 454.666 285.012 454.479 284.708 454.356C284.405 454.233 284.079 454.177 283.752 454.19ZM296.577 451.222C297.601 451.204 298.613 451.439 299.525 451.904C300.382 452.351 301.092 453.034 301.569 453.873C302.081 454.792 302.338 455.83 302.314 456.881C302.339 457.932 302.082 458.97 301.57 459.889C301.093 460.728 300.383 461.412 299.526 461.858C298.614 462.324 297.602 462.558 296.578 462.541C295.551 462.558 294.535 462.323 293.62 461.858C292.758 461.414 292.044 460.73 291.565 459.889C291.053 458.97 290.796 457.932 290.82 456.881C290.795 455.831 291.052 454.793 291.564 453.874C292.043 453.033 292.757 452.349 293.619 451.905C294.534 451.44 295.55 451.205 296.577 451.222ZM296.577 454.15C296.27 454.145 295.964 454.204 295.682 454.326C295.4 454.447 295.146 454.626 294.939 454.853C294.496 455.321 294.274 455.997 294.274 456.881C294.274 457.765 294.496 458.438 294.939 458.9C295.148 459.123 295.402 459.301 295.684 459.42C295.966 459.54 296.27 459.598 296.577 459.592C296.882 459.599 297.185 459.54 297.466 459.421C297.747 459.302 297.999 459.124 298.205 458.9C298.642 458.438 298.86 457.765 298.86 456.881C298.86 455.997 298.642 455.321 298.205 454.853C298 454.626 297.749 454.446 297.468 454.325C297.187 454.204 296.883 454.144 296.577 454.15ZM307.476 444.908V462.402H304.081V444.909L307.476 444.908ZM312.379 451.359L315.04 458.128L317.521 451.36H321.273L314.365 467.666H310.633L313.233 461.987L308.588 451.361L312.379 451.359ZM326.614 451.222C327.382 451.201 328.14 451.4 328.797 451.796C329.397 452.168 329.868 452.714 330.147 453.36V451.361H333.522V462.343C333.537 463.303 333.333 464.253 332.926 465.123C332.53 465.948 331.893 466.634 331.1 467.092C330.279 467.58 329.26 467.825 328.043 467.825C326.375 467.825 325.042 467.432 324.043 466.647C323.043 465.861 322.396 464.712 322.246 463.451H325.601C325.695 463.882 325.955 464.259 326.325 464.5C326.77 464.769 327.285 464.9 327.804 464.876C328.428 464.905 329.037 464.688 329.502 464.273C329.932 463.87 330.147 463.227 330.147 462.343V460.404C329.868 461.05 329.397 461.596 328.797 461.967C328.14 462.363 327.382 462.563 326.613 462.542C325.747 462.555 324.896 462.318 324.161 461.859C323.417 461.377 322.825 460.695 322.454 459.89C322.019 458.948 321.805 457.919 321.829 456.883C321.803 455.842 322.017 454.81 322.454 453.865C322.827 453.065 323.419 452.386 324.161 451.906C324.895 451.447 325.747 451.209 326.614 451.222ZM327.705 454.19C327.379 454.176 327.053 454.233 326.749 454.356C326.446 454.479 326.173 454.665 325.949 454.902C325.505 455.377 325.284 456.037 325.284 456.881C325.284 457.725 325.505 458.385 325.949 458.86C326.173 459.097 326.446 459.283 326.749 459.406C327.053 459.529 327.379 459.586 327.705 459.572C328.034 459.583 328.361 459.523 328.664 459.396C328.967 459.27 329.239 459.08 329.462 458.84C329.938 458.301 330.183 457.598 330.147 456.881C330.147 456.05 329.919 455.394 329.462 454.912C329.238 454.675 328.965 454.487 328.662 454.363C328.359 454.238 328.033 454.179 327.705 454.19ZM341.046 451.222C342.07 451.204 343.083 451.439 343.994 451.904C344.852 452.351 345.562 453.034 346.039 453.873C346.551 454.792 346.808 455.83 346.783 456.881C346.808 457.932 346.551 458.97 346.039 459.889C345.562 460.728 344.852 461.412 343.994 461.858C343.083 462.324 342.071 462.558 341.047 462.541C340.02 462.558 339.004 462.323 338.089 461.858C337.227 461.414 336.513 460.73 336.034 459.889C335.522 458.97 335.265 457.932 335.289 456.881C335.265 455.831 335.522 454.793 336.034 453.874C336.513 453.033 337.227 452.349 338.089 451.905C339.004 451.44 340.019 451.205 341.046 451.222ZM341.046 454.15C340.739 454.145 340.434 454.204 340.151 454.326C339.869 454.447 339.616 454.626 339.408 454.853C338.965 455.321 338.743 455.997 338.743 456.881C338.743 457.765 338.965 458.438 339.408 458.9C339.617 459.123 339.871 459.301 340.153 459.42C340.435 459.54 340.74 459.598 341.046 459.592C341.351 459.599 341.654 459.54 341.935 459.421C342.216 459.302 342.468 459.124 342.674 458.9C343.111 458.438 343.329 457.765 343.329 456.881C343.329 455.997 343.111 455.321 342.674 454.853C342.469 454.626 342.218 454.446 341.937 454.325C341.656 454.204 341.352 454.144 341.046 454.15ZM355.578 451.242C356.849 451.242 357.859 451.664 358.606 452.508C359.354 453.352 359.727 454.513 359.727 455.991V462.402H356.333V456.387C356.333 455.649 356.138 455.071 355.747 454.655C355.547 454.446 355.304 454.283 355.035 454.175C354.766 454.068 354.477 454.019 354.188 454.032C353.883 454.017 353.58 454.068 353.297 454.18C353.015 454.293 352.76 454.465 352.55 454.685C352.147 455.12 351.945 455.74 351.945 456.544V462.402H348.551V451.361H351.945V453.379C352.253 452.73 352.747 452.186 353.365 451.816C354.034 451.422 354.801 451.223 355.578 451.242Z" fill="#001A34"/>
  <g filter="url(#filter2_d)">
    <circle cx="202" cy="300" r="15" fill="white"/>
    <circle cx="202" cy="300" r="14.5" stroke="#EAF1F3"/>
  </g>
  <path d="M210.304 297.328V304.8L201.994 309.598L193.678 304.8V295.201L201.994 290.399L208.381 294.088L209.345 293.532L201.994 289.286L192.714 294.644V305.356L201.994 310.715L211.273 305.356V296.772L210.304 297.328Z" fill="url(#paint6_linear)"/>
  <path d="M199.667 304.805H198.276V300.142H202.912C203.35 300.137 203.769 299.96 204.078 299.648C204.387 299.337 204.561 298.916 204.562 298.478C204.564 298.261 204.522 298.046 204.439 297.846C204.355 297.646 204.231 297.465 204.075 297.314C203.924 297.159 203.743 297.036 203.543 296.952C203.343 296.868 203.128 296.826 202.912 296.828H198.276V295.409H202.916C203.729 295.414 204.506 295.739 205.081 296.313C205.655 296.888 205.98 297.665 205.985 298.478C205.99 299.099 205.8 299.707 205.442 300.216C205.113 300.703 204.649 301.083 204.107 301.31C203.571 301.48 203.011 301.564 202.448 301.56H199.667V304.805Z" fill="url(#paint7_linear)"/>
  <path d="M205.952 304.689H204.33L203.078 302.506C203.573 302.475 204.062 302.375 204.529 302.209L205.952 304.689Z" fill="url(#paint8_linear)"/>
  <path d="M209.336 295.775L210.295 296.308L211.255 295.775V294.649L210.295 294.093L209.336 294.649V295.775Z" fill="url(#paint9_linear)"/>
  <path d="M234.294 303.784C234.318 303.784 234.33 303.82 234.33 303.892C234.33 303.964 234.318 304 234.294 304H231.972C231.672 304 231.108 303.49 230.28 302.47C229.464 301.438 228.468 300.004 227.292 298.168C227.004 298.252 226.68 298.294 226.32 298.294C226.092 298.294 225.822 298.282 225.51 298.258V302.542C225.51 302.914 225.546 303.184 225.618 303.352C225.69 303.52 225.828 303.634 226.032 303.694C226.248 303.754 226.584 303.784 227.04 303.784C227.076 303.784 227.094 303.82 227.094 303.892C227.094 303.964 227.076 304 227.04 304C226.668 304 226.374 303.994 226.158 303.982L224.916 303.964L223.692 303.982C223.476 303.994 223.17 304 222.774 304C222.75 304 222.738 303.964 222.738 303.892C222.738 303.82 222.75 303.784 222.774 303.784C223.23 303.784 223.566 303.754 223.782 303.694C223.998 303.622 224.148 303.502 224.232 303.334C224.316 303.166 224.358 302.902 224.358 302.542V294.208C224.358 293.848 224.316 293.584 224.232 293.416C224.16 293.248 224.016 293.134 223.8 293.074C223.596 293.002 223.266 292.966 222.81 292.966C222.774 292.966 222.756 292.93 222.756 292.858C222.756 292.786 222.774 292.75 222.81 292.75L223.692 292.768C224.196 292.792 224.604 292.804 224.916 292.804C225.132 292.804 225.336 292.798 225.528 292.786C225.72 292.774 225.888 292.762 226.032 292.75C226.416 292.714 226.764 292.696 227.076 292.696C228.048 292.696 228.798 292.894 229.326 293.29C229.854 293.686 230.118 294.238 230.118 294.946C230.118 295.522 229.95 296.068 229.614 296.584C229.278 297.088 228.834 297.49 228.282 297.79C229.302 299.314 230.16 300.508 230.856 301.372C231.552 302.224 232.17 302.842 232.71 303.226C233.25 303.598 233.778 303.784 234.294 303.784ZM225.51 297.808C225.81 297.856 226.164 297.88 226.572 297.88C227.4 297.88 227.994 297.706 228.354 297.358C228.714 296.998 228.894 296.404 228.894 295.576C228.894 293.836 228.162 292.966 226.698 292.966C226.374 292.966 226.128 292.996 225.96 293.056C225.804 293.104 225.69 293.218 225.618 293.398C225.546 293.566 225.51 293.848 225.51 294.244V297.808ZM241.581 303.028C241.629 303.028 241.659 303.058 241.671 303.118C241.683 303.166 241.665 303.202 241.617 303.226L239.763 304.108C239.715 304.132 239.667 304.144 239.619 304.144C239.463 304.144 239.325 304.042 239.205 303.838C239.085 303.634 239.007 303.352 238.971 302.992L237.855 303.586C237.483 303.778 237.177 303.916 236.937 304C236.697 304.084 236.463 304.126 236.235 304.126C235.863 304.126 235.575 304.03 235.371 303.838C235.179 303.634 235.083 303.382 235.083 303.082C235.083 302.758 235.203 302.5 235.443 302.308C235.695 302.104 236.139 301.894 236.775 301.678L238.953 300.904V299.41C238.953 298.618 238.851 298.066 238.647 297.754C238.443 297.43 238.161 297.268 237.801 297.268C237.393 297.268 237.075 297.412 236.847 297.7C236.619 297.988 236.481 298.336 236.433 298.744C236.385 299.2 236.163 299.428 235.767 299.428C235.575 299.428 235.425 299.38 235.317 299.284C235.209 299.188 235.155 299.056 235.155 298.888C235.155 298.612 235.335 298.318 235.695 298.006C236.055 297.694 236.487 297.43 236.991 297.214C237.507 296.998 237.969 296.89 238.377 296.89C238.857 296.89 239.241 297.058 239.529 297.394C239.817 297.718 239.961 298.21 239.961 298.87V302.056C239.961 302.476 240.015 302.782 240.123 302.974C240.231 303.166 240.411 303.262 240.663 303.262C240.891 303.262 241.185 303.184 241.545 303.028H241.581ZM238.953 302.74V302.632V301.12L237.099 301.822C236.823 301.93 236.625 302.05 236.505 302.182C236.397 302.314 236.343 302.482 236.343 302.686C236.343 302.938 236.415 303.136 236.559 303.28C236.703 303.412 236.889 303.478 237.117 303.478C237.345 303.478 237.591 303.418 237.855 303.298L238.953 302.74ZM249.217 297.052C249.253 297.052 249.271 297.088 249.271 297.16C249.271 297.232 249.253 297.268 249.217 297.268C248.917 297.268 248.659 297.376 248.443 297.592C248.227 297.808 248.023 298.162 247.831 298.654L245.635 304.504C245.191 305.668 244.771 306.574 244.375 307.222C243.991 307.882 243.589 308.35 243.169 308.626C242.761 308.914 242.287 309.058 241.747 309.058C241.483 309.058 241.267 308.998 241.099 308.878C240.919 308.758 240.829 308.584 240.829 308.356C240.829 308.188 240.883 308.056 240.991 307.96C241.099 307.864 241.231 307.816 241.387 307.816C241.543 307.816 241.675 307.834 241.783 307.87C241.891 307.906 242.005 307.966 242.125 308.05C242.149 308.062 242.215 308.098 242.323 308.158C242.443 308.218 242.587 308.248 242.755 308.248C243.043 308.248 243.313 308.122 243.565 307.87C243.829 307.618 244.105 307.192 244.393 306.592C244.693 306.004 245.041 305.188 245.437 304.144L242.701 298.546C242.425 298.018 242.215 297.676 242.071 297.52C241.927 297.352 241.741 297.268 241.513 297.268C241.489 297.268 241.477 297.232 241.477 297.16C241.477 297.088 241.489 297.052 241.513 297.052L242.125 297.07C242.269 297.082 242.467 297.088 242.719 297.088L243.871 297.07C244.039 297.058 244.273 297.052 244.573 297.052C244.597 297.052 244.609 297.088 244.609 297.16C244.609 297.232 244.597 297.268 244.573 297.268C243.877 297.268 243.529 297.406 243.529 297.682C243.529 297.754 243.559 297.85 243.619 297.97L245.995 302.848L247.435 298.708C247.531 298.42 247.579 298.192 247.579 298.024C247.579 297.748 247.471 297.556 247.255 297.448C247.039 297.328 246.685 297.268 246.193 297.268C246.169 297.268 246.157 297.232 246.157 297.16C246.157 297.088 246.169 297.052 246.193 297.052C246.517 297.052 246.763 297.058 246.931 297.07L248.011 297.088L248.659 297.07C248.779 297.058 248.965 297.052 249.217 297.052Z" fill="#001A34"/>
  <g filter="url(#filter3_d)">
    <circle cx="200" cy="410" r="15" fill="white"/>
    <circle cx="200" cy="410" r="14.5" stroke="#EAF1F3"/>
  </g>
  <path d="M190.723 404.654L200.002 399.297L200.001 410.011L190.723 415.369L190.723 404.654Z" fill="#118AB2"/>
  <path d="M200.003 399.286L209.282 404.643L206.189 406.429L196.91 401.072L200.003 399.286Z" fill="#00F8B7"/>
  <path d="M206.182 406.426L206.182 409.997L196.903 404.64L196.903 401.068L206.182 406.426Z" fill="#09BD8E"/>
  <path d="M196.897 404.645L206.176 410.001L203.083 411.787L193.804 406.43L196.897 404.645Z" fill="#FFE3A3"/>
  <path d="M203.12 411.806L203.121 415.377L193.842 410.02L193.842 406.448L203.12 411.806Z" fill="#FFBB1D"/>
  <path d="M193.814 410.003L203.093 415.36L200 417.145L190.721 411.789L193.814 410.003Z" fill="#FF965E"/>
  <path d="M199.993 417.142L199.993 420.713L190.714 415.356L190.714 411.784L199.993 417.142Z" fill="#D94C00"/>
  <path d="M206.186 406.427L209.279 404.641L209.278 415.355L206.186 417.141L206.186 406.427Z" fill="#06D6A0"/>
  <path d="M203.086 411.785L206.179 409.999L206.179 417.142L203.086 418.928L203.086 411.785Z" fill="#FFD166"/>
  <path d="M199.987 417.143L203.08 415.357L203.08 418.929L199.987 420.715L199.987 417.143Z" fill="#F3722C"/>
  <path d="M222.61 404.856C222.61 405.324 222.724 405.732 222.952 406.08C223.18 406.428 223.456 406.722 223.78 406.962C224.104 407.19 224.56 407.484 225.148 407.844C225.772 408.216 226.258 408.528 226.606 408.78C226.954 409.032 227.248 409.356 227.488 409.752C227.74 410.136 227.866 410.598 227.866 411.138C227.866 411.714 227.722 412.236 227.434 412.704C227.146 413.172 226.72 413.544 226.156 413.82C225.604 414.084 224.938 414.216 224.158 414.216C223.234 414.216 222.388 414.006 221.62 413.586C221.56 413.55 221.518 413.508 221.494 413.46C221.482 413.412 221.47 413.34 221.458 413.244L221.224 410.796C221.212 410.748 221.236 410.718 221.296 410.706C221.368 410.694 221.41 410.712 221.422 410.76C221.614 411.624 221.968 412.368 222.484 412.992C223.012 413.616 223.708 413.928 224.572 413.928C225.172 413.928 225.676 413.766 226.084 413.442C226.504 413.106 226.714 412.578 226.714 411.858C226.714 411.318 226.594 410.85 226.354 410.454C226.114 410.058 225.82 409.734 225.472 409.482C225.136 409.218 224.674 408.912 224.086 408.564C223.51 408.216 223.054 407.916 222.718 407.664C222.394 407.412 222.118 407.094 221.89 406.71C221.662 406.326 221.548 405.876 221.548 405.36C221.548 404.76 221.704 404.25 222.016 403.83C222.34 403.398 222.754 403.08 223.258 402.876C223.774 402.66 224.32 402.552 224.896 402.552C225.604 402.552 226.306 402.696 227.002 402.984C227.182 403.044 227.272 403.146 227.272 403.29L227.398 405.36C227.398 405.408 227.368 405.432 227.308 405.432C227.248 405.432 227.212 405.408 227.2 405.36C227.104 404.736 226.846 404.16 226.426 403.632C226.006 403.092 225.4 402.822 224.608 402.822C223.936 402.822 223.432 403.02 223.096 403.416C222.772 403.8 222.61 404.28 222.61 404.856ZM234.44 413.064C234.488 413.064 234.524 413.094 234.548 413.154C234.572 413.202 234.566 413.238 234.53 413.262C234.086 413.61 233.684 413.856 233.324 414C232.976 414.144 232.61 414.216 232.226 414.216C231.722 414.216 231.308 414.102 230.984 413.874C230.66 413.646 230.498 413.268 230.498 412.74V408.51C230.498 408.198 230.474 407.976 230.426 407.844C230.39 407.712 230.312 407.628 230.192 407.592C230.072 407.544 229.868 407.52 229.58 407.52C229.532 407.52 229.508 407.484 229.508 407.412C229.508 407.328 229.532 407.286 229.58 407.286C230.06 407.274 230.45 407.148 230.75 406.908C231.05 406.656 231.224 406.326 231.272 405.918C231.272 405.882 231.32 405.864 231.416 405.864C231.5 405.864 231.542 405.882 231.542 405.918V407.25C232.142 407.238 232.976 407.178 234.044 407.07C234.068 407.07 234.092 407.118 234.116 407.214C234.152 407.298 234.17 407.394 234.17 407.502C234.17 407.598 234.146 407.7 234.098 407.808C234.062 407.904 234.02 407.946 233.972 407.934C233.312 407.766 232.502 407.67 231.542 407.646V412.128C231.542 412.62 231.662 412.986 231.902 413.226C232.154 413.466 232.508 413.586 232.964 413.586C233.516 413.586 233.996 413.418 234.404 413.082L234.44 413.064ZM241.476 412.992C241.512 412.992 241.542 413.016 241.566 413.064C241.602 413.1 241.608 413.136 241.584 413.172C240.768 413.868 239.892 414.216 238.956 414.216C238.248 414.216 237.636 414.054 237.12 413.73C236.604 413.406 236.214 412.986 235.95 412.47C235.698 411.942 235.572 411.372 235.572 410.76C235.572 410.04 235.74 409.386 236.076 408.798C236.424 408.21 236.892 407.748 237.48 407.412C238.068 407.064 238.722 406.89 239.442 406.89C240.09 406.89 240.594 407.052 240.954 407.376C241.314 407.688 241.494 408.12 241.494 408.672C241.494 408.816 241.476 408.924 241.44 408.996C241.416 409.056 241.362 409.086 241.278 409.086L236.85 409.122C236.79 409.446 236.76 409.758 236.76 410.058C236.76 411.102 237.012 411.954 237.516 412.614C238.02 413.262 238.716 413.586 239.604 413.586C240.288 413.586 240.906 413.388 241.458 412.992H241.476ZM238.83 407.25C238.338 407.25 237.924 407.394 237.588 407.682C237.264 407.958 237.036 408.354 236.904 408.87L240.252 408.798C240.252 408.306 240.12 407.928 239.856 407.664C239.604 407.388 239.262 407.25 238.83 407.25ZM248.013 406.818C248.505 406.818 248.961 406.95 249.381 407.214C249.801 407.478 250.137 407.862 250.389 408.366C250.641 408.87 250.767 409.458 250.767 410.13C250.767 411.03 250.563 411.792 250.155 412.416C249.747 413.028 249.243 413.484 248.643 413.784C248.055 414.084 247.473 414.234 246.897 414.234C246.525 414.234 246.189 414.198 245.889 414.126C245.601 414.054 245.301 413.934 244.989 413.766V417.492C244.989 417.852 245.031 418.116 245.115 418.284C245.211 418.452 245.385 418.566 245.637 418.626C245.889 418.698 246.273 418.734 246.789 418.734C246.813 418.734 246.825 418.77 246.825 418.842C246.825 418.914 246.813 418.95 246.789 418.95C246.381 418.95 246.057 418.944 245.817 418.932L244.503 418.914L243.513 418.932C243.345 418.944 243.123 418.95 242.847 418.95C242.811 418.95 242.793 418.914 242.793 418.842C242.793 418.77 242.811 418.734 242.847 418.734C243.171 418.734 243.411 418.698 243.567 418.626C243.723 418.566 243.831 418.452 243.891 418.284C243.951 418.116 243.981 417.852 243.981 417.492V409.032C243.981 408.6 243.933 408.294 243.837 408.114C243.741 407.922 243.573 407.826 243.333 407.826C243.069 407.826 242.751 407.91 242.379 408.078L242.343 408.096C242.295 408.096 242.265 408.066 242.253 408.006C242.229 407.946 242.235 407.904 242.271 407.88L244.269 406.926C244.293 406.914 244.335 406.908 244.395 406.908C244.563 406.908 244.701 407.034 244.809 407.286C244.917 407.538 244.977 407.898 244.989 408.366C246.009 407.334 247.017 406.818 248.013 406.818ZM247.437 413.856C248.073 413.856 248.595 413.58 249.003 413.028C249.411 412.464 249.615 411.684 249.615 410.688C249.615 409.68 249.393 408.9 248.949 408.348C248.505 407.784 247.941 407.502 247.257 407.502C246.837 407.502 246.447 407.604 246.087 407.808C245.727 408.012 245.361 408.3 244.989 408.672V412.722C245.313 413.094 245.667 413.376 246.051 413.568C246.435 413.76 246.897 413.856 247.437 413.856Z" fill="#001A34"/>
  <defs>
    <filter id="filter0_d" x="34" y="294.851" width="372.176" height="105.269" filterUnits="userSpaceOnUse" color-interpolation-filters="sRGB">
      <feFlood flood-opacity="0" result="BackgroundImageFix"/>
      <feColorMatrix in="SourceAlpha" type="matrix" values="0 0 0 0 0 0 0 0 0 0 0 0 0 0 0 0 0 0 127 0" result="hardAlpha"/>
      <feOffset dy="1"/>
      <feGaussianBlur stdDeviation="12.5"/>
      <feColorMatrix type="matrix" values="0 0 0 0 0.88667 0 0 0 0 0.944027 0 0 0 0 0.963145 0 0 0 1 0"/>
      <feBlend mode="normal" in2="BackgroundImageFix" result="effect1_dropShadow"/>
      <feBlend mode="normal" in="SourceGraphic" in2="effect1_dropShadow" result="shape"/>
    </filter>
    <filter id="filter1_d" x="34" y="404.731" width="372.176" height="105.269" filterUnits="userSpaceOnUse" color-interpolation-filters="sRGB">
      <feFlood flood-opacity="0" result="BackgroundImageFix"/>
      <feColorMatrix in="SourceAlpha" type="matrix" values="0 0 0 0 0 0 0 0 0 0 0 0 0 0 0 0 0 0 127 0" result="hardAlpha"/>
      <feOffset dy="1"/>
      <feGaussianBlur stdDeviation="12.5"/>
      <feColorMatrix type="matrix" values="0 0 0 0 0.88667 0 0 0 0 0.944027 0 0 0 0 0.963145 0 0 0 1 0"/>
      <feBlend mode="normal" in2="BackgroundImageFix" result="effect1_dropShadow"/>
      <feBlend mode="normal" in="SourceGraphic" in2="effect1_dropShadow" result="shape"/>
    </filter>
    <filter id="filter2_d" x="162" y="261" width="80" height="80" filterUnits="userSpaceOnUse" color-interpolation-filters="sRGB">
      <feFlood flood-opacity="0" result="BackgroundImageFix"/>
      <feColorMatrix in="SourceAlpha" type="matrix" values="0 0 0 0 0 0 0 0 0 0 0 0 0 0 0 0 0 0 127 0" result="hardAlpha"/>
      <feOffset dy="1"/>
      <feGaussianBlur stdDeviation="12.5"/>
      <feColorMatrix type="matrix" values="0 0 0 0 0.88667 0 0 0 0 0.944027 0 0 0 0 0.963145 0 0 0 1 0"/>
      <feBlend mode="normal" in2="BackgroundImageFix" result="effect1_dropShadow"/>
      <feBlend mode="normal" in="SourceGraphic" in2="effect1_dropShadow" result="shape"/>
    </filter>
    <filter id="filter3_d" x="160" y="371" width="80" height="80" filterUnits="userSpaceOnUse" color-interpolation-filters="sRGB">
      <feFlood flood-opacity="0" result="BackgroundImageFix"/>
      <feColorMatrix in="SourceAlpha" type="matrix" values="0 0 0 0 0 0 0 0 0 0 0 0 0 0 0 0 0 0 127 0" result="hardAlpha"/>
      <feOffset dy="1"/>
      <feGaussianBlur stdDeviation="12.5"/>
      <feColorMatrix type="matrix" values="0 0 0 0 0.88667 0 0 0 0 0.944027 0 0 0 0 0.963145 0 0 0 1 0"/>
      <feBlend mode="normal" in2="BackgroundImageFix" result="effect1_dropShadow"/>
      <feBlend mode="normal" in="SourceGraphic" in2="effect1_dropShadow" result="shape"/>
    </filter>
    <linearGradient id="paint0_linear" x1="110.135" y1="353.001" x2="106.907" y2="359.504" gradientUnits="userSpaceOnUse">
      <stop stop-color="#00FFA3"/>
      <stop offset="1" stop-color="#DC1FFF"/>
    </linearGradient>
    <linearGradient id="paint1_linear" x1="110.135" y1="338.518" x2="106.907" y2="345.021" gradientUnits="userSpaceOnUse">
      <stop stop-color="#00FFA3"/>
      <stop offset="1" stop-color="#DC1FFF"/>
    </linearGradient>
    <linearGradient id="paint2_linear" x1="110.135" y1="345.898" x2="106.907" y2="352.401" gradientUnits="userSpaceOnUse">
      <stop stop-color="#00FFA3"/>
      <stop offset="1" stop-color="#DC1FFF"/>
    </linearGradient>
    <linearGradient id="paint3_linear" x1="110.135" y1="461.534" x2="106.907" y2="468.037" gradientUnits="userSpaceOnUse">
      <stop stop-color="#00FFA3"/>
      <stop offset="1" stop-color="#DC1FFF"/>
    </linearGradient>
    <linearGradient id="paint4_linear" x1="110.135" y1="447.051" x2="106.907" y2="453.554" gradientUnits="userSpaceOnUse">
      <stop stop-color="#00FFA3"/>
      <stop offset="1" stop-color="#DC1FFF"/>
    </linearGradient>
    <linearGradient id="paint5_linear" x1="110.135" y1="454.431" x2="106.907" y2="460.934" gradientUnits="userSpaceOnUse">
      <stop stop-color="#00FFA3"/>
      <stop offset="1" stop-color="#DC1FFF"/>
    </linearGradient>
    <linearGradient id="paint6_linear" x1="211.257" y1="294.65" x2="191.579" y2="302.52" gradientUnits="userSpaceOnUse">
      <stop stop-color="#C200FB"/>
      <stop offset="0.489658" stop-color="#3772FF"/>
      <stop offset="0.489758" stop-color="#3773FE"/>
      <stop offset="1" stop-color="#5AC4BE"/>
    </linearGradient>
    <linearGradient id="paint7_linear" x1="211.257" y1="294.65" x2="191.579" y2="302.519" gradientUnits="userSpaceOnUse">
      <stop stop-color="#C200FB"/>
      <stop offset="0.489658" stop-color="#3772FF"/>
      <stop offset="0.489758" stop-color="#3773FE"/>
      <stop offset="1" stop-color="#5AC4BE"/>
    </linearGradient>
    <linearGradient id="paint8_linear" x1="211.257" y1="294.65" x2="191.579" y2="302.519" gradientUnits="userSpaceOnUse">
      <stop stop-color="#C200FB"/>
      <stop offset="0.489658" stop-color="#3772FF"/>
      <stop offset="0.489758" stop-color="#3773FE"/>
      <stop offset="1" stop-color="#5AC4BE"/>
    </linearGradient>
    <linearGradient id="paint9_linear" x1="211.257" y1="294.65" x2="191.579" y2="302.519" gradientUnits="userSpaceOnUse">
      <stop stop-color="#C200FB"/>
      <stop offset="0.489658" stop-color="#3772FF"/>
      <stop offset="0.489758" stop-color="#3773FE"/>
      <stop offset="1" stop-color="#5AC4BE"/>
    </linearGradient>
    <clipPath id="clip0">
      <rect width="104.261" height="20.2203" fill="white" transform="translate(92.7002 336.375)"/>
    </clipPath>
    <clipPath id="clip1">
      <rect width="104.261" height="20.2203" fill="white" transform="translate(92.7002 444.908)"/>
    </clipPath>
  </defs>
</svg>
