<svg width="421" height="421" viewBox="0 0 421 421" fill="none" xmlns="http://www.w3.org/2000/svg">
  <path d="M195.598 5V16.36L186.578 5H185.358V19H186.838V7.64L195.838 19H197.058V5H195.598ZM207.748 19.12C211.948 19.12 215.088 16.1 215.088 12C215.088 7.9 211.948 4.88 207.748 4.88C203.508 4.88 200.388 7.92 200.388 12C200.388 16.08 203.508 19.12 207.748 19.12ZM207.748 17.8C204.368 17.8 201.848 15.34 201.848 12C201.848 8.66 204.368 6.2 207.748 6.2C211.108 6.2 213.608 8.66 213.608 12C213.608 15.34 211.108 17.8 207.748 17.8ZM235.775 5L231.675 17.1L227.555 5H226.175L221.995 17.04L217.955 5H216.435L221.155 19H222.695L226.815 7.06L230.915 19H232.475L237.195 5H235.775Z" fill="#FF0097"/>
  <path d="M352.187 55.5539C352.187 50.8068 348.34 46.9541 343.587 46.9541H77.8683C73.1212 46.9541 69.2686 50.8018 69.2686 55.5539V233.126H352.187V55.5539V55.5539Z" fill="url(#paint0_linear)" fill-opacity="0.45"/>
  <path d="M352.188 234.076C352.717 234.076 353.142 233.646 353.142 233.122V55.5542C353.142 50.2874 348.855 46 343.588 46H77.8687C72.6019 46 68.3145 50.2874 68.3145 55.5542V233.127C68.3145 233.656 68.7442 234.081 69.2689 234.081H352.188V234.076ZM70.2233 55.5542C70.2233 51.3418 73.6512 47.9088 77.8687 47.9088H343.588C347.8 47.9088 351.233 51.3368 351.233 55.5542V232.172H70.2233V55.5542Z" fill="url(#paint1_linear)" fill-opacity="0.45"/>
  <path d="M346.355 239.993C353.306 239.993 378.501 239.248 378.501 232.297V227.53C378.501 226.136 377.372 225.007 375.977 225.007H45.4776C44.0834 225.007 42.9541 226.136 42.9541 227.53V232.297C42.9541 239.248 68.1488 239.993 75.0996 239.993H346.355Z" fill="url(#paint2_linear)" fill-opacity="0.45"/>
  <path d="M75.1 240.947H346.356C348.08 240.947 357.079 240.887 365.174 239.692C374.783 238.278 379.456 235.855 379.456 232.292V227.525C379.456 225.606 377.897 224.047 375.978 224.047H45.4779C43.5591 224.047 42 225.606 42 227.525V232.292C42 235.855 46.6722 238.278 56.2813 239.692C64.3764 240.887 73.381 240.947 75.1 240.947ZM43.9088 232.297V227.53C43.9088 226.665 44.6134 225.966 45.4729 225.966H375.978C376.842 225.966 377.542 226.67 377.542 227.53V232.297C377.542 236.724 361.851 239.038 346.351 239.038H75.1C59.5993 239.038 43.9088 236.724 43.9088 232.297Z" fill="url(#paint3_linear)" fill-opacity="0.45"/>
  <g opacity="0.87">
    <path d="M338.105 60.3311H83.3496V213.768H338.105V60.3311Z" fill="white"/>
    <path d="M338.106 214.728C338.635 214.728 339.06 214.298 339.06 213.773V60.3314C339.06 59.8017 338.63 59.377 338.106 59.377H83.3499C82.8203 59.377 82.3955 59.8067 82.3955 60.3314V213.768C82.3955 214.298 82.8252 214.723 83.3499 214.723H338.106V214.728ZM84.3044 61.2858H337.146V212.814H84.3044V61.2858Z" fill="white"/>
  </g>
  <g opacity="0.87">
    <path d="M337.231 59.4922H82.4756V212.929H337.231V59.4922Z" fill="url(#paint4_linear)" fill-opacity="0.45"/>
    <path d="M338.186 214.843C338.715 214.843 339.14 214.413 339.14 213.889V60.4466C339.14 59.9169 338.71 59.4922 338.186 59.4922H83.43C82.9003 59.4922 82.4756 59.9219 82.4756 60.4466V213.884C82.4756 214.413 82.9053 214.838 83.43 214.838H338.186V214.843ZM84.3844 61.401H337.226V212.929H84.3844V61.401Z" fill="#FF0097"/>
  </g>
  <g opacity="0.87">
    <path d="M377.702 234.516C378.232 234.516 378.656 234.087 378.656 233.562C378.656 233.032 378.227 232.607 377.702 232.607H43.7542C43.2245 232.607 42.7998 233.037 42.7998 233.562C42.7998 234.092 43.2295 234.516 43.7542 234.516H377.702Z" fill="#FF0097"/>
  </g>
  <path d="M176.769 224.052C176.239 224.052 175.814 224.481 175.814 225.006V226.056C175.814 228.329 177.663 230.183 179.942 230.183H241.52C243.793 230.183 245.647 228.334 245.647 226.056V225.006C245.647 224.476 245.217 224.052 244.693 224.052C244.163 224.052 243.738 224.481 243.738 225.006V226.056C243.738 227.28 242.744 228.274 241.52 228.274H179.937C178.713 228.274 177.718 227.28 177.718 226.056V225.006C177.723 224.481 177.294 224.052 176.769 224.052Z" fill="#FF0097"/>
  <path d="M210.728 55.1492C211.573 55.1492 212.262 54.4646 212.262 53.6151C212.262 52.7706 211.578 52.0811 210.728 52.0811C209.884 52.0811 209.194 52.7656 209.194 53.6151C209.194 54.4646 209.884 55.1492 210.728 55.1492Z" fill="#FF0097"/>
  <path d="M213.027 53.615C213.027 52.3458 211.998 51.3164 210.728 51.3164C209.459 51.3164 208.43 52.3458 208.43 53.615C208.43 54.8793 209.459 55.9136 210.728 55.9136C211.998 55.9136 213.027 54.8842 213.027 53.615ZM209.959 53.615C209.959 53.1903 210.304 52.8455 210.728 52.8455C211.153 52.8455 211.498 53.1903 211.498 53.615C211.498 54.0398 211.153 54.3845 210.728 54.3845C210.304 54.3845 209.959 54.0398 209.959 53.615Z" fill="#FF0097"/>
  <g filter="url(#filter0_d)">
    <circle cx="212.57" cy="136.97" r="25.1794" fill="white"/>
    <circle cx="212.57" cy="136.97" r="24.6794" stroke="#EAF1F3"/>
  </g>
  <path d="M200.387 136.159L209.727 144.687L225.566 128.849" stroke="#73979C" stroke-width="2"/>
  <path d="M78.4961 282H79.9761V269.28H84.8961V268H73.5761V269.28H78.4961V282ZM90.1667 282.1C93.2467 282.1 95.5067 279.86 95.5067 276.74C95.5067 273.62 93.2467 271.4 90.1667 271.4C87.0867 271.4 84.8067 273.62 84.8067 276.74C84.8067 279.86 87.0867 282.1 90.1667 282.1ZM90.1667 280.84C87.9267 280.84 86.2467 279.2 86.2467 276.74C86.2467 274.28 87.9267 272.64 90.1667 272.64C92.4067 272.64 94.0667 274.28 94.0667 276.74C94.0667 279.2 92.4067 280.84 90.1667 280.84ZM106.546 282H108.286L103.366 275.78L107.866 271.48H106.106L99.8258 277.22V267.16H98.4058V282H99.8258V279L102.306 276.72L106.546 282ZM119.168 276.74C119.168 273.58 117.028 271.4 114.068 271.4C111.108 271.4 108.928 273.62 108.928 276.74C108.928 279.86 111.168 282.1 114.448 282.1C116.108 282.1 117.568 281.5 118.508 280.38L117.708 279.46C116.908 280.38 115.768 280.84 114.488 280.84C112.188 280.84 110.508 279.38 110.348 277.18H119.148C119.148 277.02 119.168 276.86 119.168 276.74ZM114.068 272.62C116.128 272.62 117.628 274.06 117.808 276.12H110.348C110.528 274.06 112.028 272.62 114.068 272.62ZM127.418 271.4C125.598 271.4 124.178 272.14 123.418 273.42V271.48H122.058V282H123.478V276.48C123.478 274.08 124.898 272.68 127.158 272.68C129.158 272.68 130.318 273.82 130.318 276.04V282H131.738V275.9C131.738 272.88 129.978 271.4 127.418 271.4ZM202.077 271.48L198.737 280.42L195.377 271.48H194.157L190.777 280.42L187.477 271.48H186.117L190.077 282H191.417L194.737 273.38L198.057 282H199.397L203.377 271.48H202.077ZM206.875 273.54V271.48H205.515V282H206.935V276.64C206.935 274.16 208.275 272.76 210.475 272.76C210.575 272.76 210.695 272.78 210.815 272.78V271.4C208.875 271.4 207.535 272.14 206.875 273.54ZM217.047 271.4C215.387 271.4 213.827 271.92 212.767 272.82L213.407 273.88C214.267 273.12 215.547 272.64 216.907 272.64C218.867 272.64 219.887 273.62 219.887 275.42V276.06H216.547C213.527 276.06 212.487 277.42 212.487 279.04C212.487 280.86 213.947 282.1 216.327 282.1C218.067 282.1 219.307 281.44 219.947 280.36V282H221.307V275.48C221.307 272.76 219.767 271.4 217.047 271.4ZM216.547 280.98C214.867 280.98 213.887 280.22 213.887 279C213.887 277.92 214.547 277.12 216.587 277.12H219.887V278.84C219.327 280.22 218.147 280.98 216.547 280.98ZM230.584 271.4C228.844 271.4 227.384 272.16 226.524 273.56V271.48H225.164V285.88H226.584V280.02C227.464 281.38 228.904 282.1 230.584 282.1C233.584 282.1 235.824 279.94 235.824 276.74C235.824 273.56 233.584 271.4 230.584 271.4ZM230.484 280.84C228.244 280.84 226.564 279.2 226.564 276.74C226.564 274.3 228.244 272.64 230.484 272.64C232.704 272.64 234.404 274.3 234.404 276.74C234.404 279.2 232.704 280.84 230.484 280.84ZM244.138 271.4C242.398 271.4 240.938 272.16 240.078 273.56V271.48H238.718V285.88H240.138V280.02C241.018 281.38 242.458 282.1 244.138 282.1C247.138 282.1 249.378 279.94 249.378 276.74C249.378 273.56 247.138 271.4 244.138 271.4ZM244.038 280.84C241.798 280.84 240.118 279.2 240.118 276.74C240.118 274.3 241.798 272.64 244.038 272.64C246.258 272.64 247.958 274.3 247.958 276.74C247.958 279.2 246.258 280.84 244.038 280.84ZM261.453 276.74C261.453 273.58 259.313 271.4 256.353 271.4C253.393 271.4 251.213 273.62 251.213 276.74C251.213 279.86 253.453 282.1 256.733 282.1C258.393 282.1 259.853 281.5 260.793 280.38L259.993 279.46C259.193 280.38 258.053 280.84 256.773 280.84C254.473 280.84 252.793 279.38 252.633 277.18H261.433C261.433 277.02 261.453 276.86 261.453 276.74ZM256.353 272.62C258.413 272.62 259.913 274.06 260.093 276.12H252.633C252.813 274.06 254.313 272.62 256.353 272.62ZM272.523 267.16V273.48C271.643 272.12 270.203 271.4 268.523 271.4C265.523 271.4 263.283 273.56 263.283 276.74C263.283 279.92 265.523 282.1 268.523 282.1C270.263 282.1 271.723 281.34 272.583 279.92V282H273.943V267.16H272.523ZM268.643 280.84C266.403 280.84 264.723 279.2 264.723 276.74C264.723 274.28 266.403 272.64 268.643 272.64C270.863 272.64 272.543 274.28 272.543 276.74C272.543 279.2 270.863 280.84 268.643 280.84ZM286.152 282H287.632V269.28H292.552V268H281.232V269.28H286.152V282ZM297.823 282.1C300.903 282.1 303.163 279.86 303.163 276.74C303.163 273.62 300.903 271.4 297.823 271.4C294.743 271.4 292.463 273.62 292.463 276.74C292.463 279.86 294.743 282.1 297.823 282.1ZM297.823 280.84C295.583 280.84 293.903 279.2 293.903 276.74C293.903 274.28 295.583 272.64 297.823 272.64C300.063 272.64 301.723 274.28 301.723 276.74C301.723 279.2 300.063 280.84 297.823 280.84ZM314.202 282H315.942L311.022 275.78L315.522 271.48H313.762L307.482 277.22V267.16H306.062V282H307.482V279L309.962 276.72L314.202 282ZM326.824 276.74C326.824 273.58 324.684 271.4 321.724 271.4C318.764 271.4 316.584 273.62 316.584 276.74C316.584 279.86 318.824 282.1 322.104 282.1C323.764 282.1 325.224 281.5 326.164 280.38L325.364 279.46C324.564 280.38 323.424 280.84 322.144 280.84C319.844 280.84 318.164 279.38 318.004 277.18H326.804C326.804 277.02 326.824 276.86 326.824 276.74ZM321.724 272.62C323.784 272.62 325.284 274.06 325.464 276.12H318.004C318.184 274.06 319.684 272.62 321.724 272.62ZM335.074 271.4C333.254 271.4 331.834 272.14 331.074 273.42V271.48H329.714V282H331.134V276.48C331.134 274.08 332.554 272.68 334.814 272.68C336.814 272.68 337.974 273.82 337.974 276.04V282H339.394V275.9C339.394 272.88 337.634 271.4 335.074 271.4ZM41.9352 315.12C46.1352 315.12 49.2752 312.1 49.2752 308C49.2752 303.9 46.1352 300.88 41.9352 300.88C37.6952 300.88 34.5752 303.92 34.5752 308C34.5752 312.08 37.6952 315.12 41.9352 315.12ZM41.9352 313.8C38.5552 313.8 36.0352 311.34 36.0352 308C36.0352 304.66 38.5552 302.2 41.9352 302.2C45.2952 302.2 47.7952 304.66 47.7952 308C47.7952 311.34 45.2952 313.8 41.9352 313.8ZM53.6525 306.54V304.48H52.2925V315H53.7125V309.64C53.7125 307.16 55.0525 305.76 57.2525 305.76C57.3525 305.76 57.4725 305.78 57.5925 305.78V304.4C55.6525 304.4 54.3125 305.14 53.6525 306.54ZM60.8836 302.18C61.4836 302.18 61.9236 301.72 61.9236 301.14C61.9236 300.6 61.4636 300.16 60.8836 300.16C60.3036 300.16 59.8436 300.62 59.8436 301.16C59.8436 301.72 60.3036 302.18 60.8836 302.18ZM60.1636 315H61.5836V304.48H60.1636V315ZM73.9147 304.48V306.5C73.0347 305.12 71.5147 304.4 69.7547 304.4C66.7547 304.4 64.4747 306.46 64.4747 309.48C64.4747 312.5 66.7547 314.6 69.7547 314.6C71.4747 314.6 72.9747 313.9 73.8547 312.56V313.9C73.8547 316.5 72.6347 317.72 69.9747 317.72C68.3547 317.72 66.8347 317.18 65.8347 316.28L65.1147 317.36C66.2147 318.4 68.0947 318.98 70.0147 318.98C73.4947 318.98 75.2747 317.34 75.2747 313.72V304.48H73.9147ZM69.8947 313.34C67.5747 313.34 65.9147 311.76 65.9147 309.48C65.9147 307.2 67.5747 305.64 69.8947 305.64C72.2147 305.64 73.8947 307.2 73.8947 309.48C73.8947 311.76 72.2147 313.34 69.8947 313.34ZM79.9656 302.18C80.5656 302.18 81.0056 301.72 81.0056 301.14C81.0056 300.6 80.5456 300.16 79.9656 300.16C79.3856 300.16 78.9256 300.62 78.9256 301.16C78.9256 301.72 79.3856 302.18 79.9656 302.18ZM79.2456 315H80.6656V304.48H79.2456V315ZM89.9767 304.4C88.1567 304.4 86.7367 305.14 85.9767 306.42V304.48H84.6167V315H86.0367V309.48C86.0367 307.08 87.4567 305.68 89.7167 305.68C91.7167 305.68 92.8767 306.82 92.8767 309.04V315H94.2967V308.9C94.2967 305.88 92.5367 304.4 89.9767 304.4ZM107.746 315.1C109.526 315.1 111.026 314.38 111.866 313.02L110.806 312.3C110.086 313.36 108.966 313.84 107.746 313.84C105.446 313.84 103.766 312.22 103.766 309.74C103.766 307.28 105.446 305.64 107.746 305.64C108.966 305.64 110.086 306.14 110.806 307.2L111.866 306.48C111.026 305.1 109.526 304.4 107.746 304.4C104.606 304.4 102.326 306.6 102.326 309.74C102.326 312.88 104.606 315.1 107.746 315.1ZM119.86 304.4C118.08 304.4 116.7 305.1 115.92 306.32V300.16H114.5V315H115.92V309.48C115.92 307.08 117.34 305.68 119.6 305.68C121.6 305.68 122.76 306.82 122.76 309.04V315H124.18V308.9C124.18 305.88 122.42 304.4 119.86 304.4ZM131.715 304.4C130.055 304.4 128.495 304.92 127.435 305.82L128.075 306.88C128.935 306.12 130.215 305.64 131.575 305.64C133.535 305.64 134.555 306.62 134.555 308.42V309.06H131.215C128.195 309.06 127.155 310.42 127.155 312.04C127.155 313.86 128.615 315.1 130.995 315.1C132.735 315.1 133.975 314.44 134.615 313.36V315H135.975V308.48C135.975 305.76 134.435 304.4 131.715 304.4ZM131.215 313.98C129.535 313.98 128.555 313.22 128.555 312C128.555 310.92 129.215 310.12 131.255 310.12H134.555V311.84C133.995 313.22 132.815 313.98 131.215 313.98ZM140.552 302.18C141.152 302.18 141.592 301.72 141.592 301.14C141.592 300.6 141.132 300.16 140.552 300.16C139.972 300.16 139.512 300.62 139.512 301.16C139.512 301.72 139.972 302.18 140.552 302.18ZM139.832 315H141.252V304.48H139.832V315ZM150.563 304.4C148.743 304.4 147.323 305.14 146.563 306.42V304.48H145.203V315H146.623V309.48C146.623 307.08 148.043 305.68 150.303 305.68C152.303 305.68 153.463 306.82 153.463 309.04V315H154.883V308.9C154.883 305.88 153.123 304.4 150.563 304.4ZM211.382 315H217.082C221.562 315 224.582 312.12 224.582 308C224.582 303.88 221.562 301 217.082 301H211.382V315ZM212.862 313.72V302.28H217.002C220.722 302.28 223.122 304.64 223.122 308C223.122 311.36 220.722 313.72 217.002 313.72H212.862ZM236.785 309.74C236.785 306.58 234.645 304.4 231.685 304.4C228.725 304.4 226.545 306.62 226.545 309.74C226.545 312.86 228.785 315.1 232.065 315.1C233.725 315.1 235.185 314.5 236.125 313.38L235.325 312.46C234.525 313.38 233.385 313.84 232.105 313.84C229.805 313.84 228.125 312.38 227.965 310.18H236.765C236.765 310.02 236.785 309.86 236.785 309.74ZM231.685 305.62C233.745 305.62 235.245 307.06 235.425 309.12H227.965C228.145 307.06 229.645 305.62 231.685 305.62ZM242.495 315.1C245.235 315.1 246.835 313.92 246.835 312.1C246.835 308.06 240.015 310.2 240.015 307.36C240.015 306.36 240.855 305.62 242.755 305.62C243.835 305.62 244.935 305.88 245.855 306.52L246.475 305.38C245.595 304.78 244.115 304.4 242.755 304.4C240.075 304.4 238.595 305.68 238.595 307.4C238.595 311.56 245.415 309.4 245.415 312.14C245.415 313.18 244.595 313.86 242.595 313.86C241.115 313.86 239.695 313.34 238.855 312.68L238.215 313.8C239.075 314.54 240.755 315.1 242.495 315.1ZM254.5 313.34C254.1 313.7 253.52 313.88 252.94 313.88C251.76 313.88 251.12 313.2 251.12 311.96V305.68H254.32V304.48H251.12V302.18H249.7V304.48H247.82V305.68H249.7V312.04C249.7 313.98 250.8 315.1 252.78 315.1C253.6 315.1 254.44 314.86 255 314.36L254.5 313.34ZM258.305 302.18C258.905 302.18 259.345 301.72 259.345 301.14C259.345 300.6 258.885 300.16 258.305 300.16C257.725 300.16 257.265 300.62 257.265 301.16C257.265 301.72 257.725 302.18 258.305 302.18ZM257.585 315H259.005V304.48H257.585V315ZM268.317 304.4C266.497 304.4 265.077 305.14 264.317 306.42V304.48H262.957V315H264.377V309.48C264.377 307.08 265.797 305.68 268.057 305.68C270.057 305.68 271.217 306.82 271.217 309.04V315H272.637V308.9C272.637 305.88 270.877 304.4 268.317 304.4ZM280.172 304.4C278.512 304.4 276.952 304.92 275.892 305.82L276.532 306.88C277.392 306.12 278.672 305.64 280.032 305.64C281.992 305.64 283.012 306.62 283.012 308.42V309.06H279.672C276.652 309.06 275.612 310.42 275.612 312.04C275.612 313.86 277.072 315.1 279.452 315.1C281.192 315.1 282.432 314.44 283.072 313.36V315H284.432V308.48C284.432 305.76 282.892 304.4 280.172 304.4ZM279.672 313.98C277.992 313.98 277.012 313.22 277.012 312C277.012 310.92 277.672 310.12 279.712 310.12H283.012V311.84C282.452 313.22 281.272 313.98 279.672 313.98ZM293.329 313.34C292.929 313.7 292.349 313.88 291.769 313.88C290.589 313.88 289.949 313.2 289.949 311.96V305.68H293.149V304.48H289.949V302.18H288.529V304.48H286.649V305.68H288.529V312.04C288.529 313.98 289.629 315.1 291.609 315.1C292.429 315.1 293.269 314.86 293.829 314.36L293.329 313.34ZM297.134 302.18C297.734 302.18 298.174 301.72 298.174 301.14C298.174 300.6 297.714 300.16 297.134 300.16C296.554 300.16 296.094 300.62 296.094 301.16C296.094 301.72 296.554 302.18 297.134 302.18ZM296.414 315H297.834V304.48H296.414V315ZM306.085 315.1C309.165 315.1 311.425 312.86 311.425 309.74C311.425 306.62 309.165 304.4 306.085 304.4C303.005 304.4 300.725 306.62 300.725 309.74C300.725 312.86 303.005 315.1 306.085 315.1ZM306.085 313.84C303.845 313.84 302.165 312.2 302.165 309.74C302.165 307.28 303.845 305.64 306.085 305.64C308.325 305.64 309.985 307.28 309.985 309.74C309.985 312.2 308.325 313.84 306.085 313.84ZM319.684 304.4C317.864 304.4 316.444 305.14 315.684 306.42V304.48H314.324V315H315.744V309.48C315.744 307.08 317.164 305.68 319.424 305.68C321.424 305.68 322.584 306.82 322.584 309.04V315H324.004V308.9C324.004 305.88 322.244 304.4 319.684 304.4ZM337.453 315.1C339.233 315.1 340.733 314.38 341.573 313.02L340.513 312.3C339.793 313.36 338.673 313.84 337.453 313.84C335.153 313.84 333.473 312.22 333.473 309.74C333.473 307.28 335.153 305.64 337.453 305.64C338.673 305.64 339.793 306.14 340.513 307.2L341.573 306.48C340.733 305.1 339.233 304.4 337.453 304.4C334.313 304.4 332.033 306.6 332.033 309.74C332.033 312.88 334.313 315.1 337.453 315.1ZM349.567 304.4C347.787 304.4 346.407 305.1 345.627 306.32V300.16H344.207V315H345.627V309.48C345.627 307.08 347.047 305.68 349.307 305.68C351.307 305.68 352.467 306.82 352.467 309.04V315H353.887V308.9C353.887 305.88 352.127 304.4 349.567 304.4ZM361.422 304.4C359.762 304.4 358.202 304.92 357.142 305.82L357.782 306.88C358.642 306.12 359.922 305.64 361.282 305.64C363.242 305.64 364.262 306.62 364.262 308.42V309.06H360.922C357.902 309.06 356.862 310.42 356.862 312.04C356.862 313.86 358.322 315.1 360.702 315.1C362.442 315.1 363.682 314.44 364.322 313.36V315H365.682V308.48C365.682 305.76 364.142 304.4 361.422 304.4ZM360.922 313.98C359.242 313.98 358.262 313.22 358.262 312C358.262 310.92 358.922 310.12 360.962 310.12H364.262V311.84C363.702 313.22 362.522 313.98 360.922 313.98ZM370.259 302.18C370.859 302.18 371.299 301.72 371.299 301.14C371.299 300.6 370.839 300.16 370.259 300.16C369.679 300.16 369.219 300.62 369.219 301.16C369.219 301.72 369.679 302.18 370.259 302.18ZM369.539 315H370.959V304.48H369.539V315ZM380.27 304.4C378.45 304.4 377.03 305.14 376.27 306.42V304.48H374.91V315H376.33V309.48C376.33 307.08 377.75 305.68 380.01 305.68C382.01 305.68 383.17 306.82 383.17 309.04V315H384.59V308.9C384.59 305.88 382.83 304.4 380.27 304.4ZM184.064 334L179.964 346.1L175.844 334H174.464L170.284 346.04L166.244 334H164.724L169.444 348H170.984L175.104 336.06L179.204 348H180.764L185.484 334H184.064ZM190.777 337.4C189.117 337.4 187.557 337.92 186.497 338.82L187.137 339.88C187.997 339.12 189.277 338.64 190.637 338.64C192.597 338.64 193.617 339.62 193.617 341.42V342.06H190.277C187.257 342.06 186.217 343.42 186.217 345.04C186.217 346.86 187.677 348.1 190.057 348.1C191.797 348.1 193.037 347.44 193.677 346.36V348H195.037V341.48C195.037 338.76 193.497 337.4 190.777 337.4ZM190.277 346.98C188.597 346.98 187.617 346.22 187.617 345C187.617 343.92 188.277 343.12 190.317 343.12H193.617V344.84C193.057 346.22 191.877 346.98 190.277 346.98ZM198.894 348H200.314V333.16H198.894V348ZM204.265 348H205.685V333.16H204.265V348ZM218.816 342.74C218.816 339.58 216.676 337.4 213.716 337.4C210.756 337.4 208.576 339.62 208.576 342.74C208.576 345.86 210.816 348.1 214.096 348.1C215.756 348.1 217.216 347.5 218.156 346.38L217.356 345.46C216.556 346.38 215.416 346.84 214.136 346.84C211.836 346.84 210.156 345.38 209.996 343.18H218.796C218.796 343.02 218.816 342.86 218.816 342.74ZM213.716 338.62C215.776 338.62 217.276 340.06 217.456 342.12H209.996C210.176 340.06 211.676 338.62 213.716 338.62ZM226.747 346.34C226.347 346.7 225.767 346.88 225.187 346.88C224.007 346.88 223.367 346.2 223.367 344.96V338.68H226.567V337.48H223.367V335.18H221.947V337.48H220.067V338.68H221.947V345.04C221.947 346.98 223.047 348.1 225.027 348.1C225.847 348.1 226.687 347.86 227.247 347.36L226.747 346.34ZM233.266 334V335.28H236.566V348H238.006V334H233.266Z" fill="#001A34"/>
  <path d="M175 276L170 273.113V278.887L175 276ZM145 276.5H170.5V275.5H145V276.5Z" fill="#73979C"/>
  <path d="M200 307L195 304.113V309.887L200 307ZM170 307.5H195.5V306.5H170V307.5Z" fill="#73979C"/>
  <path d="M253 339L260.79 346L274 333" stroke="#73979C"/>
  <defs>
    <filter id="filter0_d" x="162.391" y="87.791" width="100.359" height="100.359" filterUnits="userSpaceOnUse" color-interpolation-filters="sRGB">
      <feFlood flood-opacity="0" result="BackgroundImageFix"/>
      <feColorMatrix in="SourceAlpha" type="matrix" values="0 0 0 0 0 0 0 0 0 0 0 0 0 0 0 0 0 0 127 0" result="hardAlpha"/>
      <feOffset dy="1"/>
      <feGaussianBlur stdDeviation="12.5"/>
      <feColorMatrix type="matrix" values="0 0 0 0 0.88667 0 0 0 0 0.944027 0 0 0 0 0.963145 0 0 0 1 0"/>
      <feBlend mode="normal" in2="BackgroundImageFix" result="effect1_dropShadow"/>
      <feBlend mode="normal" in="SourceGraphic" in2="effect1_dropShadow" result="shape"/>
    </filter>
    <linearGradient id="paint0_linear" x1="351.756" y1="233.603" x2="55.0048" y2="79.3972" gradientUnits="userSpaceOnUse">
      <stop stop-color="#FF0097"/>
      <stop offset="1" stop-color="#FFA9DC"/>
    </linearGradient>
    <linearGradient id="paint1_linear" x1="352.708" y1="234.562" x2="85.7371" y2="72.549" gradientUnits="userSpaceOnUse">
      <stop stop-color="#FF0097"/>
      <stop offset="1" stop-color="#FFA9DC"/>
    </linearGradient>
    <linearGradient id="paint2_linear" x1="392.075" y1="232.815" x2="383.952" y2="174.872" gradientUnits="userSpaceOnUse">
      <stop stop-color="#FF0097"/>
      <stop offset="1" stop-color="#FFA9DC"/>
    </linearGradient>
    <linearGradient id="paint3_linear" x1="378.942" y1="240.99" x2="372.286" y2="187.735" gradientUnits="userSpaceOnUse">
      <stop stop-color="#FF0097"/>
      <stop offset="1" stop-color="#FFA9DC"/>
    </linearGradient>
    <linearGradient id="paint4_linear" x1="336.843" y1="213.322" x2="110.373" y2="62.6424" gradientUnits="userSpaceOnUse">
      <stop stop-color="#FFA9DC"/>
      <stop offset="1" stop-color="#FF0097"/>
    </linearGradient>
  </defs>
</svg>
