<svg width="458" height="482" viewBox="0 0 458 482" fill="none" xmlns="http://www.w3.org/2000/svg">
<path d="M12.6764 70.8881L17.1482 79.0927L25.3528 83.5645L17.1482 88.0362L12.6764 96.2409L8.20468 88.0362L0 83.5645L8.20468 79.0927L12.6764 70.8881Z" fill="url(#paint0_linear_368_1251)" fill-opacity="0.45"/>
<path d="M25.3986 318.087L29.8703 326.292L38.075 330.764L29.8703 335.235L25.3986 343.44L20.9268 335.235L12.7222 330.764L20.9268 326.292L25.3986 318.087Z" fill="url(#paint1_linear_368_1251)" fill-opacity="0.45"/>
<path d="M73.6144 0L80.3469 12.3527L92.6996 19.0853L80.3469 25.8178L73.6144 38.1705L66.8819 25.8178L54.5292 19.0853L66.8819 12.3527L73.6144 0Z" fill="url(#paint2_linear_368_1251)" fill-opacity="0.45"/>
<path d="M348.986 178.129C348.986 265.972 277.785 337.173 189.943 337.173C102.1 337.173 30.8993 265.972 30.8993 178.129C30.8993 90.2867 102.1 19.0857 189.943 19.0857C277.785 19.0857 348.986 90.2867 348.986 178.129Z" fill="white"/>
<path d="M348.986 178.129C348.986 265.972 277.785 337.173 189.943 337.173C102.1 337.173 30.8993 265.972 30.8993 178.129C30.8993 90.2867 102.1 19.0857 189.943 19.0857C277.785 19.0857 348.986 90.2867 348.986 178.129Z" fill="url(#paint3_linear_368_1251)" fill-opacity="0.45"/>
<path d="M311.752 180.649C311.752 246.531 258.344 299.939 192.462 299.939C126.58 299.939 73.1711 246.531 73.1711 180.649C73.1711 114.767 126.58 61.3582 192.462 61.3582C258.344 61.3582 311.752 114.767 311.752 180.649Z" fill="white"/>
<path d="M311.752 180.649C311.752 246.531 258.344 299.939 192.462 299.939C126.58 299.939 73.1711 246.531 73.1711 180.649C73.1711 114.767 126.58 61.3582 192.462 61.3582C258.344 61.3582 311.752 114.767 311.752 180.649Z" fill="url(#paint4_linear_368_1251)" fill-opacity="0.4"/>
<path fill-rule="evenodd" clip-rule="evenodd" d="M297.288 119.825C275.935 87.5736 239.326 66.3037 197.75 66.3037C131.868 66.3037 78.4595 119.712 78.4595 185.594C78.4595 227.169 99.7282 263.777 131.979 285.13C95.9907 264.188 71.8031 225.2 71.8031 180.555C71.8031 113.771 125.927 59.6472 192.711 59.6472C237.357 59.6472 276.346 83.836 297.288 119.825Z" fill="#FF75C7"/>
<path fill-rule="evenodd" clip-rule="evenodd" d="M132.685 97.0755C137.944 94.8459 162.754 129.651 188.101 174.816C213.447 219.981 229.73 258.403 224.472 260.636C219.212 262.865 194.402 228.06 169.056 182.895C143.71 137.73 127.426 99.308 132.685 97.0755ZM137.484 106.44C134.198 107.835 150.652 143.034 173.097 183.029C195.541 223.024 217.325 255.963 220.612 254.569C223.898 253.174 207.444 217.975 185 177.979C162.555 137.984 140.771 105.046 137.484 106.44Z" fill="#FF6FC3"/>
<path fill-rule="evenodd" clip-rule="evenodd" d="M131.803 99.1179C132.548 98.806 134.963 101.705 138.551 106.926C138.189 106.74 137.899 106.688 137.686 106.777C134.37 108.166 150.968 143.198 173.609 183.003C194.501 219.732 214.825 250.48 220.448 253.924C221.875 257.458 222.413 259.546 221.841 259.786C216.533 262.007 195.101 227.821 169.532 182.871C143.964 137.92 126.496 101.339 131.803 99.1179Z" fill="#FF6FC3"/>
<path fill-rule="evenodd" clip-rule="evenodd" d="M228.028 165.876C214.132 165.278 203.134 160.54 195.033 151.665C182.882 138.352 181.576 128.449 181.576 127.277C181.576 125.94 185.103 128.421 189.408 131.449C192.926 133.924 196.963 136.765 200.019 138.184C205.04 140.516 221.211 145.103 237.405 149.697C243.125 151.319 248.847 152.942 254.082 154.467C267.954 158.507 268.947 167.578 268.947 172.107C268.947 178.189 263.511 182.345 258.427 183.15C253.9 183.867 245.791 188.226 246.442 194.901C252.135 199.744 257.218 204.756 260.786 209.323C265.789 213.278 269.285 217.649 265.231 223.244C265.199 223.29 265.166 223.335 265.133 223.38C261.291 228.546 251.779 222.864 243.407 217.863C238.364 214.85 233.734 212.085 231.005 212.085C229.268 212.085 227.261 212.201 225.03 212.33H225.03C217.94 212.74 208.601 213.28 198.568 210.631C193.874 209.391 189.833 207.185 186.381 204.857C184.262 204.534 180.083 200.679 178.156 198.9C177.6 198.387 177.231 198.046 177.153 198.014C174.393 196.856 171.787 196.651 170.984 196.636C170.704 196.631 170.432 196.645 170.163 196.675C169.367 197.008 168.545 197.448 167.622 197.942L167.622 197.942C164.926 199.384 161.371 201.285 155.093 202.318C155.02 202.33 154.947 202.341 154.874 202.351C154.411 202.421 153.945 202.475 153.478 202.512C153.304 202.539 153.128 202.566 152.95 202.592C152.045 202.724 151.141 202.696 150.247 202.533C144.2 202.163 138.186 199.663 133.881 197.874C131.374 196.832 129.446 196.031 128.428 196.031C126.589 196.031 126.558 196.608 126.439 198.816C126.348 200.492 126.207 203.108 125.186 207.124C122.821 216.434 110.839 222.102 105.205 214.196C99.5701 206.29 117.002 182.803 118.389 181.437C119.776 180.072 123.943 176.303 127.223 178.607C129.737 180.372 131.767 181.594 134.222 181.312C134.337 180.929 134.541 180.66 134.842 180.527C135.878 180.072 136.592 178.173 137.529 175.68C139.92 169.32 143.766 159.092 158.113 159.092C158.329 159.092 158.542 159.093 158.75 159.094C159.077 159.092 159.409 159.095 159.747 159.105C161.74 159.139 163.358 159.237 164.745 159.4C165.085 159.44 165.769 159.534 166.61 159.748C174.594 160.946 181.217 163.509 187.493 165.938C193.935 168.431 200.01 170.782 206.813 171.37C216.896 172.24 223.967 170.409 228.028 165.876ZM256.713 167.061C257.618 167.731 258.444 168.189 259.193 168.434C257.876 169.343 256.315 169.611 254.513 169.24C251.809 168.682 251.22 167.154 250.837 166.116C250.601 165.477 249.143 164.809 248.23 164.392C247.662 164.132 247.305 163.968 247.585 163.968C247.797 163.968 248.194 163.92 248.699 163.859C249.936 163.709 251.815 163.482 253.192 163.691C254.377 163.87 254.922 164.714 255.476 165.572C255.829 166.118 256.185 166.67 256.713 167.061Z" fill="#FF6FC3"/>
<path fill-rule="evenodd" clip-rule="evenodd" d="M137.728 97.1791C142.987 94.9494 167.797 129.754 193.144 174.92C218.49 220.085 234.773 258.507 229.515 260.739C224.255 262.969 199.445 228.164 174.099 182.999C148.753 137.834 132.469 99.4115 137.728 97.1791ZM142.527 106.543C139.241 107.938 155.695 143.137 178.14 183.133C200.584 223.128 222.368 256.066 225.655 254.672C228.941 253.277 212.487 218.078 190.043 178.083C167.598 138.088 145.814 105.15 142.527 106.543Z" fill="white"/>
<path fill-rule="evenodd" clip-rule="evenodd" d="M136.844 99.2219C137.589 98.91 140.005 101.809 143.592 107.03C143.23 106.844 142.941 106.792 142.728 106.881C139.411 108.27 156.009 143.302 178.651 183.107C199.543 219.836 219.867 250.584 225.49 254.028C226.916 257.562 227.455 259.65 226.882 259.89C221.575 262.111 200.142 227.925 174.574 182.975C149.005 138.024 131.538 101.443 136.844 99.2219Z" fill="white"/>
<path fill-rule="evenodd" clip-rule="evenodd" d="M233.068 165.981C219.172 165.382 208.174 160.645 200.073 151.77C187.922 138.456 186.616 128.553 186.616 127.382C186.616 126.044 190.143 128.525 194.447 131.554C197.966 134.029 202.003 136.869 205.059 138.288C210.08 140.621 226.251 145.208 242.445 149.801C248.165 151.423 253.887 153.046 259.122 154.571C272.994 158.612 273.987 167.682 273.987 172.212C273.987 178.293 268.55 182.449 263.467 183.254C258.94 183.972 250.832 188.33 251.482 195.005C257.175 199.848 262.258 204.861 265.826 209.427C270.83 213.384 274.326 217.755 270.268 223.351C270.25 223.378 270.231 223.405 270.211 223.432C270.199 223.449 270.186 223.467 270.173 223.484C266.331 228.65 256.819 222.968 248.447 217.967C243.404 214.955 238.774 212.189 236.045 212.189C234.308 212.189 232.3 212.305 230.07 212.434H230.07C222.98 212.844 213.641 213.385 203.608 210.735C198.913 209.495 194.872 207.289 191.419 204.961C189.299 204.634 185.124 200.782 183.198 199.004C182.642 198.491 182.273 198.15 182.195 198.118C179.435 196.96 176.829 196.755 176.026 196.74C175.746 196.735 175.472 196.749 175.203 196.78C174.407 197.112 173.585 197.552 172.662 198.046C169.966 199.488 166.411 201.39 160.133 202.422C160.063 202.434 159.994 202.444 159.924 202.454C159.457 202.525 158.987 202.579 158.516 202.617C158.344 202.644 158.169 202.67 157.992 202.696C157.088 202.828 156.186 202.8 155.294 202.638C149.245 202.269 143.228 199.768 138.921 197.978C136.414 196.937 134.486 196.135 133.468 196.135C131.629 196.135 131.598 196.712 131.479 198.92C131.388 200.596 131.247 203.212 130.226 207.229C127.861 216.538 115.879 222.207 110.245 214.3C104.61 206.394 122.042 182.907 123.429 181.542C124.816 180.176 128.983 176.408 132.263 178.711C134.778 180.477 136.808 181.699 139.264 181.416C139.379 181.033 139.583 180.764 139.884 180.631C140.92 180.176 141.634 178.277 142.571 175.784C144.962 169.424 148.808 159.196 163.155 159.196C163.383 159.196 163.607 159.197 163.827 159.198C164.128 159.196 164.435 159.2 164.747 159.208C166.759 159.241 168.39 159.34 169.787 159.504C170.128 159.544 170.815 159.639 171.659 159.854C179.639 161.052 186.26 163.615 192.533 166.043C198.974 168.535 205.05 170.887 211.853 171.474C221.936 172.344 229.007 170.513 233.068 165.981ZM261.752 167.165C262.657 167.835 263.483 168.293 264.233 168.538C262.915 169.447 261.354 169.715 259.552 169.344C256.848 168.786 256.259 167.258 255.876 166.22C255.64 165.581 254.182 164.913 253.269 164.496C252.701 164.236 252.344 164.072 252.624 164.072C252.836 164.072 253.233 164.024 253.739 163.963C254.975 163.813 256.854 163.586 258.231 163.795C259.416 163.974 259.961 164.818 260.515 165.676C260.868 166.222 261.224 166.774 261.752 167.165Z" fill="white"/>
<path fill-rule="evenodd" clip-rule="evenodd" d="M137.728 97.1791C142.987 94.9494 167.797 129.754 193.144 174.92C218.49 220.085 234.773 258.507 229.515 260.739C224.255 262.969 199.445 228.164 174.099 182.999C148.753 137.834 132.469 99.4115 137.728 97.1791ZM142.527 106.543C139.241 107.938 155.695 143.137 178.14 183.133C200.584 223.128 222.368 256.066 225.655 254.672C228.941 253.277 212.487 218.078 190.043 178.083C167.598 138.088 145.814 105.15 142.527 106.543Z" fill="#FFF4FA"/>
<path fill-rule="evenodd" clip-rule="evenodd" d="M136.844 99.2219C137.589 98.91 140.005 101.809 143.592 107.03C143.23 106.844 142.941 106.792 142.728 106.881C139.411 108.27 156.009 143.302 178.651 183.107C199.543 219.836 219.867 250.584 225.49 254.028C226.916 257.562 227.455 259.65 226.882 259.89C221.575 262.111 200.142 227.925 174.574 182.975C149.005 138.024 131.538 101.443 136.844 99.2219Z" fill="#FFF4FA"/>
<path fill-rule="evenodd" clip-rule="evenodd" d="M233.068 165.981C219.172 165.382 208.174 160.645 200.073 151.77C187.922 138.456 186.616 128.553 186.616 127.382C186.616 126.044 190.143 128.525 194.447 131.554C197.966 134.029 202.003 136.869 205.059 138.288C210.08 140.621 226.251 145.208 242.445 149.801C248.165 151.423 253.887 153.046 259.122 154.571C272.994 158.612 273.987 167.682 273.987 172.212C273.987 178.293 268.55 182.449 263.467 183.254C258.94 183.972 250.832 188.33 251.482 195.005C257.175 199.848 262.258 204.861 265.826 209.427C270.83 213.384 274.326 217.755 270.268 223.351C270.25 223.378 270.231 223.405 270.211 223.432C270.199 223.449 270.186 223.467 270.173 223.484C266.331 228.65 256.819 222.968 248.447 217.967C243.404 214.955 238.774 212.189 236.045 212.189C234.308 212.189 232.3 212.305 230.07 212.434H230.07C222.98 212.844 213.641 213.385 203.608 210.735C198.913 209.495 194.872 207.289 191.419 204.961C189.299 204.634 185.124 200.782 183.198 199.004C182.642 198.491 182.273 198.15 182.195 198.118C179.435 196.96 176.829 196.755 176.026 196.74C175.746 196.735 175.472 196.749 175.203 196.78C174.407 197.112 173.585 197.552 172.662 198.046C169.966 199.488 166.411 201.39 160.133 202.422C160.063 202.434 159.994 202.444 159.924 202.454C159.457 202.525 158.987 202.579 158.516 202.617C158.344 202.644 158.169 202.67 157.992 202.696C157.088 202.828 156.186 202.8 155.294 202.638C149.245 202.269 143.228 199.768 138.921 197.978C136.414 196.937 134.486 196.135 133.468 196.135C131.629 196.135 131.598 196.712 131.479 198.92C131.388 200.596 131.247 203.212 130.226 207.229C127.861 216.538 115.879 222.207 110.245 214.3C104.61 206.394 122.042 182.907 123.429 181.542C124.816 180.176 128.983 176.408 132.263 178.711C134.778 180.477 136.808 181.699 139.264 181.416C139.379 181.033 139.583 180.764 139.884 180.631C140.92 180.176 141.634 178.277 142.571 175.784C144.962 169.424 148.808 159.196 163.155 159.196C163.383 159.196 163.607 159.197 163.827 159.198C164.128 159.196 164.435 159.2 164.747 159.208C166.759 159.241 168.39 159.34 169.787 159.504C170.128 159.544 170.815 159.639 171.659 159.854C179.639 161.052 186.26 163.615 192.533 166.043C198.974 168.535 205.05 170.887 211.853 171.474C221.936 172.344 229.007 170.513 233.068 165.981ZM261.752 167.165C262.657 167.835 263.483 168.293 264.233 168.538C262.915 169.447 261.354 169.715 259.552 169.344C256.848 168.786 256.259 167.258 255.876 166.22C255.64 165.581 254.182 164.913 253.269 164.496C252.701 164.236 252.344 164.072 252.624 164.072C252.836 164.072 253.233 164.024 253.739 163.963C254.975 163.813 256.854 163.586 258.231 163.795C259.416 163.974 259.961 164.818 260.515 165.676C260.868 166.222 261.224 166.774 261.752 167.165Z" fill="white" fill-opacity="0.7"/>
<path d="M381.085 408.889C339.089 448.832 290.459 465.899 272.481 446.997C254.503 428.095 273.981 380.38 315.977 340.436C357.987 300.479 406.603 283.426 424.581 302.328C442.559 321.23 423.095 368.931 381.085 408.889Z" fill="url(#paint5_linear_368_1251)" fill-opacity="0.45"/>
<path d="M372.892 400.275C341.385 430.243 306.073 444.234 293.988 431.528C281.916 418.836 297.658 384.241 329.151 354.287C360.644 324.332 395.984 310.342 408.069 323.048C420.141 335.739 404.4 370.307 372.892 400.275Z" fill="url(#paint6_linear_368_1251)" fill-opacity="0.45"/>
<path fill-rule="evenodd" clip-rule="evenodd" d="M412.015 332.381C411.635 328.611 410.348 325.441 408.072 323.048C395.987 310.342 360.647 324.333 329.154 354.287C298.62 383.329 282.893 416.733 292.964 430.308C292.953 430.297 292.942 430.285 292.93 430.273C280.11 416.794 293.307 378.434 325.601 347.717C357.881 317.014 393.837 302.41 405.922 315.116C408.889 318.236 412.115 321.627 412.017 332.212C412.017 332.268 412.016 332.325 412.015 332.381Z" fill="#FF75C7"/>
<path fill-rule="evenodd" clip-rule="evenodd" d="M361.933 329.793C363.769 329.603 359.272 348.569 351.89 372.154C344.508 395.74 337.035 415.015 335.199 415.206C333.363 415.396 337.859 396.43 345.242 372.845C352.624 349.259 360.097 329.984 361.933 329.793ZM360.3 334.615C359.152 334.734 352.653 352.622 346.116 373.508C339.579 394.394 334.94 412.088 336.087 411.97C337.235 411.85 343.734 393.963 350.271 373.077C356.809 352.19 361.447 334.496 360.3 334.615Z" fill="#FF75C7"/>
<path fill-rule="evenodd" clip-rule="evenodd" d="M361.142 330.556C361.4 330.531 361.105 332.163 360.4 334.988C360.372 334.852 360.322 334.786 360.248 334.793C359.095 334.906 352.677 352.742 346.24 373.574C340.3 392.796 335.967 409.312 336.238 411.663C335.534 413.425 335.05 414.421 334.851 414.44C333.007 414.619 338.087 396.43 345.357 372.905C352.627 349.38 359.298 330.736 361.142 330.556Z" fill="#FF75C7"/>
<path fill-rule="evenodd" clip-rule="evenodd" d="M363.51 374.213C360.544 371.87 359.433 368.148 360.179 363.047C361.298 355.394 363.877 350.859 364.217 350.345C364.605 349.759 364.682 351.375 364.776 353.346C364.852 354.957 364.94 356.806 365.219 357.885C365.676 359.659 367.999 364.089 370.325 368.526C371.146 370.093 371.968 371.66 372.708 373.112C374.67 376.959 372.262 381.082 370.947 383.067C369.182 385.732 366.747 386.74 365.365 386.332C364.133 385.969 361.036 386.665 359.246 389.688C359.126 392.662 358.82 395.619 358.301 398.154C358.283 400.637 357.804 403.076 355.262 404.922C355.243 404.936 355.223 404.951 355.203 404.965C352.835 406.654 352.335 402.741 351.895 399.296C351.63 397.221 351.387 395.316 350.77 394.908C350.378 394.648 349.89 394.398 349.349 394.121C347.628 393.24 345.361 392.079 343.863 389.416C343.162 388.17 342.889 386.599 342.785 385.062C342.399 384.603 342.575 382.288 342.655 381.22C342.679 380.912 342.694 380.707 342.686 380.681C342.398 379.761 341.869 379.281 341.692 379.154C341.63 379.111 341.565 379.076 341.496 379.049C341.219 379.076 340.905 379.146 340.553 379.224C339.526 379.452 338.17 379.754 336.452 379.267C336.433 379.261 336.414 379.255 336.395 379.249C336.269 379.21 336.146 379.163 336.029 379.109C335.982 379.095 335.935 379.081 335.888 379.066C335.646 378.988 335.45 378.841 335.295 378.636C334.036 377.569 333.403 375.573 332.949 374.145C332.685 373.313 332.482 372.673 332.252 372.521C331.836 372.246 331.662 372.494 330.994 373.444C330.487 374.165 329.696 375.29 328.299 376.897C325.063 380.623 320.71 381.314 321.732 377.006C322.754 372.698 333.51 365.014 334.22 364.623C334.929 364.232 336.964 363.204 337.037 364.705C337.093 365.854 337.197 366.694 337.833 366.937C337.97 366.787 338.095 366.699 338.201 366.686C338.567 366.642 339.28 365.917 340.215 364.964C342.602 362.535 346.439 358.628 349.681 360.776C349.733 360.81 349.784 360.844 349.834 360.878C349.902 360.922 349.97 360.969 350.037 361.02C350.482 361.335 350.822 361.622 351.09 361.903C351.155 361.972 351.283 362.116 351.411 362.336C352.867 364.055 353.62 366.17 354.333 368.173C355.064 370.23 355.755 372.169 357.122 373.445C359.147 375.335 361.276 375.591 363.51 374.213ZM369.645 379.024C369.655 379.453 369.709 379.777 369.807 379.997C369.246 380.198 368.815 380.082 368.516 379.65C368.067 379.001 368.377 378.243 368.592 377.731C368.724 377.415 368.588 376.905 368.503 376.585C368.451 376.386 368.417 376.261 368.48 376.303C368.528 376.334 368.632 376.373 368.764 376.422C369.087 376.541 369.578 376.723 369.828 377.02C370.044 377.276 369.922 377.728 369.798 378.187C369.719 378.479 369.64 378.774 369.645 379.024Z" fill="#FF75C7"/>
<path fill-rule="evenodd" clip-rule="evenodd" d="M353.672 368.392C353.908 368.993 354.123 369.598 354.335 370.193C355.067 372.249 355.757 374.189 357.124 375.464C359.149 377.355 361.279 377.611 363.512 376.232C360.546 373.89 359.436 370.168 360.181 365.066C361.3 357.414 363.879 352.878 364.219 352.365C364.607 351.779 364.684 353.394 364.778 355.365C364.854 356.976 364.942 358.825 365.221 359.905C365.678 361.678 368.001 366.109 370.327 370.545L370.327 370.545C371.148 372.112 371.97 373.68 372.71 375.131C374.672 378.978 372.264 383.102 370.949 385.087C369.184 387.752 366.749 388.759 365.367 388.351C364.136 387.988 361.038 388.685 359.248 391.707C359.128 394.681 358.822 397.639 358.303 400.174C358.285 402.658 357.806 405.098 355.262 406.943L355.233 406.964L355.205 406.985C352.837 408.673 352.337 404.76 351.897 401.315C351.632 399.24 351.389 397.336 350.772 396.927C350.38 396.667 349.892 396.418 349.351 396.14L349.351 396.14C348.175 395.538 346.744 394.805 345.478 393.552C340.588 407.475 336.494 417.09 335.2 417.225C334.975 417.248 334.845 416.984 334.804 416.459C333.662 416.359 335.557 408.202 339.101 395.812C340.132 391.994 341.324 387.802 342.649 383.354C342.652 383.314 342.655 383.276 342.658 383.24C342.681 382.931 342.696 382.727 342.688 382.701C342.401 381.781 341.871 381.301 341.694 381.174C341.633 381.13 341.567 381.095 341.498 381.069C341.221 381.095 340.907 381.165 340.556 381.243L340.555 381.243C339.528 381.472 338.173 381.773 336.454 381.286C336.435 381.281 336.416 381.275 336.398 381.268C336.271 381.23 336.149 381.183 336.031 381.129C335.985 381.115 335.938 381.1 335.891 381.085C335.648 381.008 335.452 380.861 335.298 380.656C334.038 379.589 333.405 377.593 332.951 376.164C332.687 375.332 332.484 374.693 332.254 374.54C331.839 374.265 331.664 374.513 330.996 375.463C330.489 376.184 329.698 377.309 328.302 378.917C325.065 382.642 320.712 383.333 321.734 379.025C322.756 374.717 333.512 367.033 334.222 366.643C334.931 366.252 336.967 365.224 337.039 366.724C337.095 367.874 337.199 368.713 337.836 368.957C337.973 368.807 338.097 368.719 338.204 368.706C338.57 368.661 339.282 367.936 340.217 366.984C342.495 364.666 346.095 361.001 349.236 362.539C349.632 361.358 350.026 360.198 350.415 359.062C355.503 343.657 359.673 332.884 361.109 332.58C361.45 332.097 361.728 331.833 361.934 331.812C363.617 331.638 359.978 347.565 353.672 368.392ZM342.785 387.079C338.704 401.045 336.024 411.817 336.239 413.681C336.198 413.784 336.158 413.884 336.118 413.982C336.976 413.695 340.393 404.9 344.591 392.542C344.334 392.205 344.091 391.837 343.865 391.435C343.164 390.19 342.891 388.618 342.787 387.081C342.786 387.08 342.786 387.08 342.785 387.079ZM350.196 363.152C355.113 348.126 359.335 336.901 360.249 336.812C360.323 336.805 360.373 336.871 360.401 337.007L360.449 336.815C360.802 338.444 357.619 350.857 352.88 366.604C352.477 365.812 352.003 365.052 351.414 364.356C351.285 364.135 351.158 363.991 351.093 363.923C350.857 363.676 350.565 363.424 350.196 363.152ZM369.809 382.016C369.711 381.797 369.657 381.473 369.647 381.044C369.642 380.793 369.721 380.498 369.8 380.206C369.924 379.747 370.046 379.296 369.83 379.04C369.58 378.742 369.089 378.561 368.766 378.441C368.634 378.392 368.53 378.354 368.483 378.322C368.419 378.28 368.453 378.405 368.505 378.604C368.591 378.924 368.726 379.435 368.594 379.75C368.379 380.262 368.069 381.02 368.518 381.669C368.817 382.102 369.248 382.218 369.809 382.016Z" fill="white" fill-opacity="0.7"/>
<path fill-rule="evenodd" clip-rule="evenodd" d="M272.63 447.152C290.726 465.805 339.205 448.723 381.086 408.889C423.096 368.931 442.56 321.23 424.582 302.328C424.181 301.907 423.765 301.503 423.334 301.118L423.386 301.069L439.873 318.404C439.917 318.449 439.96 318.494 440.004 318.54C457.982 337.441 438.545 385.171 396.535 425.129C354.539 465.072 305.895 482.124 287.903 463.208L287.903 463.208L287.902 463.209L272.63 447.152ZM272.334 446.841C271.987 446.468 271.654 446.085 271.335 445.69L271.285 445.738L272.334 446.841Z" fill="url(#paint7_linear_368_1251)" fill-opacity="0.45"/>
<defs>
<linearGradient id="paint0_linear_368_1251" x1="36.1812" y1="90.0333" x2="18.6567" y2="102.328" gradientUnits="userSpaceOnUse">
<stop offset="0.0851474" stop-color="#FF0097"/>
<stop offset="1" stop-color="#FFA9D1"/>
</linearGradient>
<linearGradient id="paint1_linear_368_1251" x1="48.9034" y1="337.232" x2="31.3789" y2="349.527" gradientUnits="userSpaceOnUse">
<stop offset="0.0851474" stop-color="#FF0097"/>
<stop offset="1" stop-color="#FFA9D1"/>
</linearGradient>
<linearGradient id="paint2_linear_368_1251" x1="109.002" y1="28.8244" x2="82.6182" y2="47.3345" gradientUnits="userSpaceOnUse">
<stop offset="0.0851474" stop-color="#FF0097"/>
<stop offset="1" stop-color="#FFA9D1"/>
</linearGradient>
<linearGradient id="paint3_linear_368_1251" x1="84.2456" y1="64.3134" x2="296.084" y2="294.08" gradientUnits="userSpaceOnUse">
<stop stop-color="#FF0097"/>
<stop offset="1" stop-color="#FFA9D1"/>
</linearGradient>
<linearGradient id="paint4_linear_368_1251" x1="-51.0651" y1="-190.754" x2="265.224" y2="282.199" gradientUnits="userSpaceOnUse">
<stop offset="0.59375" stop-color="#FFA9D1"/>
<stop offset="1" stop-color="#FF0097"/>
</linearGradient>
<linearGradient id="paint5_linear_368_1251" x1="381.32" y1="300.152" x2="418.419" y2="417.479" gradientUnits="userSpaceOnUse">
<stop stop-color="#FF0097"/>
<stop offset="1" stop-color="#FFA9D1"/>
</linearGradient>
<linearGradient id="paint6_linear_368_1251" x1="362.47" y1="447.599" x2="308.274" y2="415.494" gradientUnits="userSpaceOnUse">
<stop offset="0.0851474" stop-color="#FF0097"/>
<stop offset="1" stop-color="#FFA9D1"/>
</linearGradient>
<linearGradient id="paint7_linear_368_1251" x1="386.191" y1="408.739" x2="404.472" y2="432.64" gradientUnits="userSpaceOnUse">
<stop stop-color="#FF0097"/>
<stop offset="1" stop-color="#FFA9D1"/>
</linearGradient>
</defs>
</svg>
