<svg width="76" height="76" viewBox="0 0 76 76" fill="none" xmlns="http://www.w3.org/2000/svg">
<path fill-rule="evenodd" clip-rule="evenodd" d="M57.0057 31.582C50.6144 31.3069 45.5558 29.1309 41.83 25.054C36.2412 18.9384 35.6403 14.3894 35.6403 13.8512C35.6403 12.7346 40.9981 17.4116 44.1231 18.8614C47.2482 20.3111 59.7639 23.6572 68.9893 26.341C75.3695 28.197 75.8264 32.3635 75.8264 34.4441C75.8264 37.2379 73.3258 39.147 70.9877 39.5168C68.6498 39.8866 64.2362 42.3651 65.7776 46.09C67.3191 49.8149 77.9978 52.7238 74.0714 57.996C71.2398 61.7981 61.7138 52.8074 58.3746 52.8074C55.0354 52.8074 49.5213 53.7394 43.4552 52.1395C37.389 50.5396 33.6942 45.4338 31.7132 45.4338C29.7324 45.4338 28.5181 47.4899 23.4593 48.3209C18.4004 49.1519 12.6833 45.4338 11.1956 45.4338C9.70797 45.4338 10.7926 46.2532 9.70449 50.5296C8.61639 54.8059 3.10571 57.4099 0.514077 53.7779C-2.07755 50.1461 5.94023 39.3573 6.57823 38.73C7.21623 38.1027 9.13243 36.3717 10.6414 37.4298C12.1504 38.4881 13.2803 39.1213 14.9602 38.3479C16.6399 37.5746 16.6399 28.0574 25.8157 28.4798C34.9915 28.9021 40.292 33.5055 47.2482 34.1053C51.8857 34.5052 55.1381 33.664 57.0057 31.582Z" fill="url(#paint0_linear_368_1226)"/>
<path fill-rule="evenodd" clip-rule="evenodd" d="M74.0715 57.9967C71.2399 61.7987 61.7139 52.8081 58.3747 52.8081C55.0356 52.8081 49.5214 53.7401 43.4552 52.1403C37.3892 50.5403 33.6943 45.4344 31.7134 45.4344C29.7325 45.4344 28.5183 47.4906 23.4594 48.3216C18.4006 49.1525 13.2805 39.1219 14.9603 38.3486C16.64 37.5752 16.64 28.0581 25.8158 28.4804C34.9916 28.9028 40.2922 33.5062 47.2483 34.106C54.2045 34.7058 77.9979 52.7244 74.0715 57.9967Z" fill="url(#paint1_linear_368_1226)"/>
<path fill-rule="evenodd" clip-rule="evenodd" d="M71.3392 32.7564C70.9946 32.6439 70.6144 32.4337 70.1983 32.1257C69.574 31.6638 69.4707 30.7128 68.5788 30.5777C67.6869 30.4426 66.3355 30.7052 65.9998 30.7052C65.6643 30.7052 67.3198 31.2153 67.4958 31.6919C67.6717 32.1685 67.9429 32.8705 69.1864 33.1267C70.0154 33.2974 70.733 33.174 71.3392 32.7564Z" fill="white"/>
<path fill-rule="evenodd" clip-rule="evenodd" d="M13.0999 0.0465619C15.5273 -0.977109 26.9776 15.0024 38.6753 35.7384C50.3728 56.4743 57.8881 74.1145 55.4612 75.1395C53.0337 76.1631 41.5834 60.1837 29.8859 39.4477C18.1883 18.7116 10.6731 1.0715 13.0999 0.0465619ZM15.3151 4.34585C13.7982 4.98631 21.3921 21.1466 31.7506 39.5091C42.1093 57.8715 52.1626 72.9939 53.6797 72.354C55.1965 71.7134 47.6026 55.5532 37.244 37.1908C26.8854 18.8283 16.8321 3.70593 15.3151 4.34585Z" fill="#73979C"/>
<path fill-rule="evenodd" clip-rule="evenodd" d="M12.6229 0.780063C12.9668 0.636141 14.0814 1.97401 15.7369 4.38326C15.5698 4.29728 15.4362 4.27346 15.338 4.31455C13.8075 4.95554 21.4668 21.1218 31.9151 39.4908C41.5559 56.4399 50.9348 70.6294 53.5296 72.2184C54.1878 73.8497 54.4364 74.8131 54.172 74.9238C51.7229 75.9485 41.8325 60.1729 30.0336 39.4295C18.2347 18.6862 10.174 1.80518 12.6229 0.780063Z" fill="#BFD7D7"/>
<path fill-rule="evenodd" clip-rule="evenodd" d="M30.7693 45.7118C28.7901 45.6753 27.5431 47.71 22.4749 48.4478C17.4068 49.1857 12.4554 39.055 14.1464 38.3123C15.8374 37.5697 15.6642 28.4658 24.8495 28.4658C26.1228 28.4658 27.096 28.513 27.9001 28.6074C28.3806 28.6638 30.3621 28.9561 31.3316 30.3624C34.0139 34.2533 37.8986 45.2176 38.4078 48.4478C38.9171 51.6782 33.823 46.4352 33.6067 46.3447C32.3374 45.813 31.1388 45.7187 30.7693 45.7118Z" fill="url(#paint2_linear_368_1226)"/>
<path fill-rule="evenodd" clip-rule="evenodd" d="M5.47866 69.9938C4.99779 70.1546 4.43857 70.2349 3.80102 70.2349C3.28234 70.2349 2.82037 70.1787 2.41515 70.0662C2.00992 69.9536 1.65198 69.7902 1.3413 69.5759C1.03063 69.3616 0.764527 69.1004 0.543003 68.7923C0.321479 68.4842 0.140478 68.132 0 67.7354L0.964438 67.3417C1.0779 67.6899 1.23053 68.0006 1.42234 68.274C1.61415 68.5472 1.83702 68.7789 2.09097 68.9691C2.34491 69.1593 2.62722 69.3053 2.9379 69.4072C3.24856 69.5089 3.5795 69.5598 3.9307 69.5598C4.19544 69.5598 4.45749 69.5237 4.71684 69.4513C4.97618 69.3791 5.20851 69.2718 5.41383 69.1299C5.61914 68.9879 5.78393 68.8138 5.90819 68.6074C6.03246 68.4012 6.0946 68.1615 6.0946 67.8882C6.0946 67.5613 6.0095 67.2707 5.83931 67.0162C5.66912 66.7617 5.44624 66.5286 5.17068 66.317C4.89514 66.1054 4.5804 65.9058 4.22651 65.7182C3.87261 65.5307 3.51196 65.3433 3.14456 65.1557C2.77716 64.9682 2.4165 64.7712 2.06261 64.565C1.7087 64.3587 1.39398 64.1283 1.11842 63.8738C0.84287 63.6193 0.619996 63.3353 0.449801 63.022C0.279606 62.7085 0.194508 62.3482 0.194508 61.941C0.194508 61.5338 0.271502 61.156 0.425487 60.8078C0.579473 60.4595 0.80505 60.1581 1.10222 59.9037C1.39938 59.6491 1.76543 59.4496 2.20037 59.3049C2.63532 59.1603 3.13374 59.0879 3.69566 59.0879C4.20355 59.0879 4.6574 59.1415 5.05722 59.2486C5.45704 59.3558 5.80824 59.5139 6.11081 59.7228C6.41337 59.9318 6.67002 60.1889 6.88074 60.4943C7.09146 60.7998 7.26165 61.1534 7.39132 61.5552L6.4674 61.9731C6.35935 61.6463 6.22157 61.3476 6.05408 61.077C5.88658 60.8064 5.68668 60.5747 5.45435 60.3818C5.22202 60.1889 4.95322 60.0403 4.64794 59.9358C4.34267 59.8313 3.99823 59.7791 3.61462 59.7791C3.27423 59.7791 2.97706 59.8259 2.72311 59.9197C2.46918 60.0135 2.25711 60.1368 2.08691 60.2894C1.91672 60.4421 1.78975 60.6136 1.706 60.8038C1.62225 60.994 1.58039 61.1882 1.58039 61.3865C1.58039 61.665 1.66683 61.9209 1.83973 62.154C2.01262 62.3871 2.24225 62.6067 2.52861 62.813C2.81497 63.0192 3.1405 63.2188 3.5052 63.4117C3.86991 63.6045 4.24136 63.8001 4.61958 63.9983C4.99779 64.1967 5.36925 64.4029 5.73395 64.6172C6.09865 64.8316 6.42419 65.0659 6.71055 65.3204C6.99691 65.575 7.22653 65.8536 7.39943 66.1563C7.57233 66.459 7.65877 66.7978 7.65877 67.1729C7.65877 67.5962 7.57773 67.994 7.41564 68.3663C7.25354 68.7388 7.01041 69.0629 6.68623 69.3388C6.36205 69.6148 5.95953 69.8331 5.47866 69.9938ZM13.567 70.0259C13.2968 70.117 13.0402 70.1625 12.797 70.1625C12.4351 70.1625 12.0947 70.0956 11.7759 69.9617C11.4571 69.8277 11.1789 69.6455 10.9411 69.4151C10.7034 69.1848 10.5156 68.9142 10.3778 68.6034C10.2401 68.2927 10.1712 67.9631 10.1712 67.6149V61.7561H11.8246V67.6149C11.8246 67.8185 11.8718 68.0114 11.9663 68.1936C12.0609 68.3757 12.1919 68.5338 12.3594 68.6678C12.5269 68.8016 12.7201 68.9075 12.9389 68.9852C13.1577 69.0628 13.3941 69.1017 13.648 69.1017C13.8101 69.1017 13.9843 69.0668 14.1708 68.9972C14.3572 68.9276 14.5395 68.8325 14.7179 68.7119C14.8961 68.5914 15.0623 68.4494 15.2162 68.2859C15.3702 68.1226 15.5012 67.9497 15.6094 67.7676V61.7561H17.2465V69.9857H15.6094V68.4427C15.4635 68.6784 15.2811 68.9007 15.0623 69.1097C14.8435 69.3187 14.6071 69.5009 14.3532 69.6562C14.0992 69.8116 13.8372 69.9348 13.567 70.0259ZM23.5517 70.2349C24.1893 70.2349 24.7485 70.1546 25.2294 69.9938C25.7102 69.8331 26.1128 69.6148 26.4369 69.3388C26.7611 69.0629 27.0043 68.7388 27.1663 68.3663C27.3284 67.994 27.4095 67.5962 27.4095 67.1729C27.4095 66.7978 27.323 66.459 27.1502 66.1563C26.9772 65.8536 26.7476 65.575 26.4612 65.3204C26.1749 65.0659 25.8493 64.8316 25.4846 64.6172C25.12 64.4029 24.7485 64.1967 24.3703 63.9983C23.992 63.8001 23.6206 63.6045 23.2559 63.4117C22.8912 63.2188 22.5657 63.0192 22.2793 62.813C21.9929 62.6067 21.7633 62.3871 21.5904 62.154C21.4175 61.9209 21.3311 61.665 21.3311 61.3865C21.3311 61.1882 21.3729 60.994 21.4568 60.8038C21.5405 60.6136 21.6675 60.4421 21.8377 60.2894C22.0079 60.1368 22.2199 60.0135 22.4738 59.9197C22.7278 59.8259 23.0249 59.7791 23.3653 59.7791C23.749 59.7791 24.0934 59.8313 24.3986 59.9358C24.7039 60.0403 24.9727 60.1889 25.2051 60.3818C25.4374 60.5747 25.6373 60.8064 25.8048 61.077C25.9723 61.3476 26.11 61.6463 26.2182 61.9731L27.142 61.5552C27.0124 61.1534 26.8422 60.7998 26.6314 60.4943C26.4207 60.1889 26.164 59.9318 25.8615 59.7228C25.5589 59.5139 25.2077 59.3558 24.8079 59.2486C24.4081 59.1415 23.9543 59.0879 23.4463 59.0879C22.8844 59.0879 22.386 59.1603 21.9511 59.3049C21.5162 59.4496 21.1501 59.6491 20.8529 59.9037C20.5558 60.1581 20.3302 60.4595 20.1762 60.8078C20.0222 61.156 19.9452 61.5338 19.9452 61.941C19.9452 62.3482 20.0303 62.7085 20.2005 63.022C20.3706 63.3353 20.5936 63.6193 20.8691 63.8738C21.1447 64.1283 21.4594 64.3587 21.8133 64.565C22.1672 64.7712 22.5279 64.9682 22.8952 65.1557C23.2627 65.3433 23.6233 65.5307 23.9772 65.7182C24.3312 65.9058 24.6459 66.1054 24.9214 66.317C25.197 66.5286 25.4198 66.7617 25.59 67.0162C25.7602 67.2707 25.8453 67.5613 25.8453 67.8882C25.8453 68.1615 25.7832 68.4012 25.6589 68.6074C25.5346 68.8138 25.3698 68.9879 25.1645 69.1299C24.9592 69.2718 24.7268 69.3791 24.4675 69.4513C24.2082 69.5237 23.9461 69.5598 23.6814 69.5598C23.3302 69.5598 22.9993 69.5089 22.6886 69.4072C22.378 69.3053 22.0956 69.1593 21.8417 68.9691C21.5877 68.7789 21.3649 68.5472 21.173 68.274C20.9813 68.0006 20.8286 67.6899 20.7152 67.3417L19.7507 67.7354C19.8912 68.132 20.0722 68.4842 20.2937 68.7923C20.5153 69.1004 20.7813 69.3616 21.092 69.5759C21.4026 69.7902 21.7606 69.9536 22.1659 70.0662C22.5711 70.1787 23.0331 70.2349 23.5517 70.2349ZM30.7729 73.6384C30.4973 73.7323 30.2299 73.7791 29.9705 73.7791C29.776 73.7791 29.5869 73.7497 29.4032 73.6907C29.2195 73.6318 29.0655 73.5541 28.9413 73.4577L29.6301 71.9307C29.6949 71.9574 29.7666 71.9923 29.8449 72.0351C29.9233 72.078 30.0098 72.1195 30.1043 72.1597C30.1988 72.1999 30.3028 72.2334 30.4162 72.2601C30.5298 72.287 30.6567 72.3004 30.7972 72.3004C30.9701 72.3004 31.1321 72.2521 31.2834 72.1556C31.4348 72.0593 31.5725 71.9387 31.6968 71.7941C31.8211 71.6493 31.9319 71.4913 32.029 71.3199C32.1263 71.1484 32.2074 70.9877 32.2722 70.8377L32.8314 69.6L28.5927 61.7561H30.4649L33.6581 67.7033L36.2758 61.7561H37.1593L32.9206 71.4324C32.7423 71.8342 32.5382 72.1825 32.3086 72.4772C32.079 72.7718 31.8346 73.0156 31.5752 73.2085C31.3159 73.4013 31.0484 73.5447 30.7729 73.6384Z" fill="#FF0097"/>
<defs>
<linearGradient id="paint0_linear_368_1226" x1="75.8264" y1="13.6807" x2="75.8264" y2="58.9335" gradientUnits="userSpaceOnUse">
<stop stop-color="#FFA9DC"/>
<stop offset="1" stop-color="#FF0097"/>
</linearGradient>
<linearGradient id="paint1_linear_368_1226" x1="74.506" y1="28.4668" x2="74.506" y2="58.9342" gradientUnits="userSpaceOnUse">
<stop stop-color="#FFA9DC"/>
<stop offset="1" stop-color="#FF0097"/>
</linearGradient>
<linearGradient id="paint2_linear_368_1226" x1="38.7986" y1="28.7003" x2="38.4384" y2="49.5064" gradientUnits="userSpaceOnUse">
<stop stop-color="#FFA9DC"/>
<stop offset="1" stop-color="#FF0097"/>
</linearGradient>
</defs>
</svg>
