<svg width="16" height="16" viewBox="0 0 16 16" fill="none" xmlns="http://www.w3.org/2000/svg">
  <path fill-rule="evenodd" clip-rule="evenodd" d="M12.0287 6.95587C10.6801 6.89507 9.61265 6.41421 8.82646 5.51328C7.64719 4.16188 7.52041 3.15663 7.52041 3.03769C7.52041 2.79095 8.65094 3.82446 9.31035 4.14483C9.96976 4.4652 12.6107 5.20464 14.5573 5.7977C15.9036 6.20785 16 7.12854 16 7.58833C16 8.2057 15.4723 8.62756 14.979 8.70929C14.4857 8.79101 13.5544 9.3387 13.8796 10.1618C14.2049 10.985 16.4582 11.6278 15.6297 12.7928C15.0322 13.633 13.0221 11.6463 12.3175 11.6463C11.6129 11.6463 10.4494 11.8522 9.1694 11.4987C7.88939 11.1451 7.10975 10.0168 6.69176 10.0168C6.27378 10.0168 6.01756 10.4712 4.9501 10.6548C3.88264 10.8384 2.67628 10.0168 2.36237 10.0168C2.04846 10.0168 2.27733 10.1979 2.04773 11.1429C1.81813 12.0879 0.65533 12.6633 0.108475 11.8607C-0.438381 11.0582 1.25344 8.67406 1.38806 8.53542C1.52268 8.39679 1.92702 8.01427 2.24542 8.24812C2.56383 8.48197 2.80227 8.6219 3.15671 8.451C3.51115 8.28011 3.51115 6.177 5.44732 6.27032C7.38349 6.36365 8.50194 7.38092 9.96976 7.51346C10.9483 7.60182 11.6346 7.41596 12.0287 6.95587Z" fill="url(#paint0_linear)"/>
  <path fill-rule="evenodd" clip-rule="evenodd" d="M15.6297 12.7928C15.0322 13.633 13.0221 11.6463 12.3175 11.6463C11.6129 11.6463 10.4494 11.8522 9.1694 11.4987C7.88939 11.1451 7.10975 10.0168 6.69176 10.0168C6.27378 10.0168 6.01756 10.4712 4.9501 10.6548C3.88264 10.8384 2.80227 8.6219 3.15671 8.451C3.51115 8.28011 3.51115 6.177 5.44732 6.27032C7.38349 6.36365 8.50194 7.38092 9.96976 7.51346C11.4376 7.646 16.4582 11.6278 15.6297 12.7928Z" fill="url(#paint1_linear)"/>
  <path fill-rule="evenodd" clip-rule="evenodd" d="M15.0532 7.21591C14.9805 7.19105 14.9002 7.1446 14.8124 7.07655C14.6807 6.97448 14.6589 6.76431 14.4707 6.73446C14.2825 6.70461 13.9974 6.76265 13.9265 6.76265C13.8557 6.76265 14.2051 6.87537 14.2422 6.98069C14.2793 7.08601 14.3365 7.24112 14.5989 7.29773C14.7738 7.33546 14.9253 7.30819 15.0532 7.21591Z" fill="url(#paint2_linear)"/>
  <path fill-rule="evenodd" clip-rule="evenodd" d="M6.49241 10.0782C6.07478 10.0701 5.81166 10.5198 4.74224 10.6828C3.67281 10.8458 2.62803 8.60717 2.98485 8.44304C3.34166 8.27892 3.30511 6.26716 5.24329 6.26716C5.51196 6.26716 5.71733 6.27758 5.88698 6.29844C5.98838 6.3109 6.4065 6.37548 6.61106 6.68624C7.17707 7.54607 7.99675 9.96896 8.1042 10.6828C8.21166 11.3966 7.13677 10.238 7.09115 10.218C6.82331 10.1005 6.57039 10.0797 6.49241 10.0782Z" fill="url(#paint3_linear)"/>
  <defs>
    <linearGradient id="paint0_linear" x1="8.18667" y1="6.31897" x2="8.10333" y2="10.9166" gradientUnits="userSpaceOnUse">
      <stop stop-color="#FFA9DC"/>
      <stop offset="1" stop-color="#FF0097"/>
    </linearGradient>
    <linearGradient id="paint1_linear" x1="8.18667" y1="6.31897" x2="8.10333" y2="10.9166" gradientUnits="userSpaceOnUse">
      <stop stop-color="#FFA9DC"/>
      <stop offset="1" stop-color="#FF0097"/>
    </linearGradient>
    <linearGradient id="paint2_linear" x1="8.18667" y1="6.31897" x2="8.10333" y2="10.9166" gradientUnits="userSpaceOnUse">
      <stop stop-color="#FFA9DC"/>
      <stop offset="1" stop-color="#FF0097"/>
    </linearGradient>
    <linearGradient id="paint3_linear" x1="8.18667" y1="6.31897" x2="8.10333" y2="10.9166" gradientUnits="userSpaceOnUse">
      <stop stop-color="#FFA9DC"/>
      <stop offset="1" stop-color="#FF0097"/>
    </linearGradient>
  </defs>
</svg>
