<svg width="30" height="30" viewBox="0 0 30 30" fill="none" xmlns="http://www.w3.org/2000/svg">
<g filter="url(#filter0_d)">
<circle cx="15" cy="15" r="15" fill="white"/>
<circle cx="15" cy="15" r="14.5" stroke="#EAF1F3"/>
</g>
<path fill-rule="evenodd" clip-rule="evenodd" d="M19.859 13.4616C18.113 13.3864 16.7311 12.792 15.7133 11.6783C14.1865 10.0076 14.0224 8.76491 14.0224 8.61788C14.0224 8.31283 15.486 9.5905 16.3397 9.98655C17.1934 10.3826 20.6125 11.2967 23.1326 12.0298C24.8756 12.5369 25.0004 13.6751 25.0004 14.2435C25.0004 15.0067 24.3173 15.5282 23.6786 15.6292C23.0399 15.7302 21.8342 16.4073 22.2553 17.4249C22.6764 18.4424 25.5936 19.2371 24.521 20.6774C23.7474 21.716 21.1451 19.26 20.2329 19.26C19.3207 19.26 17.8144 19.5146 16.1572 19.0775C14.5001 18.6404 13.4907 17.2456 12.9496 17.2456C12.4084 17.2456 12.0767 17.8073 10.6947 18.0343C9.31277 18.2613 7.75096 17.2456 7.34456 17.2456C6.93816 17.2456 7.23446 17.4695 6.93721 18.6377C6.63996 19.8059 5.13455 20.5173 4.42657 19.5251C3.71859 18.5329 5.90889 15.5857 6.08318 15.4143C6.25746 15.2429 6.78093 14.77 7.19316 15.0591C7.60537 15.3482 7.91406 15.5212 8.37296 15.3099C8.83182 15.0986 8.83182 12.4987 11.3385 12.6141C13.8451 12.7295 15.2931 13.9871 17.1934 14.1509C18.4603 14.2601 19.3488 14.0304 19.859 13.4616Z" fill="url(#paint0_linear)"/>
<path fill-rule="evenodd" clip-rule="evenodd" d="M24.5211 20.6783C23.7476 21.717 21.1453 19.2609 20.2331 19.2609C19.3209 19.2609 17.8145 19.5155 16.1574 19.0785C14.5002 18.6414 13.4909 17.2466 12.9497 17.2466C12.4086 17.2466 12.0769 17.8083 10.6949 18.0353C9.31293 18.2623 7.91422 15.5221 8.37311 15.3108C8.83198 15.0996 8.83198 12.4997 11.3386 12.6151C13.8453 12.7304 15.2933 13.988 17.1936 14.1518C19.0939 14.3157 25.5938 19.238 24.5211 20.6783Z" fill="url(#paint1_linear)"/>
<path fill-rule="evenodd" clip-rule="evenodd" d="M23.7745 13.7825C23.6804 13.7517 23.5766 13.6943 23.4629 13.6102C23.2923 13.484 23.2641 13.2242 23.0205 13.1873C22.7768 13.1504 22.4076 13.2221 22.3159 13.2221C22.2243 13.2221 22.6765 13.3615 22.7246 13.4917C22.7727 13.6219 22.8467 13.8137 23.1865 13.8836C23.4129 13.9303 23.609 13.8966 23.7745 13.7825Z" fill="white"/>
<path fill-rule="evenodd" clip-rule="evenodd" d="M12.6909 17.3216C12.1503 17.3116 11.8096 17.8675 10.4251 18.069C9.04057 18.2706 7.68794 15.5031 8.14989 15.3002C8.61184 15.0973 8.56453 12.6104 11.0738 12.6104C11.4216 12.6104 11.6875 12.6232 11.9071 12.649C12.0384 12.6644 12.5797 12.7443 12.8446 13.1285C13.5773 14.1914 14.6385 17.1866 14.7776 18.069C14.9168 18.9515 13.5252 17.5192 13.4661 17.4945C13.1193 17.3493 12.7919 17.3235 12.6909 17.3216Z" fill="url(#paint2_linear)"/>
<defs>
<filter id="filter0_d" x="-25" y="-24" width="80" height="80" filterUnits="userSpaceOnUse" color-interpolation-filters="sRGB">
<feFlood flood-opacity="0" result="BackgroundImageFix"/>
<feColorMatrix in="SourceAlpha" type="matrix" values="0 0 0 0 0 0 0 0 0 0 0 0 0 0 0 0 0 0 127 0" result="hardAlpha"/>
<feOffset dy="1"/>
<feGaussianBlur stdDeviation="12.5"/>
<feColorMatrix type="matrix" values="0 0 0 0 0.88667 0 0 0 0 0.944027 0 0 0 0 0.963145 0 0 0 1 0"/>
<feBlend mode="normal" in2="BackgroundImageFix" result="effect1_dropShadow"/>
<feBlend mode="normal" in="SourceGraphic" in2="effect1_dropShadow" result="shape"/>
</filter>
<linearGradient id="paint0_linear" x1="25.0004" y1="8.57129" x2="25.0004" y2="20.9335" gradientUnits="userSpaceOnUse">
<stop stop-color="#FFA9DC"/>
<stop offset="1" stop-color="#FF0097"/>
</linearGradient>
<linearGradient id="paint1_linear" x1="24.6398" y1="12.6113" x2="24.6398" y2="20.9344" gradientUnits="userSpaceOnUse">
<stop stop-color="#FFA9DC"/>
<stop offset="1" stop-color="#FF0097"/>
</linearGradient>
<linearGradient id="paint2_linear" x1="14.8844" y1="12.6744" x2="14.786" y2="18.3582" gradientUnits="userSpaceOnUse">
<stop stop-color="#FFA9DC"/>
<stop offset="1" stop-color="#FF0097"/>
</linearGradient>
</defs>
</svg>
