<svg width="32" height="23" viewBox="0 0 32 23" xmlns="http://www.w3.org/2000/svg">
<path d="M27.0901 1.90791C25.0151 1.00999 22.8256 0.369136 20.5762 0.00131493C20.5557 -0.00193063 20.5348 0.000867605 20.5162 0.00931372C20.4975 0.0177471 20.4822 0.0314322 20.4721 0.0484522C20.1902 0.519927 19.8781 1.1366 19.6601 1.61938C17.2354 1.2724 14.769 1.2724 12.3442 1.61938C12.101 1.08157 11.8259 0.557098 11.5202 0.0484522C11.51 0.0316111 11.4945 0.0180923 11.476 0.00968448C11.4574 0.00126392 11.4366 -0.00164951 11.4162 0.00131493C9.16625 0.367168 6.97627 1.00836 4.90229 1.90791C4.88454 1.9143 4.86969 1.9263 4.86029 1.94186C0.712332 7.78616 -0.425659 13.4871 0.132337 19.1165C0.134337 19.1428 0.152337 19.1692 0.174336 19.1862C2.58976 20.8733 5.29147 22.1614 8.16426 22.9957C8.18453 23.0017 8.20634 23.0014 8.22648 22.995C8.24661 22.9885 8.26406 22.9762 8.27626 22.9598C8.89225 22.1678 9.44024 21.3323 9.91224 20.4535C9.92208 20.4354 9.92545 20.4148 9.92184 20.3947C9.91824 20.3747 9.90786 20.3563 9.89224 20.3422C9.8819 20.333 9.86964 20.326 9.85624 20.3215C8.99457 20.0092 8.16005 19.6341 7.36027 19.1994C7.33793 19.1875 7.32131 19.1678 7.31387 19.1447C7.30643 19.1216 7.30871 19.0965 7.32027 19.0749C7.32707 19.0609 7.33735 19.0486 7.35027 19.0392C7.51827 18.9203 7.68627 18.7959 7.84627 18.6714C7.8604 18.6607 7.87735 18.6538 7.89532 18.6515C7.91329 18.649 7.93158 18.6515 7.94826 18.6581C13.1862 20.9137 18.8562 20.9137 24.0301 18.6581C24.0473 18.6511 24.0664 18.6487 24.085 18.651C24.1037 18.6533 24.1213 18.6603 24.1361 18.6714C24.2961 18.7959 24.4642 18.9203 24.6321 19.0392C24.6457 19.0485 24.6567 19.0609 24.6639 19.0752C24.6712 19.0896 24.6747 19.1053 24.6738 19.1213C24.673 19.1372 24.6681 19.1526 24.6594 19.1663C24.6507 19.1798 24.6386 19.1912 24.6242 19.1994C23.8261 19.638 22.9905 20.0127 22.1261 20.3196C22.1123 20.3243 22.0998 20.3318 22.0895 20.3416C22.079 20.3513 22.0711 20.3632 22.0661 20.3762C22.0615 20.3887 22.0597 20.4022 22.0607 20.4155C22.0617 20.4287 22.0655 20.4416 22.0721 20.4535C22.5521 21.3305 23.1021 22.1678 23.7062 22.9598C23.7183 22.9762 23.7358 22.9885 23.7558 22.995C23.776 23.0014 23.7979 23.0017 23.8182 22.9957C26.6957 22.1641 29.4018 20.8757 31.82 19.1862C31.8321 19.1783 31.8422 19.168 31.8495 19.1558C31.8567 19.1438 31.861 19.1303 31.862 19.1165C32.53 12.6083 30.7441 6.95449 27.13 1.94374C27.1264 1.93548 27.121 1.92801 27.114 1.92184C27.1072 1.91567 27.099 1.91092 27.0901 1.90791ZM10.6942 15.6879C9.11625 15.6879 7.81826 14.3226 7.81826 12.648C7.81826 10.9714 9.09225 9.60601 10.6942 9.60601C12.3082 9.60601 13.5942 10.9826 13.5702 12.648C13.5702 14.3226 12.2962 15.6879 10.6942 15.6879ZM21.3261 15.6879C19.7501 15.6879 18.4501 14.3226 18.4501 12.648C18.4501 10.9714 19.7241 9.60601 21.3261 9.60601C22.9401 9.60601 24.2281 10.9826 24.202 12.648C24.202 14.3226 22.9401 15.6879 21.3261 15.6879Z" fill="black"/>
</svg>
